<?xml version="1.0" encoding="UTF-8"?>
<svg width="1200pt" height="1200pt" version="1.1" viewBox="0 0 1200 1200" xmlns="http://www.w3.org/2000/svg">
 <path d="m156.78 999.73c39.336 31.016 80.293 59.961 118.96 91.715 37.953 31.199 83.816 51.152 128.5 59.934 45.641 8.9414 92.637 13.477 138.74 24.395 56.242 13.359 113.84 2.4805 170.7 0.38281 81.836-2.9922 158.27-30.199 232.7-61.754 43.094-18.266 81.641-46.09 107.27-85.648 42.988-66.422 83.102-134.71 122.99-203.05 11.934-20.398 19.781-43.188 21.441-67.688 7.2148-104.88-5.7773-207.61-31.805-309.06-4.8281-18.793-5.418-39.602-14.109-56.309-25.227-48.16-47.145-97.805-78.371-143.27-53.734-78.117-112.07-145.2-206.14-178.97-72.688-26.109-144.63-49.754-221.73-54.633-15.625-1.0039-34.285-10.445-47.289 9.0195-2.2031 3.2695-10.668 3.3633-14.441-1.293-6.9766-8.5703-13.676-4.3516-21.242-1.4648-14.715 5.5508-29.656 10.445-44.547 15.535-44.914 15.285-90.961 26.031-134.95 45.812-53.734 24.172-105.29 51.586-155.41 81.918-27.707 16.762-53.695 36.527-68.969 67.055-4.2852 8.5039-8.4141 15.93-1.4883 24.199 6.1602 7.3984 14.242 5.7227 21.957 2.8477 32.32-11.934 62.137-30.645 88.023-51.285 21.941-17.473 43.953-26.77 69.453-32.336 13.676-2.9922 29.434-1.3594 40.391-10.785 51.375-44.137 116.27-48.816 178.07-62.559 3.3906-0.77734 7.1094-0.73828 10.602-0.30469 43.133 5.3555 86.281 6.6211 129.82 6.2109 48.922-0.47656 95.406 15.074 141.48 30.371 5.5781 1.832 12.266 8.8359 16.484 1.8867 18.5-30.488 35.223-7.6094 51.191 1.7539 15.113 8.8477 30.805 18.594 42.223 31.516 17.312 19.57 47.184 22.656 62.02 50.637-8.0977-4.7852-13.188-7.6992-18.145-10.785-8.6758-5.3945-17.789-10.656-25.094 1.0273-5.9219 9.5078-0.69922 17.234 7.2383 22.562 45.336 30.344 69.047 77.684 89.828 124.39 21.164 47.645 41.988 96.699 38.625 152.24-2.5977 43.148-13.027 85.609-11.801 128.74 0.85547 29.051-4.918 55.57-14.031 82.695-9.8359 29.25-21.586 57.652-34.152 85.715-6.3047 14.148-1.2656 26.148 7.3203 35.062 7.9648 8.2422 13.66-0.91016 17.145-8.3477 33.164-70.551 75.73-138.24 69.375-221.16-0.59375-7.7539-0.13281-15.891 8.3477-16.801 12.094-1.2656 8.7812 10.273 10.273 16.828 9.0742 39.574 4.6797 79.898-1.7539 118.55-6.6445 40.023-12.832 81.391-40.406 115.85-25.383 31.727-44.02 67.965-52.008 108.8-2.0312 10.406-8.9141 18.621-17.551 25.754-44.703 36.738-93.285 66.41-149.1 82.996-5.8398 1.7148-11.684 12.477-17.801 3.1523-5.2227-7.9375 0.18359-14.98 7.5547-19.965 19.027-12.844 35.883-28.301 53.129-43.398 42.211-37.109 86.348-72.434 105.77-128 2.8086-7.9922 10.984-17.434 2.3984-25.887-10.707-10.551-17.934 1.3828-24.477 6.75-23.551 19.359-46.762 40.812-66.434 62.625-60.266 66.816-140.7 91.887-219.92 121.37-11.5 4.2734-23.102 9.2305-35.09 11.078-80.82 12.539-159.75 1.7656-237.59-20.969-89.156-25.992-168.99-67.793-232.22-137.51-13.953-15.402-25.516-33.469-39.469-48.145-49.555-52.273-74.609-115.93-89.461-183.77-9.0742-41.461-11.09-84.555-15.113-127-5.9883-63.113-4.0625-124.25 38.309-177.79 9.4961-11.988 9.6133-31.426 13.648-47.551 1.043-4.1523 1.0664-9.1914-3.6641-11.605-4.8906-2.4805-8.0977 1.2383-11.301 4.2852-20.453 19.383-41.695 37.781-51.836 65.656-20.414 56.059-33.746 114.04-44.387 172.34-9.8516 53.828-14.242 109.23-5.8555 163.43 8.5586 55.172 25.32 109.03 47.59 160.47 21.273 49.359 44.824 96.266 89.566 131.54zm-58.484-192.79c23.855 63.152 69.812 109 118.41 152.78 91.648 82.535 199.71 126.59 321.56 142.23 30.805 3.957 61.516 10.484 96.621 9.2969-7.2656 15.641-19.781 24.645-27.52 21.496-17.945-7.3047-32.758 2.5859-48.938 3.125-38.941 1.3438-74.969-1.6758-111.48-21.047-34.273-18.16-74.914-23.367-107.95-46.918-63.941-45.613-133.83-81.918-184.72-146.12-49.449-62.398-64.062-78.883-71.473-140.69 7.6211 12.555 12.805 18.738 15.492 25.848z"/>
 <path d="m62.809 314.82c25.727 1.3438 55.977-17.695 53.051-36.039-2.9141-18.434-1.7539-43.648-23.645-50.359-20.148-6.1992-56.715 29.75-58.301 54.328 1.5195 16.168 7.1875 30.938 28.895 32.07z"/>
 <path d="m96.461 86.242c-7.7539-9.1914-13.422-19.926-22.086-28.285-9.0469-8.7305-19.621-11.723-31.383-7.8477-13.441 4.4062-23.715 11.828-20.891 28.43 3.4961 20.57 24.223 38.148 44.23 37.543 26.383-0.81641 41.906-15.836 30.129-29.84z"/>
 <path d="m953.42 211.98c-4.1953-9.6914-3.5742-23.379-19.715-23.012-12.988 0.26562-18.91 7.3711-18.621 19.926 0.31641 14.57 11.195 18.871 22.629 20.375 11.793 1.5703 13.07-8.7148 15.707-17.289z"/>
 <path d="m28.734 385.45c12 1.1719 18.566-3.9023 17.855-16.973-0.26562-9.3359 0.9375-22.469-11.816-21.969-10.035 0.43359-22.957 5.6055-23.762 20.109-0.64844 11.883 6.5664 17.727 17.723 18.832z"/>
</svg>
