<?xml version="1.0" encoding="UTF-8"?>
<svg width="1200pt" height="1200pt" version="1.1" viewBox="0 0 1200 1200" xmlns="http://www.w3.org/2000/svg">
 <path d="m440.84 282.28c0-2.4023 1.2031-4.8047 3.6055-4.8047 2.4023 0 4.8047 1.2031 4.8047 4.8047 1.2031 0 3.6055 0 4.8047-1.2031 4.8047 0 9.6094-1.2031 13.215 0s6.0078 1.2031 9.6094 2.4023c3.6055 1.2031 6.0078 0 8.4102-1.2031 4.8047-1.2031 8.4102-3.6055 13.215-4.8047 2.4023-1.2031 3.6055-1.2031 6.0078-1.2031 2.4023-1.2031 4.8047-1.2031 8.4102-2.4023 6.0078-1.2031 12.012-2.4023 16.816-4.8047 4.8047-2.4023 9.6094-2.4023 14.414-3.6055 2.4023 0 3.6055-1.2031 6.0078-2.4023 1.2031 0 1.2031-1.2031 2.4023-2.4023 2.4023-1.2031 3.6055-2.4023 6.0078-1.2031 1.2031 1.2031 3.6055 1.2031 4.8047 0h1.2031c7.207 0 14.414-1.2031 22.824 0h2.4023c3.6055-2.4023 8.4102-2.4023 13.215-2.4023h4.8047 1.2031c4.8047 0 9.6094 0 13.215 1.2031 3.6055 0 6.0078 1.2031 9.6094 2.4023 3.6055 0 6.0078 0 9.6094 1.2031h7.207 2.4023c4.8047 1.2031 9.6094 1.2031 14.414 1.2031 3.6055 1.2031 7.207 2.4023 12.012 2.4023h3.6055c1.2031 0 2.4023 1.2031 3.6055 1.2031l1.2031 1.2031c4.8047 0 8.4102 2.4023 13.215 2.4023 1.2031 0 3.6055 0 4.8047 1.2031 3.6055 2.4023 8.4102 3.6055 13.215 3.6055 2.4023 0 3.6055 1.2031 4.8047 2.4023 3.6055 1.2031 6.0078 2.4023 9.6094 3.6055 2.4023 1.2031 4.8047 0 7.207 1.2031 3.6055 1.2031 8.4102 2.4023 12.012 6.0078 2.4023 2.4023 4.8047 2.4023 8.4102 4.8047 1.2031 0 2.4023 1.2031 3.6055 2.4023 3.6055 2.4023 7.207 4.8047 10.812 6.0078 1.2031 0 2.4023 1.2031 3.6055 1.2031 3.6055 2.4023 7.207 6.0078 12.012 8.4102 2.4023 1.2031 3.6055 2.4023 6.0078 3.6055h1.2031c3.6055 3.6055 8.4102 6.0078 12.012 9.6094 3.6055 3.6055 6.0078 6.0078 10.812 8.4102v1.2031c1.2031 2.4023 2.4023 3.6055 4.8047 4.8047 2.4023 1.2031 3.6055 2.4023 4.8047 3.6055 3.6055 2.4023 7.207 4.8047 9.6094 7.207l4.8047 4.8047c1.2031 1.2031 2.4023 2.4023 3.6055 2.4023 4.8047 1.2031 7.207 4.8047 10.812 8.4102 2.4023 2.4023 6.0078 6.0078 8.4102 8.4102 1.2031 1.2031 2.4023 3.6055 3.6055 6.0078 2.4023 7.207 6.0078 14.414 9.6094 20.422 0 0 0 1.2031 1.2031 2.4023v1.2031c2.4023 2.4023 3.6055 6.0078 6.0078 8.4102 1.2031 1.2031 1.2031 2.4023 2.4023 3.6055 2.4023 3.6055 3.6055 8.4102 6.0078 12.012 3.6055 6.0078 6.0078 12.012 8.4102 18.02v1.2031c1.2031 2.4023 2.4023 4.8047 3.6055 8.4102 0 2.4023 2.4023 4.8047 3.6055 8.4102 1.2031 6.0078 4.8047 12.012 6.0078 19.219 0 1.2031 1.2031 2.4023 1.2031 4.8047 1.2031 3.6055 2.4023 7.207 3.6055 10.812 0 1.2031 1.2031 2.4023 2.4023 3.6055 2.4023 2.4023 2.4023 4.8047 2.4023 7.207-1.2031 4.8047 0 9.6094 1.2031 14.414v4.8047c1.2031 4.8047 2.4023 10.812 2.4023 15.617v4.8047c0 3.6055 1.2031 7.207 3.6055 10.812 0 1.2031 1.2031 1.2031 1.2031 1.2031 1.2031 1.2031 2.4023 3.6055 3.6055 4.8047l2.4023 2.4023c2.4023 2.4023 3.6055 4.8047 3.6055 8.4102 0 1.2031-1.2031 3.6055-1.2031 4.8047 0 1.2031 0 3.6055 1.2031 4.8047 1.2031 1.2031 1.2031 2.4023 1.2031 3.6055s-1.2031 2.4023-2.4023 2.4023c-1.2031 3.6055-6.0078 4.8047-7.207 8.4102-1.2031 4.8047-2.4023 9.6094-3.6055 14.414-1.2031 3.6055-1.2031 6.0078-1.2031 9.6094 0 3.6055-1.2031 6.0078-1.2031 9.6094-1.2031 4.8047-2.4023 9.6094-3.6055 14.414 0 2.4023-1.2031 4.8047-1.2031 7.207 1.2031 1.2031 2.4023 2.4023 3.6055 2.4023 2.4023 2.4023 4.8047 4.8047 7.207 7.207 1.2031 1.2031 1.2031 2.4023 0 2.4023-1.2031 1.2031-2.4023 1.2031-3.6055 1.2031-1.2031-1.2031-3.6055-2.4023-4.8047-2.4023-1.2031-1.2031-3.6055-2.4023-6.0078-1.2031 0 2.4023-1.2031 4.8047-1.2031 6.0078-1.2031 2.4023-2.4023 6.0078-2.4023 8.4102-1.2031 4.8047-3.6055 8.4102-4.8047 13.215-2.4023 6.0078-4.8047 10.812-7.207 15.617-1.2031 2.4023-2.4023 4.8047-3.6055 7.207 0 3.6055-3.6055 7.207-4.8047 10.812-2.4023 4.8047-4.8047 9.6094-7.207 15.617-1.2031 2.4023-2.4023 4.8047-3.6055 6.0078-2.4023 6.0078-4.8047 10.812-8.4102 15.617-2.4023 3.6055-4.8047 6.0078-7.207 7.207-2.4023 2.4023-4.8047 4.8047-7.207 7.207l-3.6055 3.6055c-1.2031 1.2031-1.2031 1.2031-2.4023 2.4023-2.4023 3.6055-6.0078 6.0078-8.4102 9.6094-2.4023 2.4023-3.6055 4.8047-7.207 7.207-2.4023 2.4023-4.8047 6.0078-8.4102 7.207-1.2031 1.2031-2.4023 3.6055-3.6055 4.8047-1.2031 1.2031-2.4023 3.6055-3.6055 4.8047 0 2.4023 1.2031 4.8047 1.2031 6.0078 0 3.6055-3.6055 4.8047-6.0078 2.4023-3.6055-2.4023-3.6055-2.4023-7.207 0-3.6055 2.4023-7.207 6.0078-12.012 7.207-1.2031 0-1.2031 1.2031-2.4023 1.2031-2.4023 1.2031-3.6055 3.6055-6.0078 4.8047-2.4023 2.4023-6.0078 3.6055-8.4102 6.0078-1.2031 1.2031-2.4023 1.2031-3.6055 2.4023-3.6055 2.4023-7.207 3.6055-10.812 7.207-1.2031 1.2031-2.4023 1.2031-3.6055 2.4023v2.4023c0 2.4023-2.4023 4.8047-6.0078 3.6055-3.6055-1.2031-6.0078 0-9.6094 0-3.6055 1.2031-7.207 3.6055-10.812 4.8047-1.2031 0-2.4023 1.2031-3.6055 2.4023-3.6055 2.4023-7.207 3.6055-10.812 4.8047-2.4023 0-4.8047 2.4023-7.207 2.4023-1.2031 0-2.4023 1.2031-3.6055 1.2031h-1.2031c-4.8047 3.6055-9.6094 6.0078-14.414 9.6094-1.2031 0-1.2031 1.2031-2.4023 2.4023-1.2031 2.4023-2.4023 3.6055-4.8047 3.6055-6.0078 0-8.4102 4.8047-7.207 9.6094 0 1.2031 1.2031 2.4023 1.2031 3.6055 1.2031 2.4023 0 4.8047-1.2031 6.0078-1.2031 1.2031-4.8047 1.2031-6.0078-1.2031-2.4023-2.4023-3.6055-4.8047-4.8047-8.4102-1.2031-2.4023-3.6055-4.8047-6.0078-6.0078-2.4023-1.2031-4.8047-1.2031-7.207 0-1.2031 0-1.2031 1.2031-2.4023 1.2031-2.4023 2.4023-6.0078 3.6055-9.6094 2.4023-1.2031 0-3.6055 0-3.6055 1.2031-1.2031 1.2031-1.2031 3.6055 0 4.8047 2.4023 2.4023 1.2031 4.8047 1.2031 8.4102 0 4.8047-3.6055 7.207-8.4102 4.8047-1.2031-1.2031-2.4023-1.2031-3.6055-2.4023-1.2031 0-1.2031-1.2031-1.2031-2.4023-1.2031-1.2031-1.2031-3.6055-2.4023-6.0078-2.4023 1.2031-4.8047 1.2031-7.207 2.4023-1.2031 0-2.4023 1.2031-3.6055 1.2031-3.6055 0-4.8047 0-6.0078-3.6055-1.2031-3.6055-3.6055-3.6055-6.0078-4.8047-4.8047-1.2031-10.812-1.2031-15.617-3.6055h-1.2031c-4.8047-3.6055-9.6094-3.6055-15.617-3.6055-3.6055 0-7.207 1.2031-10.812 1.2031-3.6055 0-6.0078 1.2031-8.4102 3.6055-1.2031 1.2031-2.4023 2.4023-3.6055 2.4023-1.2031-1.2031-1.2031-2.4023-2.4023-3.6055v-1.2031c0-1.2031-1.2031-2.4023-2.4023-1.2031-2.4023 1.2031-4.8047-1.2031-7.207-2.4023-1.2031-1.2031-3.6055-3.6055-3.6055-6.0078-1.2031-1.2031-2.4023-2.4023-3.6055-2.4023-2.4023 0-6.0078-1.2031-8.4102-1.2031-1.2031 0-2.4023 0-2.4023-1.2031-1.2031-1.2031-2.4023-1.2031-4.8047-1.2031-1.2031 0-1.2031-1.2031-2.4023-1.2031 2.4023 2.4023 3.6055 4.8047 4.8047 7.207 0 1.2031 1.2031 1.2031 1.2031 2.4023 1.2031 2.4023 0 3.6055-3.6055 3.6055-2.4023 0-2.4023 0-3.6055 1.2031v6.0078c0 1.2031 0 2.4023-2.4023 3.6055 0 0-1.2031 0-1.2031 1.2031-1.2031 1.2031-1.2031 2.4023 0 3.6055 3.6055 2.4023 6.0078 3.6055 9.6094 4.8047 3.6055 0 3.6055 2.4023 4.8047 4.8047 1.2031 2.4023 0 3.6055-1.2031 6.0078-2.4023 2.4023-4.8047 4.8047-7.207 7.207-3.6055 1.2031-6.0078 4.8047-9.6094 4.8047-2.4023 0-4.8047-1.2031-6.0078-3.6055-1.2031-6.0078-1.2031-10.812 1.2031-16.816 0-1.2031 1.2031-2.4023 0-3.6055-10.805-0.070313-10.805-2.4727-10.805-3.6719 0-2.4023 1.2031-3.6055 1.2031-6.0078 1.2031-2.4023 0-3.6055-3.6055-4.8047h-3.6055c-1.2031 0-1.2031-1.2031-3.6055-1.2031 2.4023-1.2031 3.6055-1.2031 6.0078-2.4023-1.2031-4.8047-2.4023-8.4102-6.0078-10.812-1.2031-1.2031-2.4023-2.4023-2.4023-4.8047 0-3.6055-2.4023-6.0078-3.6055-8.4102-2.4023-3.6055-7.207-4.8047-10.812-4.8047-3.6055-1.2031-6.0078-1.2031-9.6094-2.4023-3.6055-1.2031-7.207-4.8047-10.812-6.0078-1.2031-1.2031-2.4023-2.4023-4.8047-3.6055-4.8047-2.4023-8.4102-6.0078-12.012-9.6094-2.4023-1.2031-3.6055-3.6055-6.0078-4.8047-2.4023-2.4023-3.6055-4.8047-6.0078-6.0078-2.4023-2.4023-4.8047-4.8047-8.4102-7.207-3.6055-2.4023-6.0078-6.0078-9.6094-9.6094-2.4023-3.6055-6.0078-6.0078-9.6094-8.4102h-3.6055c-1.2031 0-2.4023 1.2031-3.6055 1.2031-3.6055 1.2031-6.0078 3.6055-9.6094 4.8047 1.2188-1.1914 1.2188-1.1914 0.015625-3.5938-1.2031-1.2031-2.4023-2.4023-3.6055-2.4023h-7.207c-4.8047 0-9.6094 1.2031-14.414 1.2031-3.6055 0-8.4102 1.2031-12.012 2.4023 1.2031 2.4023 1.2031 3.6055 2.4023 6.0078-2.4023 1.2031-4.8047 1.2031-7.207 1.2031-1.2031 0-3.6055 1.2031-4.8047 2.4023-1.2031 0-1.2031 1.2031-2.4023 0-2.4023-1.2031-4.8047 0-7.207 1.2031h-1.2031s0-1.2031 1.2031-1.2031c1.2031-1.2031 2.4023-2.4023 3.6055-3.6055s2.4023-1.2031 4.8047-2.4023c-1.2031-1.2031-1.2031-2.4023-1.2031-2.4023-1.2031-1.2031-2.4023-1.2031-3.6055 0-1.2031 1.2031-2.4023 2.4023-3.6055 3.6055s-2.4023 1.2031-3.6055 0c-1.2031-1.2031-1.2031-2.4023 0-3.6055 0-1.2031 1.2031-2.4023 2.4023-3.6055 1.2031-1.2031 1.2031-2.4023 2.4023-3.6055-2.4023-2.4023-3.6055-4.8047-6.0078-6.0078-3.6055-2.4023-7.207-6.0078-9.6094-9.6094-2.4023-4.8047-6.0078-8.4102-10.812-10.812l-6.0078-6.0078c-3.6055 1.2031-6.0078 3.6055-9.6094 4.8047-1.2031 0-1.2031 1.2031-2.4023 2.4023-1.2031 2.4023-3.6055 2.4023-6.0078 2.4023-1.2031 0-2.4023-1.2031-1.2031-2.4023 1.2031-2.4023 2.4023-4.8047 6.0078-3.6055 0 0 1.2031 0 1.2031-1.2031 2.4023-2.4023 4.8047-6.0078 8.4102-8.4102-1.2031-3.6055-3.6055-6.0078-4.8047-8.4102-1.2031-1.2031-1.2031-2.4023-1.2031-4.8047 0-1.2031 0-1.2031-1.2031-2.4023 0 0-1.2031 0-2.4023 1.2031-1.2031 1.2031-3.6055 2.4023-6.0078 0 0-1.2031 0-2.4023 1.2031-3.6055l1.2031-1.2031c3.6055-1.2031 3.6055-4.8047 3.6055-8.4102v-1.2031c-1.2031-2.4023-1.2031-3.6055 1.2031-6.0078 3.6055-2.4023 7.207-7.207 8.4102-10.812 1.2031-2.4023 3.6055-3.6055 6.0078-6.0078 2.4023-2.4023 4.8047-4.8047 6.0078-8.4102h1.2031c4.8047 1.2031 6.0078-2.4023 8.4102-6.0078 0-1.2031 0-2.4023 1.2031-2.4023 2.4023-2.4023 2.4023-4.8047 1.2031-8.4102 0-1.2031-1.2031-3.6055-1.2031-4.8047 0-1.2031 0-1.2031-1.2031-2.4023-3.6055-2.4023-3.6055-4.8047 0-7.207 2.4023-1.2031 2.4023-3.6055 3.6055-4.8047 1.2031-2.4023 1.2031-4.8047 1.2031-8.4102-1.2031-3.6055-1.2031-8.4102-2.4023-12.012-1.2031-4.8047-2.4023-10.812-3.6055-15.617v-2.4023c0-3.6055 0-6.0078-1.2031-9.6094-1.2031-1.2031-1.2031-3.6055-1.2031-4.8047-1.2031-3.6055-2.4023-6.0078-6.0078-7.207-3.6055-2.4023-8.4102-3.6055-12.012-6.0078-1.2031-1.2031-2.4023 0-3.6055 1.2031-1.2031 2.4023-3.6055 4.8047-4.8047 7.207-1.2031 1.2031-2.4023 3.6055-3.6055 6.0078-2.4023 2.4023-7.207 4.8047-10.812 1.2031-1.2031-2.4023-2.4023-3.6055 0-6.0078 2.4023-3.6055 4.8047-7.207 8.4102-9.6094 1.2031-1.2031 2.4023-3.6055 3.6055-4.8047 1.2031-2.4023 1.2031-4.8047 1.2031-7.207-1.2031-4.8047-2.4023-9.6094-2.4023-15.617 0-6.0078 0-10.812 1.2031-16.816 1.2031-2.4023 1.2031-6.0078 2.4023-8.4102 0-1.2031 1.2031-3.6055 2.4023-4.8047 2.4023-2.4023 4.8047-4.8047 6.0078-8.4102 1.2031-3.6055 3.6055-7.207 3.6055-10.812 0-1.2031 1.2031-2.4023 1.2031-3.6055 0-1.2031 1.2031-3.6055 1.2031-4.8047-1.2031-3.6055 0-6.0078 1.2031-8.4102s2.4023-6.0078 3.6055-8.4102c2.4023-4.8047 2.4023-10.812 7.207-15.617 1.2031-2.4023 2.4023-4.8047 3.6055-7.207 1.2031-4.8047 3.6055-8.4102 6.0078-12.012 1.2031-1.2031 1.2031-1.2031 1.2031-2.4023 1.2031-3.6055 3.6055-7.207 6.0078-10.812 2.4023-3.6055 2.4023-7.207 3.6055-10.812 0-1.2031 0-2.4023 1.2031-3.6055 3.6055-3.6055 2.4023-8.4102 1.2031-13.215-2.4023-6.0078-3.6055-12.012-2.4023-18.02 0-1.2031 0-2.4023 1.2031-2.4023 1.2031-2.4023 1.2031-3.6055 2.4023-6.0078v-1.2031c2.4023-2.4023 4.8047-6.0078 8.4102-7.207 4.8047-2.4023 9.6094-3.6055 15.617-4.8047 4.8047 0 9.6094-2.4023 13.215-7.207 0-1.2031 1.2031-1.2031 2.4023-2.4023l1.2031-1.2031c1.2031-2.4023 2.4023-3.6055 3.6055-4.8047 2.4023-2.4023 4.8047-6.0078 7.207-8.4102 2.4023-2.4023 4.8047-6.0078 8.4102-9.6094l1.2031-1.2031c2.4023-2.4023 4.8047-4.8047 7.207-6.0078 2.4023-2.4023 4.8047-4.8047 7.207-7.207 2.4023-2.4023 3.6055-4.8047 6.0078-7.207 2.4023-1.2031 4.8047-3.6055 7.207-6.0078 2.4023-2.4023 4.8047-4.8047 6.0078-6.0078 2.4023-2.4023 6.0078-4.8047 8.4102-6.0078s4.8047-2.4023 6.0078-6.0078c1.2031-3.6055 2.4023-6.0078 3.6055-9.6094 0-2.4023 1.2031-4.8047 2.4023-7.207 1.2031 0 2.4023 0 4.8047-1.2031-1.2031-1.2031-2.4023-1.2031-2.4023-2.4023 0-1.2031 1.2031-2.4023 1.2031-2.4023 0-1.2031 1.2031-2.4023 1.2031-3.6055 0 0 1.2031 0 1.2031-1.2031 0 0 1.2031 0 1.2031-1.2031-2.457 1.2734-3.6562 0.074219-4.8594-1.1289 1.2031 1.2031 2.4023 1.2031 4.8047 2.4023 0 0 1.2031 0 1.2031-1.2031v-2.4023h-2.4023c-1.2031 0.003906-2.4023 1.2031-3.6055 1.2031zm207.81 564.57c0-1.2031-1.2031-1.2031-1.2031-2.4023-1.2031-2.4023 0-3.6055 1.2031-4.8047 1.2031-1.2031 2.4023-1.2031 4.8047-1.2031 2.4023 1.2031 3.6055 2.4023 3.6055 4.8047v4.8047c1.2031 4.8047 1.2031 4.8047 6.0078 4.8047h7.207c4.8047-1.2031 9.6094-3.6055 14.414-4.8047 4.8047-1.2031 9.6094-2.4023 14.414-3.6055h4.8047c4.8047 1.2031 8.4102 0 12.012-2.4023 1.2031-1.2031 3.6055-1.2031 4.8047-2.4023 2.4023-1.2031 4.8047-1.2031 7.207-2.4023 6.0078-3.6055 12.012-6.0078 16.816-9.6094 3.6055-2.4023 7.207-4.8047 10.812-7.207 3.6055-2.4023 7.207-4.8047 10.812-7.207 2.4023-1.2031 6.0078-3.6055 8.4102-6.0078 4.8047-3.6055 8.4102-7.207 13.215-9.6094 2.4023-1.2031 3.6055-2.4023 4.8047-3.6055 2.4023-1.2031 3.6055-3.6055 6.0078-4.8047 1.2031-1.2031 2.4023-2.4023 4.8047-3.6055 1.2031-1.2031 1.2031-1.2031 1.2031-2.4023 3.6055-2.4023 7.207-7.207 9.6094-10.812 2.4023-2.4023 4.8047-4.8047 7.207-8.4102 3.6055-3.6055 6.0078-8.4102 9.6094-13.215 2.4023-2.4023 4.8047-6.0078 6.0078-8.4102 2.4023-4.8047 4.8047-9.6094 8.4102-13.215v-1.2031c2.4023-4.8047 4.8047-9.6094 7.207-14.414 3.6055-6.0078 6.0078-13.215 9.6094-19.219 1.2031-2.4023 2.4023-4.8047 2.4023-7.207 2.4023-4.8047 3.6055-9.6094 4.8047-14.414 0-1.2031 0-1.2031 1.2031-2.4023 3.6055-7.207 6.0078-14.414 7.207-22.824 1.2031-4.8047 2.4023-9.6094 3.6055-14.414 2.4023-7.207 2.4023-13.215 3.6055-20.422 1.2031-4.8047 1.2031-10.812 1.2031-15.617 1.2031-7.207 1.2031-15.617 0-22.824 0-6.0078-1.2031-13.215-1.2031-19.219 0-6.0078-1.2031-10.812-2.4023-16.816-1.2031-6.0078-2.4023-10.812-3.6055-16.816-2.4023-4.8047-3.6055-9.6094-4.8047-15.617-1.2031-4.8047-3.6055-8.4102-3.6055-13.215 0-3.6055-1.2031-7.207-4.8047-8.4102-3.6055-1.2031-6.0078-2.4023-9.6094-4.8047-7.207-4.8047-10.812-10.812-9.6094-18.02 0-3.6055 1.2031-8.4102 2.4023-12.012 1.2031-3.6055 2.4023-7.207 0-9.6094-1.2031-3.6055-3.6055-6.0078-4.8047-8.4102-2.4023-3.6055-3.6055-6.0078-6.0078-8.4102-2.4023-4.8047-4.8047-9.6094-8.4102-13.215-4.8047-6.0078-8.4102-12.012-14.414-16.816l-1.2031-1.2031c-3.6055-4.8047-7.207-9.6094-12.012-13.215-2.4023-2.4023-4.8047-4.8047-7.207-6.0078-1.2031-1.2031-2.4023-2.4023-4.8047-3.6055-3.6055-2.4023-7.207-3.6055-9.6094-6.0078-3.6055-3.6055-8.4102-6.0078-12.012-8.4102 0 0-1.2031 0-1.2031-1.2031-4.8047-2.4023-8.4102-3.6055-13.215-6.0078-4.8047-2.4023-9.6094-3.6055-14.414-3.6055h-2.4023c-1.2031-1.2031-3.6055-1.2031-4.8047-1.2031h-2.4023c-2.4023-1.2031-6.0078 0-8.4102 0-4.8047 1.2031-9.6094 1.2031-14.414-1.2031-6.0078-2.4023-10.812-4.8047-15.617-7.207-3.6055-2.4023-6.0078-4.8047-9.6094-7.207-7.207-6.0078-14.414-13.215-22.824-19.219 1.1953-5.957-1.207-7.1562-6.0117-7.1562-2.4023 0-4.8047 1.2031-7.207 2.4023l-2.4023 2.4023c-3.6055 2.4023-6.0078 6.0078-9.6094 8.4102-6.0078 3.6055-8.4102 2.4023-13.215 0-1.2031-1.2031-2.4023-2.4023-3.6055-3.6055-2.4023-2.4023-4.8047-6.0078-6.0078-8.4102-2.4023-4.8047-7.207-4.8047-12.012-4.8047-2.4023 0-6.0078 1.2031-8.4102 1.2031-4.8047 0-9.6094 2.4023-12.012 6.0078s-4.8047 7.207-8.4102 10.812c-1.2031 1.2031-3.6055 2.4023-4.8047 4.8047-2.4023 2.4023-4.8047 2.4023-7.207 0-1.2031-1.2031-2.4023-1.2031-3.6055-2.4023-1.2031 1.2031-2.4023 2.4023-2.4023 3.6055-1.2031 2.4023-2.4023 4.8047-3.6055 8.4102s-3.6055 7.207-6.0078 9.6094c-1.2031 1.2031-1.2031 1.2031-2.4023 2.4023-1.2031 2.4023-4.8047 3.6055-7.207 3.6055-2.4023 2.4023-4.8047 6.0078-6.0078 8.4102-1.2031 2.4023-2.4023 4.8047-3.6055 8.4102-1.2031 1.2031-1.2031 3.6055-2.4023 4.8047-1.2031 2.4023-1.2031 3.6055-1.2031 6.0078 1.2031 3.6055-1.2031 4.8047-4.8047 6.0078-2.4023 0-2.4023 0-3.6055 2.4023 0 3.6055 1.2031 6.0078 2.4023 9.6094 1.2031 1.2031 2.4023 3.6055 2.4023 4.8047 0 2.4023 1.2031 3.6055 3.6055 4.8047 1.2031 1.2031 2.4023 2.4023 3.6055 2.4023s1.2031 1.2031 2.4023 1.2031c1.2031 1.2031 2.4023 0 2.4023-1.2031 1.2031-3.6055 2.4023-7.207 2.4023-10.812 1.2031-4.8047 1.2031-8.4102 2.4023-13.215 1.2031-2.4023 2.4023-3.6055 3.6055-4.8047h2.4023v1.2031c-1.2031 6.0078-3.6055 13.215-4.8047 19.219-1.2031 2.4023-1.2031 4.8047-2.4023 7.207 0 1.2031-1.2031 2.4023-2.4023 2.4023-2.4023 1.2031-4.8047 2.4023-7.207 2.4023h-3.6055c-2.4023-1.2031-4.8047-3.6055-7.207-4.8047-1.2031-1.2031-2.4023-2.4023-3.6055-3.6055-1.2031-2.4023-2.4023-4.8047-3.6055-7.207s-2.4023-3.6055-4.8047-4.8047c-1.2031-1.2031-2.4023-1.2031-3.6055-2.4023-2.4023-2.4023-4.8047-3.6055-8.4102-3.6055h-4.8047c-1.2031 0-3.6055 1.2031-4.8047 2.4023-2.4023 1.2031-3.6055 1.2031-6.0078 0-6.0078-2.4023-12.012-1.2031-18.02 1.2031-2.4023 1.2031-4.8047 2.4023-7.207 2.4023h-16.816c-6.0078 0-10.812-1.2031-16.816-2.4023h-7.207c-4.8047 1.2031-6.0078 4.8047-4.8047 9.6094 1.2031 4.8047 2.4023 10.812 2.4023 15.617v10.812 6.0078c0 3.6055-1.2031 7.207-1.2031 10.812-1.2031 7.207-4.8047 13.215-9.6094 18.02-3.6055 3.6055-8.4102 7.207-13.215 8.4102-2.4023 1.2031-4.8047 2.4023-8.4102 3.6055-6.0078 2.4023-10.812 7.207-14.414 13.215-1.2031 2.4023-2.4023 4.8047-3.6055 7.207-2.4023 3.6055-3.6055 6.0078-6.0078 9.6094-1.2031 2.4023-3.6055 4.8047-4.8047 7.207-1.2031 2.4023-3.6055 3.6055-3.6055 6.0078-2.4023 4.8047-3.6055 9.6094-6.0078 14.414-1.2031 2.4023-1.2031 6.0078-2.4023 8.4102-2.4023 4.8047-2.4023 9.6094-2.4023 15.617v4.8047c0 6.0078-1.2031 13.215-1.2031 19.219 0 6.0078 0 12.012 1.2031 18.02v8.4102c0 4.8047 1.2031 10.812 1.2031 15.617 0 4.8047 0 10.812 2.4023 15.617v1.2031c1.2031 4.8047 1.2031 9.6094 2.4023 14.414 0 1.2031 0 2.4023 1.2031 3.6055 2.4023 7.207 3.6055 13.215 6.0078 20.422 1.2031 4.8047 3.6055 9.6094 4.8047 14.414 1.2031 4.8047 6.0078 9.6094 7.207 15.617 3.6055 7.207 7.207 14.414 12.012 21.621 1.2031 2.4023 3.6055 4.8047 4.8047 7.207 2.4023 3.6055 3.6055 7.207 6.0078 9.6094 1.2031 2.4023 3.6055 4.8047 4.8047 6.0078 1.2031 2.4023 2.4023 4.8047 4.8047 7.207 2.4023 2.4023 4.8047 6.0078 7.207 8.4102 3.6055 6.0078 8.4102 10.812 13.215 14.414 2.4023 2.4023 4.8047 3.6055 7.207 6.0078 1.2031 1.2031 2.4023 1.2031 2.4023 2.4023 1.2031 1.2031 2.4023 2.4023 4.8047 3.6055 9.6094 4.8047 16.816 12.012 25.227 19.219 3.6055 3.6055 7.207 7.207 12.012 9.6094 4.8047 3.6055 8.4102 7.207 14.414 8.4102 0 0 1.2031 0 1.2031 1.2031 2.4023 2.4023 6.0078 3.6055 8.4102 4.8047 4.8047 2.4023 10.812 4.8047 15.617 7.207 1.2031 1.2031 3.6055 1.2031 4.8047 2.4023 3.6055 1.2031 7.207 2.4023 10.812 3.6055s6.0078 2.4023 9.6094 2.4023h1.2031c2.4023 1.2031 3.6055 1.2031 6.0078 0 1.2031 0 2.4023 0 2.4023 1.2031s1.2031 1.2031 2.4023 1.2031h4.8047c1.2031-1.2031 1.2031-2.4023 2.4023-4.8047 1.2031 1.2031 2.4023 1.2031 2.4023 1.2031 1.2031 2.4023 3.6055 2.4023 6.0078 2.4023h1.2031c2.4023 0 3.6055 0 4.8047-1.2031 0-1.2031 2.4023-1.2031 3.6055-1.2031 3.6055 1.2031 7.207 1.2031 10.812 2.4023 2.4023 1.2031 6.0078 1.2031 7.207-1.2031 1.2031-1.2031 2.4023-2.4023 4.8047-1.2031 2.4023 1.2031 3.6055 1.2031 6.0078 0h2.4023c3.6055 1.2031 6.0078 1.2031 9.6094 2.4023 4.8047 1.2031 4.8047 1.2031 8.4102-2.4023 1.2031-1.2031 3.6055-1.2031 4.8047 0 1.2031 2.4023 1.2031 3.6055 1.2031 6.0078 1.2031 0 1.2031 0 2.4023-1.2031 0-2.4023 1.2031-2.4023 3.6055-3.6055 1.2031 1.2031 1.2031 1.2031 2.4023 1.2031 2.4023 2.4023 3.6055 2.4023 4.8047-1.2031 0-1.2031 0-2.4023 1.2031-2.4023s2.4023 1.2031 2.4023 1.2031c1.2031 2.4023 3.6055 3.6055 4.8047 6.0078 2.4023 2.4023 6.0078 2.4023 7.207 0 1.2031-1.2031 2.4023-1.2031 3.6055-1.2031v-3.6055c3.6055 2.3555 2.4062 2.3555 1.2031 2.3555zm-199.4-560.96c3.6055 1.2031 6.0078 1.2031 7.207-1.2031-2.4023 1.2031-4.8047-1.1992-7.207 1.2031z"/>
</svg>
