<?xml version="1.0" encoding="UTF-8"?>
<svg width="1200pt" height="1200pt" version="1.1" viewBox="0 0 1200 1200" xmlns="http://www.w3.org/2000/svg">
 <path d="m1058.8 933.47c-17.09 26.125-35.273 49.871-60.477 70.391-23.906 19.438-48.078 38.625-73.055 56.547-27.574 19.832-57.508 35.273-91.66 40.512-5.1562 0.79297-9.1133 3.2695-13.594 5.3555-26.02 12.117-52.891 22.246-81.836 24.133-51.824 3.4688-103.57 0.43359-155.2-5.1562-22.023-2.4141-44.797-0.47656-64.629-14.059-5.5234-3.8125-13.121-4.6406-19.805-6.6328-47.895-14.465-93.613-33.137-134.43-63.23-36.672-27.031-67.055-59.883-97.121-93.785-37.148-41.84-60.199-91.066-80.043-141.82-14.137-36.094-21.863-74.598-29.617-112.76-7.5312-37.238-11.195-74.73-7.4258-112.63 1.5547-15.836 8.5703-32.559 5.2891-47.117-8.3594-36.961 12.477-67.543 17.5-101.34 4.1016-27.52 22.406-50.414 30.383-77.25 2.9922-10.047 8.7422-22.59 17.551-30.633 35.801-32.426 70.762-65.656 101.84-102.83 4.6953-5.6172 3.0586-15.875 12.938-18.434 1.8047 8.375-2.9922 19.41 9.6523 20.969 8.7695 1.0938 17.988-0.71094 21.902-9.4961 5.8281-13.055-9.9414-14.348-15.258-23.195 18.16-3.9023 37.57-7.6992 44.293-25.172 5.6836-14.715 16.996-21.219 27.625-29.25 19.426-14.715 40.68-26.652 65.301-29.934 14.758-1.9766 27.574-9.1133 41.75-12.816 30.094-7.9531 58.59-20.664 91.121-18.961 38.953 2.0312 78.066 0.17187 117.03 1.8867 20.82 0.85547 41.473 5.7617 63.02-3.6133-17.512-6.4102-32.703-14.57-50.137-17.062-15.441-2.2422-30.844-0.35547-46.379-2.0039-35.645-3.8516-71.195-9.1797-107.5-5.5781-15.918 1.5938-31.32 5.3398-47.184 6.9766-22.879 2.4141-46.406-0.43359-68.637 8.3203-5.9883 2.3594-14.164 2.4414-16.035 9.125-2.0195 7.082-7.543 7.6211-12.012 9.4531-12.816 5.2344-26.992 5.4844-40.43 8.3867-7.6094 1.6484-13.805 6.9492-22.113 6.4883-24.793-1.2539-48.621 7.0938-73.254 8.2812-5.5508 0.28906-10.973 2.7695-14.441 7.2148-3.3477 4.3008-7.3594 5.3125-12.344 6.8047-16.535 4.9844-33.68 9.5195-48.793 17.645-24.699 13.266-39.902 38.148-61.727 55.254-1.4492 1.1484-2.3867 3.1797-3.1914 5.0391-9.9805 22.984-15.902 47.102-18.594 71.988-1.1211 10.574-2.6367 21.746-8.1094 30.078-8.1484 12.371-13.398 25.977-16.695 39.43-8.3477 34.074-16.457 68.293-24.344 102.49-8.9023 38.531-12.449 77.59-17.645 116.49-11.25 83.867 4.707 164.11 34.996 241.89 16.656 42.66 38.164 82.918 60.672 122.97 26.254 46.723 56.637 88.629 100.87 119.52 2.3203 1.6094 4.1016 5.5391 7.2656 3.8242 3.957-2.082-0.51562-6.4102 1.4883-10.09 17.34 8.043 26.164 24.566 41.129 33.797 49.32 30.316 99.113 58.324 157.02 71.328 40.562 9.0977 81.18 15.613 122.25 20.32 30.898 3.5586 61.754 1.0547 92.664-2.7148 36.316-4.457 72.582-5.3945 108.77-14.664 32.48-8.2812 62.969-20.781 93.797-32.48 32.293-12.211 58.023-35.816 82.152-60.555 9.0195-9.2422 14.02-21.875 24.832-29.523 28.746-20.387 46.391-49.621 63.23-79.449 1.332-2.3984 3.0586-5.9883 2.2031-7.8867-7.5312-15.891-16.695-16.234-26.824-0.77734z"/>
 <path d="m1163.1 356.84c-12.277-25.727-28.141-48.949-44.742-71.734-18.184-24.988-37.344-49.066-60.066-70.406-21.508-20.242-46.273-36.117-68.57-55.266-21.031-18.055-43.094-34.785-68.031-47.367-6.2773-3.1523-13.648-6.0391-17.5 0.066406-4.2344 6.75 2.7695 11.883 8.4531 14.652 22.934 11.156 41.961 27.93 61.965 43.133 36.184 27.469 70.562 57.391 100.05 92.098 28.023 33.031 54.461 67.516 64.68 113.18 1.9102-4.168 2.8633-6.25 4.2578-9.2969 2.4648 5.4727 5.0781 10.113 6.6875 15.074 17.672 53.418 26.07 108.13 22.008 164.41-2.2422 30.91-3.5469 61.805-1.1328 93.402 8.5195-16.102 21.297-66.383 21.652-83.395 0.6875-33.73 2.5469-67.531-3.2188-100.96-5.7227-33.344-11.613-66.535-26.488-97.602z"/>
 <path d="m110.2 247.46c0.34375-1.4258 0.31641-2.9805 0.22266-4.4688-1.6094-25.359-36.012-51.664-61.055-46.656-20.953 4.1797-36.922 29.695-34.008 54.344 1.793 15.285 26.797 36.184 43.359 36.277 13.332 2.1719 48.906-29.172 51.48-39.496z"/>
 <path d="m140.36 124.42c-0.47656 15.902 9.0078 26.27 24.605 26.914 16.391 0.66016 27.719-11.539 28.363-30.539 0.60547-18.316-6.5664-28.984-19.965-29.645-17.336-0.89844-32.438 14.293-33.004 33.27z"/>
 <path d="m63.02 123.68c0.19922 11.023 6.8164 15.902 17.328 16.219 14.953 0.19922 20.691-5.3008 20.969-20.652 0.20703-12.117-7.9141-16.785-18.121-17.84-9.4414-1-20.375 11.422-20.176 22.273z"/>
 <path d="m247.09 360.95c-2.6367-3.8516-3.3633-8.2305-9.1797-7.0664-4.8516 0.98828-6.3047 5.0508-6.1172 9.0586 0.30469 7.1484-3.625 11.883-7.5156 17.156-7.3984 9.957-3.5859 17.484 6.2109 23.145 10.469 6.1055 15.191-0.37109 19.531-8.5859 2.7578-5.207 2.2812-10.602 2.293-16.484 1.543-6.4766-1.332-11.539-5.2227-17.223z"/>
 <path d="m222.16 74.414c-8.9414 13.992 2.293 22.285 10.551 31.293 15.258-17.395 18.434-29.988 8.7969-36.672-7.7461-5.3711-15.434-0.78125-19.348 5.3789z"/>
</svg>
