<?xml version="1.0" encoding="UTF-8"?>
<svg width="1200pt" height="1200pt" version="1.1" viewBox="0 0 1200 1200" xmlns="http://www.w3.org/2000/svg">
 <path d="m122.56 951.75c65.605 49.066 127.25 103.46 193.89 150.96 72.094 51.402 145.87 103.62 240.53 83.734 37.582 2.0703 72.383 7.1719 106.62-5.1562 12.766-4.6406 16.312-13.109 15.258-24.793-1.1094-12.238-10.113-13.383-20.32-14.414-53.461-5.3281-107.22-9.1914-160.22-17.523-67.32-10.656-125.36-45.758-174.27-89.695-39.68-35.695-75.242-76.574-115.96-111.89-66.621-57.797-91.109-133.38-87.203-218.98 1.1602-25.32 4.7461-50.715 7.2656-76.047 6.0117-60.988 16.102-120.79 86.598-145.04 14.309-4.957 27.074-17.855 37.41-29.777 10.879-12.527 14.504-27.719 3.1797-44.098-42.223-61.121-34.246-97.965 28.406-136.75 12.41-7.6602 23.84-15.059 32.676-28.496 24.355-37.133 57.957-57.469 105.16-49.383 21.535 3.7188 41.684-2.0039 61.637-13.359 52.574-29.883 109.3-32.836 168.04-21.863 82.707 15.441 157.33 46.484 229.43 91.594 69.297 43.359 131.3 85.488 172.97 161.18 71.867 130.48 71.461 264.61 15.164 391.27-58.469 131.54-150.88 243.23-288.91 305.63-13.043 5.8828-25.488 14.559-19.027 30.477 5.6172 13.938 17.168 13.371 32.875 10.312 41.867-8.1367 69.664-43.848 111.26-51.758 34.312-6.5547 59.84-29.355 84.922-52.113 75.68-68.691 120.86-156.77 160.71-248.7 35.922-82.852 41.223-169.57 40.68-258.18-0.38281-69.363-31.238-127.55-64.68-183.14-18.66-31.043-18-67.266-38.609-96.078-72.039-100.85-170.52-166.14-284.1-210.59-90.523-35.477-187.12-34.301-281.76-44.02-14.23-1.4648-31.477-2.8867-40.047 12.594-9.3359 17.012-25.688 17.051-40.773 21.375-19.277 5.5664-39.707 9.1641-57.363 18.133-57.969 29.301-117.75 53.961-174.46 87.363-56.926 33.508-91.953 74.398-125.08 128.64-58.445 95.629-77.195 198.69-76.445 306.5 0.59375 83.234 11.262 166.63 41.539 244.88 17.59 45.391 29.59 94.734 73.016 127.21z"/>
</svg>
