<?xml version="1.0" encoding="UTF-8"?>
<svg width="1200pt" height="1200pt" fill="#ff0000" version="1.1" viewBox="0 0 1200 1200" xmlns="http://www.w3.org/2000/svg">
 <path d="m882.88 442.04c2.4023 0 3.6055 1.2031 3.6055 3.6055 0 2.4023-1.2031 3.6055-3.6055 4.8047v4.8047 10.812c-1.2031 2.4023-1.2031 4.8047-2.4023 7.207 0 2.4023 0 4.8047 1.2031 7.207 1.2031 3.6055 2.4023 7.207 4.8047 10.812 0 1.2031 1.2031 3.6055 1.2031 4.8047 0 2.4023 1.2031 4.8047 1.2031 6.0078 1.2031 4.8047 2.4023 9.6094 3.6055 14.414 1.2031 3.6055 2.4023 7.207 2.4023 12.012 0 1.2031 1.2031 3.6055 2.4023 4.8047 0 1.2031 1.2031 1.2031 1.2031 2.4023 1.2031 1.2031 1.2031 3.6055 1.2031 4.8047-1.2031 1.2031-1.2031 2.4023 0 3.6055v1.2031c0 6.0078 1.2031 12.012 0 18.02v2.4023c2.4023 3.6055 2.4023 7.207 2.4023 10.812v4.8047 1.2031c0 3.6055 0 7.207-1.2031 10.812 0 2.4023-1.2031 4.8047-1.2031 7.207v7.207 6.0078 2.4023c-1.2031 3.6055 0 7.207-1.2031 10.812s-1.2031 6.0078-2.4023 9.6094v3.6055c0 1.2031 0 2.4023-1.2031 2.4023 0 0 0 1.2031-1.2031 1.2031 0 3.6055-2.4023 7.207-2.4023 10.812 0 1.2031 0 2.4023-1.2031 3.6055-1.2031 3.6055-2.4023 7.207-3.6055 10.812 0 1.2031-1.2031 2.4023-1.2031 4.8047-1.2031 2.4023-2.4023 4.8047-3.6055 7.207 0 2.4023 0 3.6055-1.2031 6.0078-1.2031 3.6055-2.4023 7.207-4.8047 9.6094-1.2031 1.2031-2.4023 4.8047-3.6055 6.0078 0 1.2031-1.2031 2.4023-1.2031 2.4023-1.2031 2.4023-3.6055 6.0078-4.8047 9.6094 0 1.2031-1.2031 2.4023-1.2031 2.4023-2.4023 3.6055-4.8047 6.0078-7.207 9.6094-1.2031 1.2031-2.4023 3.6055-2.4023 4.8047v1.2031c-3.6055 2.4023-4.8047 7.207-7.207 9.6094s-4.8047 4.8047-6.0078 8.4102h-1.2031c-2.4023 1.2031-3.6055 2.4023-3.6055 3.6055l-3.6055 3.6055c-2.4023 2.4023-3.6055 6.0078-6.0078 8.4102l-3.6055 3.6055c-1.2031 1.2031-1.2031 1.2031-2.4023 2.4023-1.2031 3.6055-4.8047 6.0078-7.207 8.4102-2.4023 2.4023-4.8047 4.8047-7.207 7.207-1.2031 1.2031-2.4023 2.4023-4.8047 3.6055-6.0078 2.4023-12.012 4.8047-16.816 8.4102 0 0-1.2031 0-1.2031 1.2031h-1.2031c-2.4023 2.4023-4.8047 2.4023-7.207 4.8047-1.2031 1.2031-1.2031 1.2031-2.4023 1.2031-3.6055 1.2031-6.0078 3.6055-9.6094 4.8047-4.8047 2.4023-9.6094 4.8047-14.414 7.207h-1.2031c-2.4023 1.2031-3.6055 2.4023-7.207 2.4023-2.4023 0-4.8047 2.4023-6.0078 2.4023-4.8047 1.2031-9.6094 4.8047-15.617 4.8047-1.2031 0-2.4023 1.2031-3.6055 1.2031-2.4023 1.2031-6.0078 1.2031-8.4102 2.4023-1.2031 0-2.4023 1.2031-3.6055 1.2031-2.4023 1.2031-3.6055 2.4023-6.0078 1.2031-3.6055 0-8.4102 0-12.012 1.2031h-3.6055c-4.8047 1.2031-8.4102 1.2031-13.215 2.4023h-3.6055c-3.6055 0-6.0078 1.2031-8.4102 2.4023 0 0-1.2031 0-1.2031 1.2031-1.2031 1.2031-2.4023 1.2031-3.6055 2.4023-1.2031 0-1.2031 1.2031-2.4023 2.4023-1.2031 2.4023-3.6055 3.6055-7.207 2.4023-1.2031 0-2.4023-1.2031-3.6055-1.2031s-2.4023 0-3.6055 1.2031c-1.2031 0-2.4023 1.2031-3.6055 1.2031s-2.4023-1.2031-2.4023-2.4023c-3.6055-1.2031-3.6055-4.8047-7.207-6.0078-3.6055-1.2031-8.4102-2.4023-12.012-2.4023-2.4023 0-4.8047-1.2031-7.207-1.2031-2.4023 0-4.8047-1.2031-7.207-1.2031-3.6055-1.2031-8.4102-2.4023-12.012-2.4023-2.4023 0-3.6055-1.2031-6.0078-1.2031l-2.4023 2.4023c-1.2031 2.4023-3.6055 3.6055-6.0078 6.0078 0 0-2.4023 1.2031-2.4023 0-1.2031 0-1.2031-1.2031 0-2.4023 1.2031-1.2031 1.2031-2.4023 2.4023-3.6055 1.2031-1.2031 1.2031-2.4023 1.2031-4.8047-1.2031 0-3.6055-1.2031-4.8047-1.2031-2.4023-1.2031-4.8047-1.2031-7.207-2.4023-3.6055-1.2031-7.207-2.4023-10.812-3.6055-4.8047-2.4023-8.4102-3.6055-13.215-6.0078-2.4023-1.2031-3.6055-2.4023-6.0078-3.6055-3.6055 0-6.0078-2.4023-8.4102-3.6055-3.6055-2.4023-8.4102-3.6055-12.012-6.0078-2.4023-1.2031-3.6055-2.4023-4.8047-2.4023-4.8047-1.2031-8.4102-3.6055-13.215-7.207-2.4023-1.2031-4.8047-3.6055-6.0078-6.0078-1.2031-2.4023-3.6055-3.6055-6.0078-6.0078-1.2031-1.2031-2.4023-2.4023-3.6055-3.6055l-1.2031-1.2031c-2.4023-2.4023-4.8047-4.8047-8.4102-7.207-2.4023-1.2031-3.6055-3.6055-6.0078-4.8047-2.4023-2.4023-4.8047-4.8047-6.0078-7.207-1.2031-1.2031-2.4023-2.4023-3.6055-3.6055l-3.6055-3.6055c-2.4023 0-3.6055 1.2031-4.8047 1.2031-2.4023 0-3.6055-2.4023-2.4023-4.8047 1.2031-2.4023 2.4023-3.6055 0-6.0078s-4.8047-6.0078-6.0078-9.6094l-1.2031-1.2031c-1.2031-1.2031-2.4023-3.6055-3.6055-4.8047-1.2031-2.4023-2.4023-4.8047-4.8047-7.207 0-1.2031-1.2031-1.2031-1.2031-2.4023-1.2031-3.6055-3.6055-6.0078-6.0078-8.4102-1.2031-1.2031-1.2031-2.4023-2.4023-3.6055h-2.4023c-2.4023 0-3.6055-2.4023-3.6055-4.8047 1.2031-2.4023 0-4.8047 0-7.207 0-3.6055-2.4023-6.0078-3.6055-8.4102 0-1.2031-1.2031-2.4023-2.4023-3.6055-2.4023-2.4023-2.4023-6.0078-3.6055-9.6094 0-2.4023-1.2031-3.6055-2.4023-6.0078 0-1.2031 0-2.4023-1.2031-3.6055v-1.2031c-2.4023-3.6055-4.8047-8.4102-8.4102-12.012 0-1.2031-1.2031-1.2031-2.4023-1.2031-2.4023-1.2031-2.4023-2.4023-2.4023-3.6055 0-4.8047-3.6055-7.207-8.4102-6.0078-1.2031 0-2.4023 1.2031-2.4023 1.2031-2.4023 1.2031-3.6055 0-4.8047-1.2031-1.2031-1.2031-1.2031-3.6055 1.2031-4.8047 2.4023-1.2031 4.8047-2.4023 6.0078-3.6055 2.4023-1.2031 3.6055-2.4023 4.8047-4.8047 1.2031-2.4023 1.2031-3.6055 0-6.0078 0-1.2031-1.2031-1.2031-1.2031-2.4023-1.2031-2.4023-2.4023-4.8047-2.4023-7.207 0-1.2031 0-2.4023-1.2031-3.6055-1.2031-1.2031-2.4023-1.2031-3.6055 0-2.4023 1.2031-4.8047 1.2031-6.0078 1.2031-3.6055 0-6.0078-3.6055-3.6055-7.207 0-1.2031 1.2031-2.4023 1.2031-3.6055 0-1.2031 1.2031-1.2031 2.4023-1.2031 1.2031-1.2031 2.4023-1.2031 4.8047-2.4023-1.2031-2.4023-1.2031-3.6055-2.4023-6.0078 0-1.2031 0-1.2031-1.2031-2.4023 0-2.4023 0-3.6055 2.4023-4.8047 2.4023-1.2031 3.6055-2.4023 3.6055-4.8047 1.2031-4.8047 1.2031-8.4102 3.6055-12.012v-1.2031c2.4023-3.6055 3.6055-8.4102 2.4023-12.012 0-2.4023-1.2031-6.0078-1.2031-8.4102 0-2.4023-1.2031-4.8047-2.4023-7.207 0.10156-3.6055-1.0977-4.8086 0.10156-6.0078 1.2031-1.2031 2.4023-1.2031 3.6055-2.4023h1.2031c1.2031 0 1.2031-1.2031 1.2031-2.4023 0-2.4023 0-4.8047 2.4023-6.0078 1.2031-1.2031 2.4023-2.4023 4.8047-3.6055 1.2031-1.2031 2.4023-2.4023 2.4023-3.6055 0-2.4023 0-4.8047 1.2031-7.207v-2.4023c0-1.2031 1.2031-2.4023 1.2031-3.6055s1.2031-1.2031 1.2031-2.4023c-1.2031 2.4023-3.6055 2.4023-6.0078 3.6055l-1.2031 1.2031c-2.4023 0-3.6055 0-2.4023-2.4023 0-1.2031 0-2.4023-1.2031-3.6055h-4.8047c-1.2031 0-2.4023 0-2.4023-1.2031v-1.2031c-1.2031-1.2031-2.4023-1.2031-2.4023 0-1.2031 2.4023-3.6055 4.8047-3.6055 8.4102 0 2.4023-2.4023 3.6055-3.6055 3.6055-1.2031 1.2031-3.6055 0-4.8047-1.2031-2.4023-2.4023-4.8047-3.6055-6.0078-6.0078-1.2031-2.4023-3.6055-4.8047-3.6055-8.4102 0-2.4023 1.2031-4.8047 3.6055-4.8047 4.8047-1.2031 9.6094-1.2031 13.215 1.2031h2.4023c1.2031-1.2031 2.4023-1.2031 4.8047-1.2031 1.2031 0 3.6055 1.2031 4.8047 1.2031 2.4023 0 3.6055 0 3.6055-2.4023v-2.4023c0-1.2031 1.2031-1.2031 1.2031-2.4023 1.2031 2.4023 1.2031 3.6055 2.4023 4.8047 3.6055-1.2031 6.0078-2.4023 9.6094-4.8047 1.2031-1.2031 2.4023-2.4023 3.6055-2.4023 2.4023 0 4.8047-2.4023 7.207-3.6055 3.6055-2.4023 3.6055-6.0078 4.8047-8.4102 1.2031-2.4023 1.2031-4.8047 2.4023-7.207 1.2031-2.4023 3.6055-6.0078 4.8047-8.4102 1.2031-1.2031 1.2031-2.4023 2.4023-3.6055 2.4023-3.6055 4.8047-6.0078 7.207-9.6094 1.2031-1.2031 2.4023-3.6055 3.6055-4.8047 1.2031-1.2031 3.6055-3.6055 4.8047-4.8047 2.4023-2.4023 3.6055-4.8047 6.0078-6.0078 2.4023-2.4023 4.8047-4.8047 7.207-7.207 2.4023-2.4023 4.8047-4.8047 7.207-8.4102v-2.4023c0-1.2031-1.2031-2.4023-1.2031-3.6055-1.2031-2.4023-2.4023-4.8047-3.6055-7.207-1.2031-1.2031-1.2031-2.4023 1.2031-2.4023 1.2031 0 1.2031-1.2031 1.2031-2.4023v-6.0078c0-3.6055 0-7.207-1.2031-12.012 0-3.6055-1.2031-6.0078-2.4023-9.6094-1.2031 0-3.6055 1.2031-4.8047 1.2031 0-2.4023-1.2031-3.6055-1.2031-6.0078 0-1.2031-1.2031-2.4023-2.4023-3.6055 0 0-1.2031-1.2031 0-1.2031 1.2031-2.4023 0-3.6055 0-6.0078v-1.2031h1.2031c1.2031 1.2031 2.4023 1.2031 2.4023 2.4023 1.2031 1.2031 1.2031 2.4023 2.4023 3.6055 1.2031 0 1.2031-1.2031 2.4023-1.2031 1.2031-1.2031 1.2031-2.4023 0-2.4023-1.2031-1.2031-2.4023-1.2031-2.4023-2.4023-1.2031-1.2031-1.2031-2.4023 0-3.6055 1.2031-1.2031 2.4023 0 2.4023 0 1.2031 0 1.2031 1.2031 2.4023 1.2031 1.2031 0 2.4023 1.2031 2.4023 1.2031 2.4023-1.2031 3.6055-3.6055 4.8047-4.8047 2.4023-3.6055 4.8047-6.0078 8.4102-7.207 3.6055-2.4023 7.207-4.8047 8.4102-8.4102 1.2031-1.2031 1.2031-2.4023 2.4023-2.4023 0-1.2031 1.2031-1.2031 1.2031-2.4023-1.2031-2.4023-2.4023-4.8047-3.6055-7.207 0-1.2031-1.2031-1.2031-2.4023-2.4023-1.2031-1.2031-2.4023-2.4023-2.4023-4.8047 0-1.2031 1.2031-1.2031 2.4023-1.2031 1.2031 1.2031 3.6055 2.4023 3.6055 4.8047v1.2031c2.4023 2.4023 4.8047 4.8047 7.207 6.0078 2.4023-1.2031 4.8047-2.4023 7.207-3.6055 1.2031-1.2031 2.4023-1.2031 3.6055-1.2031 0 0 1.2031 0 2.4023-1.2031v-1.2031c-1.2031-1.2031-2.4023-2.4023 0-4.8047 1.2031 0 2.4023 0 2.4023 1.2031l1.2031 1.2031c1.2031 3.6055 3.6055 3.6055 7.207 3.6055h1.2031c2.4023-1.2031 3.6055-1.2031 4.8047 1.2031 2.4023 3.6055 6.0078 4.8047 8.4102 7.207 2.4023 1.2031 3.6055 3.6055 4.8047 4.8047 1.2031 2.4023 3.6055 3.6055 7.207 4.8047v1.2031c-1.2031 3.6055 2.4023 4.8047 4.8047 7.207 1.2031 0 1.2031 0 2.4023 1.2031 2.4023 2.4023 3.6055 2.4023 6.0078 1.2031 1.2031 0 2.4023-1.2031 4.8047-1.2031 1.2031 0 1.2031 0 2.4023-1.2031 1.2031-2.4023 3.6055-2.4023 6.0078 0 1.2031 1.2031 2.4023 2.4023 3.6055 2.4023 2.4023 1.2031 4.8047 1.2031 6.0078 1.2031 3.6055-1.2031 6.0078-1.2031 9.6094-2.4023 4.8047-1.2031 8.4102-1.2031 13.215-2.4023h2.4023c2.4023 0 4.8047 0 7.207-1.2031 1.2031 0 2.4023 0 3.6055-1.2031 2.4023-1.2031 4.8047-2.4023 6.0078-4.8047 2.4023-3.6055 2.4023-7.207 4.8047-10.812 1.2031-1.2031 0-2.4023 0-2.4023-1.2031-1.2031-3.6055-2.4023-6.0078-3.6055-1.2031-1.2031-3.6055-1.2031-4.8047-2.4023-2.4023-2.4023-3.6055-6.0078 0-8.4102 1.2031-1.2031 3.6055-1.2031 4.8047 0 2.4023 1.2031 6.0078 3.6055 7.207 6.0078 1.2031 1.2031 2.4023 2.4023 3.6055 3.6055 2.4023 1.2031 3.6055 1.2031 6.0078 0 3.6055-1.2031 8.4102-2.4023 12.012-1.2031 4.8047 0 9.6094 0 13.215 1.2031 2.4023 0 4.8047 1.2031 7.207 1.2031 1.2031 0 2.4023 1.2031 3.6055 2.4023 2.4023 1.2031 3.6055 3.6055 6.0078 4.8047 2.4023 1.2031 4.8047 2.4023 8.4102 2.4023 1.2031 0 2.4023 1.2031 2.4023 1.2031 1.2031 0 2.4023 1.2031 3.6055 1.2031 2.4023-1.2031 4.8047 0 7.207 1.2031 2.4023 1.2031 4.8047 2.4023 7.207 2.4023 3.6055 1.2031 8.4102 2.4023 12.012 6.0078 1.2031 1.2031 3.6055 2.4023 6.0078 2.4023 3.6055 1.2031 7.207 2.4023 9.6094 4.8047 1.2031 0 1.2031 1.2031 2.4023 1.2031 3.6055 1.2031 6.0078 2.4023 8.4102 4.8047s6.0078 2.4023 9.6094 3.6055c1.2031 0 2.4023 0 3.6055 1.2031 3.6055 2.4023 7.207 2.4023 10.812 1.2031 4.8047-2.4023 9.6094-2.4023 14.414-2.4023 1.2031 0 1.2031 0 2.4023 1.2031 1.2031 1.2031 3.6055 1.2031 4.8047 2.4023h1.2031c2.4023 2.4023 4.8047 3.6055 6.0078 6.0078 1.2031 3.6055 3.6055 8.4102 3.6055 13.215 0 4.8047 2.4023 8.4102 6.0078 10.812 1.2031 0 1.2031 1.2031 2.4023 2.4023l4.8086 4.8086c2.4023 2.4023 4.8047 3.6055 6.0078 6.0078 2.4023 2.4023 4.8047 4.8047 8.4102 6.0078l1.2031 1.2031c1.2031 2.4023 3.6055 3.6055 4.8047 6.0078 1.2031 2.4023 3.6055 3.6055 6.0078 6.0078 1.2031 2.4023 3.6055 3.6055 6.0078 4.8047 1.2031 2.4023 2.4023 3.6055 4.8047 6.0078 1.2031 2.4023 3.6055 3.6055 4.8047 4.8047 2.4023 2.4023 3.6055 4.8047 4.8047 7.207 1.2031 2.4023 2.4023 3.6055 4.8047 4.8047 2.4023 1.2031 4.8047 2.4023 8.4102 2.4023 2.4023 0 3.6055 1.2031 6.0078 2.4023v3.6055l2.4023-2.4023c1.2031 0 1.2031 0 2.4023 1.2031 1.2031 0 2.4023 1.2031 2.4023 1.2031v1.2031s0 1.2031 1.2031 1.2031c-2.4727-3.625-1.2695-3.625-0.070313-4.8242-1.2031 1.2031-1.2031 2.4023-2.4023 3.6055v1.2031h2.4023v-2.4023-2.4062zm-458.86 168.17c1.2031 0 1.2031-1.2031 1.2031-1.2031 1.2031-1.2031 2.4023 0 3.6055 1.2031 1.2031 1.2031 1.2031 2.4023 0 3.6055-1.2031 2.4023-2.4023 2.4023-3.6055 2.4023h-3.6055c-3.6055 1.2031-3.6055 1.2031-3.6055 4.8047v6.0078c1.2031 3.6055 2.4023 7.207 3.6055 12.012 1.2031 3.6055 2.4023 7.207 2.4023 12.012v3.6055c0 3.6055 0 7.207 1.2031 9.6094 1.2031 1.2031 1.2031 2.4023 2.4023 4.8047 1.2031 2.4023 1.2031 3.6055 2.4023 6.0078 2.4023 4.8047 4.8047 9.6094 7.207 14.414 2.4023 3.6055 3.6055 6.0078 6.0078 9.6094 2.4023 3.6055 4.8047 6.0078 6.0078 8.4102s3.6055 4.8047 4.8047 6.0078c2.4023 3.6055 6.0078 6.0078 7.207 10.812 1.2031 1.2031 2.4023 2.4023 3.6055 3.6055s2.4023 3.6055 4.8047 4.8047c1.2031 1.2031 2.4023 2.4023 3.6055 3.6055l1.2031 1.2031c2.4023 3.6055 4.8047 6.0078 8.4102 8.4102 2.4023 2.4023 4.8047 3.6055 7.207 6.0078 3.6055 2.4023 7.207 4.8047 10.812 7.207 2.4023 1.2031 4.8047 3.6055 7.207 4.8047 3.6055 2.4023 7.207 3.6055 10.812 7.207h1.2031c3.6055 2.4023 7.207 3.6055 12.012 6.0078 4.8047 2.4023 10.812 4.8047 15.617 7.207 2.4023 1.2031 3.6055 1.2031 6.0078 2.4023 3.6055 1.2031 7.207 3.6055 10.812 4.8047 1.2031 0 1.2031 0 1.2031 1.2031 6.0078 2.4023 12.012 4.8047 18.02 6.0078 3.6055 1.2031 7.207 1.2031 10.812 2.4023 6.0078 1.2031 10.812 2.4023 16.816 3.6055 4.8047 0 8.4102 1.2031 13.215 1.2031 6.0078 1.2031 12.012 1.2031 19.219 0 4.8047 0 10.812-1.2031 15.617-1.2031 4.8047 0 8.4102-1.2031 13.215-1.2031 4.8047-1.2031 9.6094-1.2031 13.215-3.6055 3.6055-1.2031 8.4102-2.4023 12.012-3.6055 3.6055-1.2031 7.207-2.4023 10.812-2.4023 3.6055 0 6.0078-1.2031 7.207-3.6055 1.2031-2.4023 2.4023-4.8047 3.6055-7.207 3.6055-6.0078 8.4102-8.4102 15.617-8.4102 3.6055 0 7.207 1.2031 9.6094 2.4023 2.4023 1.2031 6.0078 1.2031 8.4102 0 2.4023-1.2031 4.8047-2.4023 7.207-3.6055 2.4023-1.2031 4.8047-3.6055 7.207-4.8047 3.6055-2.4023 8.4102-4.8047 10.812-7.207 4.8047-3.6055 9.6094-7.207 13.215-12.012 0 0 1.2031 0 1.2031-1.2031 3.6055-2.4023 7.207-6.0078 10.812-9.6094 1.2031-2.4023 3.6055-3.6055 4.8047-6.0078 1.2031-1.2031 2.4023-2.4023 2.4023-3.6055 1.2031-2.4023 2.4023-6.0078 4.8047-8.4102 2.4023-3.6055 4.8047-6.0078 7.207-9.6094v-1.2031c1.2031-3.6055 2.4023-7.207 4.8047-10.812s2.4023-7.207 2.4023-12.012v-2.4023c1.2031-1.2031 1.2031-2.4023 1.2031-3.6055v-2.4023c1.2031-2.4023 0-4.8047 0-6.0078 0-3.6055 0-8.4102 1.2031-12.012 1.2031-4.8047 3.6055-8.4102 6.0078-13.215 1.2031-2.4023 3.6055-4.8047 6.0078-7.207 4.8047-6.0078 10.812-12.012 15.617-18.02 2.4023-2.4023 3.6055-4.8047 2.4023-7.207 0-2.4023-1.2031-4.8047-2.4023-6.0078-1.2031-1.2031-1.2031-1.2031-2.4023-2.4023-2.4023-2.4023-4.8047-4.8047-7.207-8.4102-3.6055-4.8047-2.4023-7.207 0-10.812 1.2031-1.2031 1.2031-1.2031 2.4023-2.4023 2.4023-1.2031 4.8047-3.6055 7.207-4.8047 3.6055-2.4023 4.8047-6.0078 3.6055-9.6094 0-2.4023-1.2031-4.8047-1.2031-7.207 0-3.6055-2.4023-7.207-4.8047-9.6094-3.6055-2.4023-6.0078-4.8047-8.4102-7.207-1.2031-1.2031-2.4023-2.4023-3.6055-3.6055-2.4023-2.4023-2.4023-3.6055 0-6.0078 1.2031-1.2031 1.2031-2.4023 2.4023-2.4023l-2.4023-2.4023c-2.4023-1.2031-4.8047-2.4023-6.0078-2.4023-2.4023-1.2031-6.0078-2.4023-8.4102-4.8047l-1.2031-1.2031c-2.4023-1.2031-3.6055-3.6055-2.4023-6.0078-2.4023-1.2031-4.8047-3.6055-7.207-4.8047-2.4023-1.2031-4.8047-2.4023-6.0078-3.6055s-3.6055-1.2031-4.8047-2.4023c-1.2031-1.2031-3.6055-1.2031-4.8047-1.2031-2.4023 0-4.8047 0-4.8047-3.6055 0-2.4023 0-2.4023-2.4023-2.4023s-4.8047 1.2031-7.207 2.4023c-1.2031 1.2031-2.4023 1.2031-3.6055 2.4023-1.2031 0-2.4023 1.2031-3.6055 2.4023-1.2031 1.2031-1.2031 2.4023-2.4023 2.4023l-1.2031 1.2031c0 1.2031 0 2.4023 1.2031 2.4023 2.4023 1.2031 6.0078 1.2031 8.4102 2.4023 3.6055 0 7.207 1.2031 10.812 2.4023 1.2031 0 2.4023 1.2031 3.6055 2.4023v1.2031h-1.2031c-4.8047-1.2031-10.812-2.4023-15.617-3.6055-2.4023 0-3.6055-1.2031-6.0078-1.2031-1.2031 0-1.2031-1.2031-2.4023-1.2031-1.2031-2.4023-1.2031-3.6055-2.4023-6.0078v-2.4023c1.2031-1.2031 2.4023-3.6055 3.6055-4.8047 1.2031-1.2031 1.2031-2.4023 3.6055-2.4023 2.4023-1.2031 3.6055-1.2031 6.0078-2.4023 1.2031-1.2031 2.4023-1.2031 3.6055-3.6055 0-1.2031 1.2031-2.4023 2.4023-3.6055 2.4023-2.4023 2.4023-4.8047 3.6055-7.207v-3.6055c0-1.2031-1.2031-2.4023-1.2031-3.6055-1.2031-1.2031-1.2031-2.4023 0-4.8047 2.4023-4.8047 1.2031-9.6094-1.2031-14.414-1.2031-2.4023-1.2031-3.6055-1.2031-6.0078v-13.215c0-4.8047 1.2031-9.6094 2.4023-13.215v-4.8047c-1.2031-3.6055-3.6055-4.8047-8.4102-3.6055-3.6055 1.2031-8.4102 2.4023-12.012 2.4023h-8.4102-4.8047c-2.4023 0-6.0078 0-8.4102-1.2031-6.0078-1.2031-10.812-3.6055-14.414-7.207-3.6055-3.6055-4.8047-7.207-7.207-10.812-1.2031-2.4023-2.4023-4.8047-2.4023-6.0078-2.4023-4.8047-6.0078-8.4102-10.812-12.012-2.4023-1.2031-3.6055-2.4023-6.0078-3.6055s-4.8047-3.6055-7.207-4.8047c-2.4023-1.2031-3.6055-2.4023-6.0078-4.8047-1.2031-1.2031-3.6055-2.4023-4.8047-3.6055-3.6055-1.2031-8.4102-3.6055-12.012-4.8047-2.4023-1.2031-4.8047-1.2031-7.207-2.4023-3.6055-1.2031-8.4102-2.4023-12.012-2.4023h-3.6055c-4.8047 0-10.812-1.2031-15.617-1.2031h-14.414-7.207c-4.8047 0-8.4102 1.2031-13.215 1.2031-4.8047 0-8.4102 0-12.012 2.4023h-1.2031c-2.4297 2.4453-6.0352 3.6445-9.6367 3.6445-1.2031 0-2.4023 0-3.6055 1.2031-6.0078 1.2031-10.812 3.6055-16.816 4.8047-3.6055 1.2031-7.207 2.4023-12.012 3.6055s-8.4102 4.8047-13.215 4.8047c-6.0078 3.6055-12.012 6.0078-16.816 9.6094-2.4023 1.2031-3.6055 2.4023-6.0078 3.6055-2.4023 1.2031-6.0078 3.6055-8.4102 4.8047-2.4023 1.2031-3.6055 2.4023-4.8047 3.6055-2.4023 1.2031-3.6055 2.4023-6.0078 3.6055-2.4023 2.4023-4.8047 4.8047-7.207 6.0078-4.8047 3.6055-8.4102 7.207-12.012 10.812-2.4023 2.4023-3.6055 3.6055-4.8047 6.0078-1.2031 1.2031-1.2031 1.2031-2.4023 2.4023-1.2031 1.2031-2.4023 2.4023-2.4023 3.6055-4.8047 7.207-9.6094 13.215-15.617 20.422-2.4023 3.6055-6.0078 6.0078-8.4102 9.6094-2.4023 3.6055-6.0078 7.207-7.207 10.812l-1.2031 1.2031c-1.2031 2.4023-3.6055 4.8047-3.6055 7.207-1.2031 4.8047-3.6055 8.4102-6.0078 12.012-1.2031 1.2031-1.2031 2.4023-1.2031 3.6055-1.2031 2.4023-2.4023 6.0078-2.4023 8.4102-1.2031 2.4023-2.4023 4.8047-1.2031 8.4102v1.2031c-1.2031 1.2031 0 3.6055 0 4.8047 0 1.2031 0 1.2031-1.2031 2.4023l-1.2031 1.2031v3.6055c1.2031 0 2.4023 1.2031 3.6055 2.4023 0 1.2031-1.2031 1.2031-1.2031 1.2031-2.4023 1.2031-2.4023 2.4023-2.4023 4.8047v1.2031c0 1.2031 0 2.4023 1.2031 3.6055 1.2031 0 1.2031 2.4023 1.2031 2.4023-1.2031 2.4023-1.2031 6.0078-2.4023 8.4102-1.2031 2.4023-1.2031 4.8047 1.2031 6.0078 1.2031 1.2031 1.2031 2.4023 1.2031 3.6055-1.2031 1.2031-1.2031 3.6055 0 4.8047v2.4023c0 2.4023-1.2031 4.8047-1.2031 8.4102-1.2031 3.6055-1.2031 3.6055 2.4023 7.207 1.2031 1.2031 1.2031 3.6055 0 3.6055s-3.6055 1.2031-4.8047 1.2031c0 0 0 1.2031 1.2031 1.2031s2.4023 1.2031 2.4023 2.4023l-1.2031 1.2031c-2.4023 2.4023-1.2031 3.6055 1.2031 3.6055 1.2031 0 2.4023 0 1.2031 1.2031 0 1.2031-1.2031 1.2031-1.2031 2.4023-2.4023 1.2031-3.6055 2.4023-4.8047 4.8047-1.2031 1.2031-1.2031 4.8047 0 6.0078 0.015625 3.5469 0.015625 4.75 0.015625 5.9492h2.4023c1.1992-1.1992 1.1992-2.4023 1.1992-3.6016zm455.25-160.96c-1.2031 3.6055-1.2031 4.8047 1.2031 6.0078-1.2031-2.4062 1.2031-4.8086-1.2031-6.0078z"/>
 <path d="m338.74 457.66c0 1.2031 0 3.6055-1.2031 4.8047-1.2031 2.4023-2.4023 2.4023-4.8047 2.4023-1.2031 0-3.6055-2.4023-3.6055-4.8047v-4.8047-2.4023c0-1.2031-1.2031-2.4023-2.4023-2.4023h-1.2031c-2.4023 0-4.8047 0-6.0078-2.4023-2.4023-1.2031-3.6055-1.2031-4.8047 0-1.2031 0-1.2031 1.2031-2.4023 1.2031-2.4023 1.2031-6.0078 0-6.0078-3.6055v-3.6055c1.2031-3.6055-2.4023-7.207-6.0078-6.0078-1.2031 0-3.6055 0-4.8047-1.2031-1.2031-1.2031-1.2031-2.4023-1.2031-3.6055s0-1.2031 1.2031-1.2031c2.4023-3.6055 0-7.207-3.6055-8.4102-2.4023 0-3.6055-1.2031-4.8047-2.4023-1.2031-1.2031-1.2031-2.4023 0-3.6055l1.2031-1.2031c1.2031-1.2031 3.6055-2.4023 3.6055-4.8047 0-3.6055 1.2031-6.0078-1.2031-9.6094 0-1.2031-1.2031-1.2031-2.4023-1.2031-1.2031 0-2.4023 0-3.6055-1.2031-2.4023-1.2031-3.6055-2.4023-3.6055-4.8047 0-1.2031 1.2031-3.6055 3.6055-3.6055h1.2031c3.6055 1.2031 4.8047 0 6.0078-3.6055 1.2031-2.4023 2.4023-4.8047 2.4023-6.0078 1.2031-2.4023 0-3.6055 0-6.0078 0-1.2031-1.2031-1.2031-1.2031-2.4023 0-2.4023 0-4.8047 3.6055-4.8047s6.0078-1.2031 9.6094-3.6055c1.2031-1.2031 2.4023-1.2031 3.6055-2.4023 2.4023-1.2031 3.6055-3.6055 3.6055-7.207v-4.8047c0-1.2031 1.2031-2.4023 2.4023-2.4023 1.2031 0 2.4023 0 3.6055 1.2031 1.2031 2.4023 3.6055 2.4023 4.8047 2.4023 4.8047 0 9.6094-1.2031 13.215-4.8047 2.4023-2.4023 4.8047-3.6055 8.4102-3.6055 1.2031 0 3.6055-1.2031 4.8047-1.2031 3.6055-1.2031 6.0078 1.2031 6.0078 6.0078v2.4023 2.4023c2.4023 2.4023 4.8047 6.0078 8.4102 8.4102 2.4023 1.2031 4.8047 2.4023 8.4102 2.4023h2.4023c2.4023-1.2031 3.6055-1.2031 6.0078-1.2031 2.4023 0 3.6055 1.2031 3.6055 3.6055-1.2031 2.4023-1.2031 4.8047 2.4023 6.0078 0 1.2031 2.4023 1.2031 3.6055 1.2031 4.8047 1.2031 6.0078 4.8047 3.6055 8.4102-1.2031 1.2031-2.4023 2.4023-3.6055 3.6055-2.4023 1.2031-2.4023 3.6055-2.4023 6.0078 0 4.8047 1.2031 8.4102 3.6055 12.012 1.2031 1.2031 2.4023 2.4023 3.6055 2.4023 2.4023 1.2031 4.8047 1.2031 7.207 2.4023 2.4023 1.2031 3.6055 4.8047 2.4023 7.207-1.2031 1.2031-2.4023 2.4023-3.6055 2.4023-2.4023 1.2031-6.0078 1.2031-8.4102 1.2031-1.2031 0-2.4023 1.2031-3.6055 2.4023-1.2031 2.4023-1.2031 3.6055-2.4023 6.0078 0 1.2031 0 2.4023 1.2031 3.6055s3.6055 1.2031 4.8047 3.6055c1.2031 2.4023 1.2031 3.6055 0 6.0078-1.2031 1.2031-4.8047 2.4023-6.0078 1.2031-1.2031-1.2031-2.4023-2.4023-4.8047-2.4023-2.4023-1.2031-3.6055-1.2031-6.0078 1.2031-1.2031 1.2031-2.4023 2.4023-4.8047 3.6055-2.4023 1.2031-2.4023 3.6055-1.2031 6.0078 0 1.2031 1.2031 1.2031 1.2031 2.4023 1.2031 1.2031 1.2031 2.4023 2.4023 2.4023 0 1.2031 0 3.6055-1.2031 4.8047-1.2031 1.2031-4.8047 0-6.0078-1.2031-1.2031-1.2031-2.4023-2.4023-3.6055-3.6055-2.4023-2.4023-3.6055-3.6055-7.207-2.4023-2.4023 1.2031-4.8047 1.2031-7.207 0-2.4023-1.2031-6.0078-1.2031-8.4102 0-1.2031 0-2.4023 1.2031-2.4023 3.6055v3.6055z"/>
 <path d="m369.97 867.27c0-2.4023 1.2031-4.8047 1.2031-7.207 1.2031-4.8047 6.0078-6.0078 9.6094-7.207 6.0078-1.2031 9.6094 0 13.215 4.8047 2.4023 2.4023 4.8047 6.0078 3.6055 10.812 0 3.6055-1.2031 7.207-3.6055 9.6094 0 1.2031-1.2031 1.2031-2.4023 1.2031-2.4023 1.2031-6.0078 2.4023-9.6094 2.4023-2.4023 0-6.0078-1.2031-8.4102-2.4023-2.4023-2.4062-3.6055-6.0078-3.6055-12.016z"/>
 <path d="m407.21 754.36c1.2031 1.2031 1.2031 1.2031 2.4023 2.4023 1.2031 1.2031 2.4023 3.6055 4.8047 3.6055 1.2031 0 2.4023 0 1.2031 1.2031 0 1.2031 0 2.4023-1.2031 2.4023-1.2031 1.2031-2.4023 2.4023-3.6055 4.8047 0 1.2031 0 2.4023-1.2031 2.4023-1.2031 1.2031-1.2031 2.4023-3.6055 1.2031-1.2031 0-2.4023-1.2031-3.6055-1.2031-2.4023-1.2031-3.6055-3.6055-4.8047-4.8047v-1.2031c1.2031-1.2031 2.4023-2.4023 3.6055-4.8047 1.2031-1.2031 1.2031-2.4023 1.2031-2.4023 1.2031-1.2031 0-2.4023-1.2031-3.6055-2.4023-2.4023-4.8047-6.0078-7.207-8.4102 2.4062-1.1992 1.207-2.4023 0.003907-1.1992-1.2031 0-1.2031 0-2.4023 1.2031-2.4023 1.2031-4.8047 2.4023-7.207 2.4023-1.2031 0-1.2031 1.2031-2.4023 1.2031-1.2031 1.2031-2.4023 1.2031-3.6055 2.4023-1.2031 1.2031-2.4023 0-2.4023-2.4023 1.2031-3.6055 1.2031-8.4102 4.8047-12.012 1.2031-1.2031 3.6055-2.4023 6.0078-1.2031 3.6055 1.2031 7.207 1.2031 9.6094 1.2031 2.4023 0 4.8047 2.4023 4.8047 4.8047 0 1.2031 0 2.4023 1.2031 3.6055 3.6055 4.7969 3.6055 4.7969 4.8047 8.4023z"/>
 <path d="m458.86 828.83c0 1.2031-1.2031 1.2031 0 0-2.4023 3.6055-4.8047 4.8047-7.207 3.6055h-2.4023c-3.6055 0-4.8047-2.4023-4.8047-6.0078 0-2.4023 1.2031-4.8047 3.6055-7.207 3.6055-2.4023 7.207-4.8047 9.6094-8.4102l3.6055-3.6055c2.4023-2.4023 3.6055-3.6055 3.6055-7.207 2.4023 0 3.6055 1.2031 3.6055 2.4023 1.2031 3.6055 0 6.0078-1.2031 9.6094-1.2031 2.4023-2.4023 3.6055-1.2031 6.0078 0 1.2031 0 2.4023-1.2031 2.4023-2.4023 1.2031-3.6055 1.2031-6.0078 2.4023v3.6055c1.2031 0 2.4023-1.2031 3.6055 0s0 2.4023-1.2031 4.8047c0 1.2031-1.2031 0-2.4023-2.4023z"/>
 <path d="m351.95 536.94c-6.0078 0-8.4102-2.4023-9.6094-8.4102-1.2031-6.0078 3.6055-10.812 8.4102-12.012 2.4023 0 4.8047 0 6.0078 1.2031 2.4023 1.2031 3.6055 3.6055 4.8047 6.0078v1.2031c-1.207 3.5977-1.207 6-3.6094 9.6055-1.2031 2.4023-2.4023 2.4023-4.8047 3.6055 0-1.2031-1.1992-1.2031-1.1992-1.2031z"/>
 <path d="m416.82 790.39c1.2031 2.4023 0 6.0078-3.6055 6.0078-2.4023 0-3.6055 0-4.8047 1.2031-1.2031 1.2031-2.4023 0-2.4023 0-1.2031-1.2031 0-1.2031 0-2.4023 3.6055-1.2031 4.8047-4.8047 8.4102-4.8047v-1.2031c-2.4023-2.4023-2.4023-4.8047-2.4023-8.4102 0-2.4023 1.2031-3.6055 2.4023-3.6055 1.2031-1.2031 3.6055-1.2031 6.0078-1.2031h6.0078c1.2031 0 2.4023 1.2031 2.4023 2.4023 0 3.6055 0 6.0078-2.4023 8.4102-1.2031 1.2031-2.4023 2.4023-4.8047 3.6055-2.4062-1.2031-3.6055 0-4.8086 0z"/>
 <path d="m327.93 922.52c0-1.2031 1.2031-2.4023 2.4023-3.6055 3.6055-3.6055 3.6055-7.207 4.8047-12.012 0-4.8047 1.2031-8.4102 1.2031-13.215 0-4.8047 2.4023-8.4102 3.6055-12.012 0 0 0-1.2031 1.2031-1.2031h1.2031l1.2031 1.2031v2.4023c-1.2031 4.8047-1.2031 9.6094-2.4023 15.617 0 1.2031-1.2031 1.2031-1.2031 2.4023-2.4023 3.6055-3.6055 8.4102-3.6055 13.215 0 1.2031 0 2.4023 1.2031 3.6055 1.2031 3.6055 1.2031 6.0078-1.2031 9.6094-1.2031 1.2031-3.6055 1.2031-4.8047 0-3.6094-2.4062-3.6094-4.8086-3.6094-6.0078z"/>
 <path d="m494.89 824.02h4.8047c1.2031 0 1.2031 0 1.2031 1.2031 0 1.2031 0 3.6055 1.2031 4.8047 0 1.2031 0 2.4023-1.2031 2.4023-2.4023 0-3.6055 0-4.8047-2.4023 0-1.2031-1.2031-1.2031-2.4023-2.4023-1.2031 1.2031-3.6055 2.4023-4.8047 3.6055l-2.4023 2.4023c0 2.4023-2.4023 2.4023-3.6055 2.4023-2.4023 0-2.4023-1.2031-2.4023-2.4023 0-1.2031 1.2031-1.2031 1.2031-2.4023 0-1.2031 1.2031-2.4023 1.2031-3.6055 0-2.4023 1.2031-3.6055 1.2031-6.0078 0-1.2031 1.2031-1.2031 1.2031-2.4023 2.4023-1.2031 4.8047-3.6055 6.0078-6.0078 1.2031-1.2031 2.4023-1.2031 3.6055 1.2031 0 1.2031 1.2031 2.4023 0 4.8047-0.011719 2.4023-0.011719 3.6055-0.011719 4.8047z"/>
 <path d="m309.91 676.28c-4.8047 1.2031-7.207-2.4023-9.6094-4.8047-1.2031-1.2031-1.2031-2.4023 0-3.6055 1.2031-2.4023 4.8047-3.6055 7.207-4.8047 1.2031-1.2031 3.6055 0 4.8047 0 1.2031 0 2.4023 0 3.6055 1.2031 1.2031 0 2.4023 1.2031 2.4023 2.4023 2.4023 3.6055 0 8.4102-3.6055 10.812 0-2.4062-2.4023-1.2031-4.8047-1.2031z"/>
 <path d="m439.64 812.01c1.2031-2.4023 2.4023-3.6055 4.8047-6.0078 1.2031-1.2031 2.4023-2.4023 1.2031-4.8047 0-2.4023 1.2031-3.6055 3.6055-4.8047 2.4023-1.2031 3.6055-1.2031 3.6055-3.6055h1.2031c1.2031 0 1.2031 1.2031 1.2031 2.4023-1.2031 3.6055-2.4023 6.0078-3.6055 9.6094 0 1.2031-1.2031 1.2031-1.2031 1.2031-3.6055 1.2031-4.8047 4.8047-7.207 7.207 0 0-1.2031 1.2031-1.2031 2.4023 0 3.6055-3.6055 4.8047-6.0078 6.0078-1.2031 0-2.4023 1.2031-3.6055 2.4023-1.2031 1.2031-3.6055 1.2031-4.8047 1.2031-1.2031 0-1.2031-1.2031-2.4023-1.2031 0-1.2031 1.2031-2.4023 1.2031-2.4023 1.2031-1.2031 2.4023-1.2031 2.4023-1.2031 1.2031-1.2031 2.4023-1.2031 3.6055-3.6055 2.3984-3.5977 4.8008-4.8008 7.2031-4.8008z"/>
 <path d="m341.14 622.22c2.4023 0 4.8047 1.2031 6.0078 2.4023l1.2031 1.2031c0 2.4023 1.2031 4.8047 0 8.4102 0 1.2031-1.2031 2.4023-3.6055 2.4023h-3.6055c-2.4023 1.2031-3.6055 0-6.0078-2.4023-1.2031-1.2031-2.4023-3.6055-2.4023-6.0078 0-3.6055 2.4023-4.8047 4.8047-6.0078h3.6055z"/>
 <path d="m257.06 701.5c0-2.4023 1.2031-4.8047 2.4023-6.0078l1.2031-1.2031c2.4023-1.2031 4.8047 0 7.207 1.2031 1.2031 1.2031 2.4023 2.4023 2.4023 4.8047 0 4.8047-2.4023 8.4102-7.207 9.6094h-1.2031c-1.2031-1.2031-2.4023-1.2031-3.6055-2.4023-1.1992-2.3984-1.1992-4.8008-1.1992-6.0039z"/>
 <path d="m621.02 287.09c0 3.6055-1.2031 4.8047-4.8047 6.0078h-2.4023c-1.2031 0-2.4023 0-3.6055-1.2031-2.4023-2.4023-3.6055-8.4102 0-10.812 2.4023-2.4023 6.0078-2.4023 8.4102 0 1.2031 2.4062 2.4023 4.8086 2.4023 6.0078z"/>
 <path d="m222.22 494.89c0-1.2031 0-3.6055 2.4023-3.6055 0 0 1.2031 0 1.2031-1.2031 2.4023-2.4023 4.8047-2.4023 7.207 0 2.4023 2.4023 3.6055 6.0078 2.4023 8.4102-1.2031 1.2031-3.6055 2.4023-4.8047 2.4023-1.2031 1.2031-3.6055 1.2031-4.8047 0-2.4062-2.3984-3.6055-2.3984-3.6055-6.0039z"/>
 <path d="m248.65 617.42c0-2.4023 1.2031-4.8047 2.4023-6.0078 2.4023-1.2031 3.6055-2.4023 6.0078-1.2031 3.6055 1.2031 4.8047 2.4023 6.0078 4.8047 0 3.6055-2.4023 7.207-6.0078 7.207-2.4023 0-4.8047 0-6.0078-2.4023-1.1992 0.003906-1.1992-1.1992-2.4023-2.3984z"/>
 <path d="m546.55 850.45c-2.4023 0-3.6055 0-4.8047-2.4023l-1.2031-1.2031c-1.2031-1.2031-2.4023-3.6055-2.4023-4.8047 0-1.2031 1.2031-2.4023 2.4023-2.4023 3.6055-1.2031 8.4102 0 10.812 3.6055v2.4023c0 2.4023-2.4023 4.8047-4.8047 4.8047z"/>
 <path d="m436.04 867.27c0-2.4023 0-3.6055 1.2031-6.0078 0-2.4023 2.4023-3.6055 4.8047-1.2031 2.4023 4.8047 3.6055 9.6094 2.4023 14.414v1.2031c-1.2031 1.2031-1.2031 1.2031-2.4023 0-4.8047-2.3984-7.207-4.8008-6.0078-8.4062z"/>
 <path d="m380.78 781.98h-1.2031c-3.6055-1.2031-3.6055-2.4023-1.2031-4.8047 1.2031-1.2031 2.4023-3.6055 4.8047-3.6055h3.6055c1.2031 1.2031 2.4023 0 3.6055-1.2031 0-1.2031 1.2031-2.4023 1.2031-2.4023 1.2031-1.2031 2.4023-1.2031 3.6055 0s1.2031 2.4023 0 3.6055c-1.2031 1.2031-3.6055 2.4023-4.8047 4.8047-2.4023 1.2031-3.6055 2.4023-6.0078 3.6055h-3.6055c1.1992 1.2031 1.1992 1.2031 0 0z"/>
 <path d="m607.81 945.34c0-3.6055 1.2031-7.207 3.6055-9.6094 2.4023-1.2031 3.6055-1.2031 4.8047 1.2031 1.2031 2.4023 1.2031 3.6055 1.2031 6.0078 0 2.4023-1.2031 3.6055-2.4023 4.8047-1.2031 1.2031-2.4023 1.2031-2.4023 2.4023-1.2031 1.2031-2.4023 1.2031-2.4023 0-1.2031 0-1.2031-1.2031-1.2031-2.4023-1.2031-1.2031-1.2031-2.4062-1.2031-2.4062z"/>
 <path d="m904.5 452.85c1.2031-2.4023 1.2031-3.6055 3.6055-4.8047 2.4023-1.2031 3.6055-1.2031 4.8047 0 2.4023 1.2031 2.4023 3.6055 2.4023 6.0078 0 2.4023-1.2031 4.8047-3.6055 6.0078-1.2031 1.2031-2.4023 1.2031-3.6055 0s-2.4023-3.6055-3.6055-4.8047c0.003906-1.2031 0.003906-1.2031 0.003906-2.4062z"/>
 <path d="m535.73 897.3c0 4.8047-3.6055 9.6094-8.4102 9.6094-2.4023 0-3.6055-1.2031-3.6055-3.6055 0-1.2031 0-3.6055 1.2031-4.8047 0-1.2031 2.4023-2.4023 3.6055-2.4023s2.4023-1.2031 3.6055-1.2031c1.2031-1.2031 2.4023 0 2.4023 1.2031 1.1992 0.003906 1.1992 1.2031 1.1992 1.2031z"/>
 <path d="m315.91 486.49c0 2.4023-2.4023 2.4023-3.6055 2.4023h-4.8047c-1.2031 0-2.4023-1.2031-3.6055-1.2031-1.2031-1.2031-2.4023-2.4023-2.4023-3.6055-1.2031-1.2031 0-3.6055 1.2031-3.6055h7.207c1.2031 0 2.4023 1.2031 2.4023 1.2031 1.2031 1.2031 2.4062 2.4062 3.6055 4.8086z"/>
 <path d="m343.54 228.23c0-1.2031 0-3.6055 1.2031-4.8047 0-1.2031 1.2031-2.4023 2.4023-2.4023 1.2031 0 2.4023 1.2031 2.4023 2.4023 1.2031 2.4023 1.2031 4.8047 2.4023 7.207 0 2.4023 0 3.6055-1.2031 6.0078 0 1.2031-1.2031 2.4023-3.6055 1.2031-1.2031-1.2031-3.6055-2.4023-3.6055-4.8047 0.003907-2.4062 0.003907-3.6055 0.003907-4.8086z"/>
 <path d="m396.39 801.2c-2.4023 1.2031-3.6055 3.6055-7.207 3.6055 0-1.2031 0-2.4023 1.2031-2.4023s2.4023-1.2031 3.6055-2.4023c1.2031-1.2031 3.6055-2.4023 4.8047-3.6055 2.4023 2.4023-1.2031 3.6055-1.2031 4.8047 0 0 0 1.2031 1.2031 1.2031s1.2031 1.2031 2.4023 1.2031c1.2031 2.4023 1.2031 3.6055 0 4.8047-1.2031 1.2031-4.8047 1.2031-6.0078 0-2.4023-1.2031-2.4023-2.4023 0-4.8047 1.1992-1.207 1.1992-2.4062 1.1992-2.4062z"/>
 <path d="m516.52 848.05c0 3.6055-3.6055 8.4102-7.207 7.207-1.2031 0-2.4023-1.2031-2.4023-3.6055-1.2031-3.6055 4.8047-8.4102 7.207-8.4102 1.2031 0 2.4023 1.2031 2.4023 2.4023v2.4062z"/>
 <path d="m528.53 265.46c-2.4023-2.4023-4.8047-4.8047-6.0078-7.207-1.2031-1.2031-1.2031-2.4023-2.4023-3.6055-2.3984-2.3984-3.6016-4.8008-3.6016-7.2031l1.2031-1.2031c2.4023 0 6.0078 2.4023 6.0078 4.8047 0 2.4023 1.2031 4.8047 2.4023 6.0078 1.2031 1.2031 2.4023 3.6055 3.6055 6.0078-0.003906 1.1992-0.003906 1.1992-1.207 2.3984z"/>
 <path d="m488.89 850.45c-2.4023 0-2.4023-1.2031-2.4023-2.4023 0 0 0-1.2031 1.2031-1.2031s2.4023-1.2031 2.4023-2.4023c1.2031-2.4023 3.6055-2.4023 4.8047-3.6055 1.2031-1.2031 3.6055-1.2031 4.8047-1.2031 0 0 1.2031 0 1.2031 1.2031 0 0 0 1.2031-1.2031 1.2031-1.2031 1.2031-2.4023 2.4023-3.6055 3.6055 0 1.2031-1.2031 2.4023-2.4023 2.4023-1.2031 1.2031-3.6055 1.2031-4.8047 2.4023 1.1992 0 0 0 0 0z"/>
 <path d="m503.3 267.87c-3.6055-1.2031-4.8047-4.8047-7.207-7.207-1.2031-2.4023-2.4023-3.6055-3.6055-6.0078l-1.2031-1.2031c-2.4023-1.2031-3.6055-2.4023-2.4023-4.8047 0-1.2031 1.2031-2.4023 2.4023-1.2031 1.2031 0 2.4023 1.2031 3.6055 2.4023v2.4023c0 1.2031 1.2031 2.4023 1.2031 3.6055 2.4023 3.6055 4.8047 6.0078 6.0078 9.6094-0.003907 0.003906 1.1992 1.207 1.1992 2.4062z"/>
 <path d="m867.27 797.6v2.4023c-1.2031 2.4023-1.2031 3.6055-4.8047 2.4023h-1.2031c-2.4023 0-3.6055-1.2031-3.6055-2.4023 0-2.4023 0-3.6055 2.4023-4.8047 0 0 1.2031 0 1.2031-1.2031 3.6055-2.4023 6.0078 0 6.0078 3.6055z"/>
 <path d="m605.41 267.87c-3.6055-1.2031-6.0078-1.2031-7.207-4.8047 0-1.2031-1.2031-1.2031-1.2031-2.4023 0-2.4023 0-3.6055 1.2031-4.8047 1.2031-1.2031 4.8047 0 6.0078 1.2031 1.2031 2.4023 1.2031 3.6055 1.2031 6.0078 1.1953 2.3984 1.1953 3.6016-0.003906 4.8008z"/>
 <path d="m527.33 839.64c0 2.4023-2.4023 6.0078-4.8047 6.0078-2.4023 0-4.8047-2.4023-4.8047-4.8047s2.4023-4.8047 4.8047-4.8047c3.6016-1.2031 4.8047-0.003906 4.8047 3.6016z"/>
 <path d="m354.36 593.39c-3.6055 0-4.8047-1.2031-4.8047-4.8047 0-2.4023 2.4023-4.8047 4.8047-4.8047 2.4023 0 4.8047 2.4023 4.8047 4.8047-1.2031 2.4023-2.4023 4.8047-4.8047 4.8047z"/>
 <path d="m577.78 305.11c-2.4023 0-4.8047-2.4023-4.8047-6.0078 0-2.4023 2.4023-3.6055 4.8047-3.6055s4.8047 2.4023 4.8047 4.8047c0 3.6055-1.1992 4.8086-4.8047 4.8086z"/>
 <path d="m480.48 843.24c0 2.4023-1.2031 4.8047-2.4023 7.207l-1.2031 1.2031c-2.4023 0-3.6055 1.2031-4.8047 3.6055-1.2031 1.2031-1.2031 2.4023-3.6055 1.2031 0 0-1.2031 0-1.2031-1.2031 0-1.2031 0-2.4023 1.2031-3.6055s2.4023-2.4023 3.6055-3.6055c2.4023-2.4023 3.6055-4.8047 8.4102-4.8047z"/>
 <path d="m380.78 930.93c0 2.4023-1.2031 3.6055-3.6055 6.0078h-1.2031c-1.2031 0-3.6055-3.6055-3.6055-4.8047 0-2.4023 1.2031-3.6055 2.4023-6.0078 1.2031-1.2031 3.6055-1.2031 4.8047 0 0.003906 1.2031 1.207 3.6055 1.207 4.8047z"/>
 <path d="m640.24 247.45c-2.4023-3.6055-3.6055-6.0078-6.0078-9.6094-1.2031-2.4023-1.2031-3.6055 0-6.0078 1.2031-2.4023 2.4023-2.4023 4.8047-1.2031l1.2031 1.2031c0 3.6055 1.2031 8.4102 1.2031 12.012-1.2031 2.4023-1.2031 2.4023-1.2031 3.6055z"/>
 <path d="m629.43 270.27c0-2.4023 1.2031-4.8047 3.6055-4.8047 1.2031 0 2.4023 0 3.6055 1.2031 2.4023 2.4023 1.2031 4.8047 1.2031 8.4102 0 0-1.2031 1.2031-2.4023 1.2031-3.6094-1.207-6.0117-3.6094-6.0117-6.0117z"/>
 <path d="m470.87 934.54v2.4023c-2.4023 3.6055-4.8047 8.4102-7.207 12.012-1.2031 1.2031-1.2031 2.4023-3.6055 2.4023-1.2031 0-2.4023-1.2031-2.4023-2.4023 1.2031-2.4023 1.2031-4.8047 4.8047-6.0078 0 0 1.2031 0 1.2031-1.2031 1.2031-1.2031 2.4023-3.6055 4.8047-4.8047 1.1992-1.1992 2.4023-1.1992 2.4023-2.3984z"/>
 <path d="m211.41 678.68h-3.6055c-2.4023 0-3.6055-1.2031-2.4023-3.6055 1.2031-1.2031 3.6055-3.6055 4.8047-3.6055 1.2031 0 1.2031 1.2031 1.2031 1.2031 1.2031 2.4023 1.2031 3.6055 0 6.0078 3.6055 1.2031 3.6055 3.6055 3.6055 4.8047-1.2031 1.2031-2.4023 1.2031-3.6055 0-2.4023-1.2031-2.4023-2.4023 0-4.8047z"/>
 <path d="m523.72 920.12c-2.4023 0-4.8047-1.2031-6.0078-3.6055 0-1.2031 1.2031-3.6055 2.4023-4.8047 1.2031 0 1.2031-1.2031 2.4023 0 2.4023 0 3.6055 2.4023 3.6055 3.6055 1.2031 1.2031 0 3.6055-1.2031 4.8047h-1.1992z"/>
 <path d="m590.99 288.29h-4.8047c-2.4023-1.2031-3.6055-4.8047-2.4023-7.207 0-1.2031 1.2031-1.2031 2.4023-1.2031h2.4023c3.6055 1.2031 4.8047 3.6055 3.6055 6.0078-1.2031 1.1992-1.2031 2.4023-1.2031 2.4023z"/>
 <path d="m550.15 299.1c0 2.4023-2.4023 4.8047-4.8047 3.6055-3.6016 0-4.8047-2.4023-4.8047-4.8047v-1.2031c1.2031-2.4023 6.0078-2.4023 8.4102 0 1.1992 0 1.1992 1.2031 1.1992 2.4023z"/>
 <path d="m938.14 355.55c0-3.6055 3.6055-4.8047 6.0078-3.6055 4.8047 2.4023 3.6055 3.6055 1.2031 6.0078-1.2031 2.4023-2.4062 2.4023-3.6055 2.4023-2.4023-1.1992-3.6055-2.4023-3.6055-4.8047z"/>
 <path d="m572.97 869.67h-2.4023c-2.4023-1.2031-2.4023-2.4023-2.4023-4.8047 0-2.4023 1.2031-2.4023 2.4023-3.6055 2.4023 0 6.0078 1.2031 6.0078 3.6055 2.4023 2.4023 0 4.8047-3.6055 4.8047z"/>
 <path d="m858.86 410.81c0 1.2031-1.2031 2.4023-2.4023 2.4023-1.2031 1.2031-4.8047 0-4.8047 0-1.2031-1.2031-2.4023-4.8047-1.2031-6.0078 0-1.2031 1.2031-1.2031 2.4023-1.2031 3.6055-1.1992 6.0078 1.2031 6.0078 4.8086z"/>
 <path d="m554.95 302.7c2.4023 0 3.6055 1.2031 4.8047 3.6055 1.2031 2.4023 1.2031 3.6055-1.2031 6.0078-1.2031 1.2031-2.4023 1.2031-4.8047-1.2031l-1.2031-1.2031c-2.4023-1.2031-1.2031-3.6055 0-4.8047 1.207-1.2031 1.207-1.2031 2.4062-2.4023z"/>
 <path d="m460.06 878.08c-1.2031 2.4023-1.2031 4.8047-3.6055 7.207-1.2031 2.4023-3.6055 3.6055-3.6055 6.0078 0 1.2031 0 2.4023-1.2031 3.6055 0 1.2031-1.2031 2.4023-2.4023 2.4023-1.2031 0-2.4023-1.2031-2.4023-2.4023 0-1.2031 0-2.4023 1.2031-3.6055 2.4023-1.2031 3.6055-2.4023 4.8047-4.8047 1.2031-2.4023 2.4023-4.8047 3.6055-6.0078 1.2031-2.4023 1.2031-2.4023 3.6055-2.4023z"/>
 <path d="m568.17 290.69v1.2031c0 2.4023-1.2031 2.4023-2.4023 1.2031-3.6055-1.2031-4.8047-6.0078-3.6055-9.6094 0-1.2031 2.4023-2.4023 3.6055-1.2031 1.2031 3.6016 2.4023 6.0039 2.4023 8.4062z"/>
 <path d="m302.7 798.8c0 2.4023-2.4023 4.8047-4.8047 4.8047-2.4023 0-3.6055-1.2031-3.6055-3.6055s2.4023-4.8047 3.6055-4.8047c2.4023 0.003906 4.8047 1.2031 4.8047 3.6055z"/>
 <path d="m393.99 783.18c1.2031-1.2031 1.2031-2.4023 1.2031-2.4023 1.2031-1.2031 1.2031-2.4023 2.4023-3.6055 1.2031-1.2031 1.2031-1.2031 3.6055-1.2031h3.6055c-0.003906 6.0078-6.0117 9.6133-10.816 7.2109z"/>
 <path d="m520.12 294.29c1.2031 0 2.4023 0 3.6055 1.2031 0 1.2031 1.2031 1.2031 2.4023 2.4023 1.2031 1.2031 2.4023 4.8047 2.4023 6.0078l-1.2031 1.2031c-1.2031 1.2031-4.8047 0-4.8047-2.4023-1.2031-2.4023-1.2031-4.8047-1.2031-7.207-1.1992-0.003906-1.1992-0.003906-1.1992-1.207z"/>
 <path d="m213.81 693.09c0-2.4023 2.4023-4.8047 4.8047-3.6055 2.4023 0 3.6055 2.4023 3.6055 3.6055 0 2.4023-2.4023 4.8047-4.8047 4.8047-2.4023 0-3.6055-2.4023-3.6055-4.8047z"/>
 <path d="m409.61 843.24c0-2.4023 0-3.6055 2.4023-3.6055 1.2031 0 2.4023-1.2031 3.6055-2.4023 1.2031-2.4023 2.4023-3.6055 4.8047-6.0078 0-2.3984 1.1992-2.3984 3.6016-2.3984v1.2031c-1.2031 1.2031-2.4023 3.6055-4.8047 4.8047-1.2031 1.2031-2.4023 1.2031-3.6055 2.4023-1.2031 1.2031-1.2031 1.2031-1.2031 2.4023-1.1953 3.6016-2.3984 4.8047-4.8008 3.6016z"/>
 <path d="m305.11 839.64c0-1.2031 0-2.4023 1.2031-3.6055 0-1.2031 1.2031-2.4023 2.4023-2.4023 1.2031 0 2.4023 0 3.6055 1.2031 1.2031 2.4023 0 6.0078-2.4023 7.207h-1.2031c-3.6055 2.4023-4.8086 1.1992-3.6055-2.4023z"/>
 <path d="m515.32 867.27c-1.2031 0-1.2031 1.2031-2.4023 1.2031-1.2031 0-2.4023-1.2031-2.4023-2.4023 1.2031-2.4023 0-3.6055 2.4023-4.8047 1.2031-1.2031 2.4023-1.2031 3.6055-1.2031s2.4023 0 2.4023 2.4023c0 1.2031-1.2031 2.4023-2.4023 3.6055-1.2031 0-1.2031 0-1.2031 1.1992z"/>
 <path d="m395.2 696.7c0 2.4023-2.4023 3.6055-4.8047 3.6055s-3.6055-2.4023-3.6055-3.6055c0-2.4023 2.4023-3.6055 3.6055-3.6055 3.6016 0.003906 4.8047 2.4062 4.8047 3.6055z"/>
 <path d="m442.04 330.33c-2.4023 1.2031-4.8047 1.2031-6.0078-1.2031l-1.2031-1.2031c-1.2031-2.4023-2.4023-3.6055-3.6055-3.6055l-1.2031-1.2031v-2.4023h1.2031l1.2031 1.2031c1.2031 1.2031 2.4023 2.4023 3.6055 2.4023 3.6055 1.207 4.8047 2.4062 6.0078 6.0117z"/>
 <path d="m422.82 803.61c1.2031-1.2031 2.4023-3.6055 3.6055-4.8047 1.2031-1.2031 2.4023-1.2031 3.6055-1.2031s2.4023 0 3.6055-1.2031c0 2.4023-1.2031 4.8047-3.6055 6.0078-1.2031 1.2031-3.6055 1.2031-4.8047 2.4023-1.207 0-2.4062 0-2.4062-1.1992z"/>
 <path d="m496.1 290.69 1.2031-1.2031h1.2031c1.2031 2.4023 4.8047 3.6055 6.0078 7.207 0 1.2031 1.2031 2.4023 0 2.4023-1.2031 1.2031-2.4023 1.2031-2.4023 0l-2.4023-2.4023c-0.007812-2.4023-1.207-3.6016-3.6094-6.0039 1.1992 0 1.1992 0 0 0z"/>
 <path d="m427.63 255.86c0 2.4023-2.4023 4.8047-3.6055 3.6055-1.2031 0-1.2031 0-1.2031-1.2031v-1.2031c-1.2031-1.2031 0-2.4023 1.2031-3.6055 1.2031-1.2031 1.2031-1.2031 2.4023-1.2031 0 0.007812 1.2031 1.207 1.2031 3.6094z"/>
 <path d="m908.11 372.37c0 2.4023-1.2031 3.6055-3.6055 3.6055s-3.6055-1.2031-3.6055-3.6055 1.2031-2.4023 2.4023-2.4023c3.6055 0 4.8086 0 4.8086 2.4023z"/>
 <path d="m375.98 820.42c0-2.4023 1.2031-3.6055 3.6055-3.6055 1.2031 0 3.6055 2.4023 3.6055 3.6055 0 2.4023-1.2031 3.6055-2.4023 3.6055-2.4062 1.1992-4.8086-1.2031-4.8086-3.6055z"/>
 <path d="m275.07 816.82c0 2.4023-1.2031 4.8047-2.4023 4.8047-1.2031 0-3.6055-1.2031-3.6055-3.6055s1.2031-4.8047 3.6055-4.8047c1.2031 0.003906 2.4023 1.2031 2.4023 3.6055z"/>
 <path d="m896.1 463.66c0 2.4023-1.2031 3.6055-3.6055 3.6055-1.2031 0-3.6055-2.4023-3.6055-3.6055 0-1.2031 2.4023-3.6055 4.8047-3.6055 1.2031 0 2.4062 2.4023 2.4062 3.6055z"/>
 <path d="m236.64 295.5c0-1.2031 1.2031-2.4023 2.4023-2.4023 2.4023 0 3.6055 2.4023 3.6055 3.6055 0 2.4023-1.2031 3.6055-2.4023 3.6055-1.2031-0.003907-3.6055-2.4062-3.6055-4.8086z"/>
 <path d="m426.43 281.08c2.4023 0 2.4023 0 3.6055 1.2031 1.2031 2.4023 2.4023 3.6055 4.8047 6.0078 1.2031 1.2031 3.6055 2.4023 3.6055 6.0078-1.2031 0-1.2031 0-1.2031-1.2031-1.2031-2.4023-3.6055-3.6055-4.8047-6.0078l-2.4023-2.4023c-4.8047-1.2031-4.8047-1.2031-3.6055-3.6055z"/>
 <path d="m311.11 597c2.4023 0 3.6055 1.2031 3.6055 3.6055 0 2.4023-1.2031 3.6055-2.4023 3.6055-2.4023 0-4.8047-1.2031-3.6055-3.6055 0-2.4023 0-3.6055 2.4023-3.6055z"/>
 <path d="m870.87 816.82c-2.4023 0-3.6055-1.2031-3.6055-2.4023 0-2.4023 1.2031-3.6055 3.6055-3.6055s3.6055 1.2031 3.6055 3.6055c-0.003906 1.2031-1.2031 2.4023-3.6055 2.4023z"/>
 <path d="m410.81 720.72c1.1992 0 1.1992 1.1992 0 0 2.4023 2.4023 1.2031 4.8047 0 6.0078s-3.6055 1.2031-4.8047-1.2031c0-2.4023 1.1992-4.8047 4.8047-4.8047z"/>
 <path d="m624.62 893.7c-2.4023-2.4023-1.2031-6.0078 0-7.207 1.2031 0 2.4023-1.2031 3.6055 0s1.2031 2.4023 0 2.4023c-0.003907 3.6016-1.2031 4.8047-3.6055 4.8047z"/>
 <path d="m844.45 414.41c-2.4023 0-3.6055-1.2031-3.6055-2.4023 0-1.2031 2.4023-3.6055 3.6055-3.6055 2.4023 0 2.4023 1.2031 2.4023 3.6055 0 2.4023-1.2031 2.4023-2.4023 2.4023z"/>
 <path d="m505.71 843.24c-1.2031 2.4023-1.2031 3.6055-1.2031 4.8047 0 1.2031-1.2031 1.2031-2.4023 1.2031-1.2031 0-2.4023-1.2031-2.4023-2.4023 0-2.4023 1.2031-3.6055 2.4023-3.6055h3.6055z"/>
 <path d="m879.28 796.39c0 2.4023-1.2031 3.6055-3.6055 3.6055-1.2031 0-2.4023-1.2031-2.4023-2.4023 0-2.4023 1.2031-3.6055 3.6055-3.6055 1.2031 0 2.4023 1.2031 2.4023 2.4023z"/>
 <path d="m297.9 733.93c1.2031-1.2031 0-3.6055 2.4023-3.6055 2.4023 0 3.6055 1.2031 3.6055 2.4023 0 1.2031 0 2.4023-1.2031 3.6055-1.2031 0-2.4023-1.1992-4.8047-2.4023z"/>
 <path d="m354.36 299.1c0-2.4023 0-2.4023 1.2031-3.6055 1.2031 0 2.4023 0 2.4023 1.2031 1.2031 2.4023 1.2031 3.6055-1.2031 4.8047-1.2031 1.2031-2.4023 1.2031-2.4023-2.4023v0z"/>
 <path d="m426.43 759.16c0 1.2031-1.2031 3.6055-2.4023 3.6055-1.2031 0-2.4023 0-2.4023-2.4023-1.2031-2.4023-1.2031-2.4023 0-3.6055 1.2031-1.2031 2.4023-1.2031 3.6055-1.2031 1.1992 1.2031 1.1992 2.4023 1.1992 3.6055z"/>
 <path d="m363.96 271.47c-1.2031 0-1.2031-1.2031-2.4023-1.2031-1.2031-1.2031-2.4023-2.4023-4.8047-3.6055-1.2031 0-1.2031-1.2031-1.2031-2.4023v-1.2031h1.2031c1.2031 0 1.2031 1.2031 2.4023 1.2031 1.2031 2.4023 3.6055 3.6055 4.8047 6.0078v1.2031z"/>
 <path d="m541.74 308.71c-2.4023 1.2031-3.6055 1.2031-4.8047-1.2031-1.2031-1.2031 0-2.4023 0-3.6055 1.2031-1.2031 2.4023-1.2031 3.6055-1.2031 1.1992 2.4102 1.1992 3.6094 1.1992 6.0117z"/>
 <path d="m403.61 301.5-2.4023-2.4023c-1.2031-1.2031-1.2031-2.4023-2.4023-2.4023l-1.2031-1.2031c0-1.2031 0-2.4023 1.2031-2.4023s1.2031 0 2.4023 1.2031c1.2031 2.4023 2.4023 3.6055 3.6055 6.0078-0.003906-1.2031-0.003906 0-1.2031 1.1992 1.1992 0 1.1992 0 0 0z"/>
 <path d="m360.36 547.75c3.6055 2.4023 4.8047 4.8047 2.4023 7.207-1.2031 0-2.4023-1.2031-3.6055-1.2031-2.3984-2.3984-1.1992-4.8008 1.2031-6.0039z"/>
 <path d="m440.84 790.39c-1.2031 1.2031-1.2031 3.6055-2.4023 4.8047-1.2031 1.2031-2.4023 2.4023-3.6055 1.2031-1.2031-1.2031-2.4023-2.4023-1.2031-3.6055 2.4062-1.2031 4.8086-2.4023 7.2109-2.4023z"/>
 <path d="m701.5 840.84v-1.2031c0-1.2031 1.2031-2.4023 2.4023-2.4023 1.2031 0 1.2031 1.2031 1.2031 2.4023v2.4023c0 1.2031 0 2.4023-1.2031 2.4023s-1.2031-1.2031-2.4023-1.2031v-2.3984z"/>
 <path d="m452.85 233.03c0 1.2031-1.2031 2.4023-3.6055 2.4023-1.2031 0-2.4023-1.2031-2.4023-2.4023 0-1.2031 1.2031-2.4023 2.4023-2.4023 1.2031 0 3.6055 1.2031 3.6055 2.4023z"/>
 <path d="m420.42 944.14c0-1.2031 1.2031-2.4023 2.4023-2.4023 1.2031 0 2.4023 1.2031 2.4023 2.4023 0 1.2031-1.2031 2.4023-2.4023 2.4023-1.2031 0-2.4023-1.2031-2.4023-2.4023z"/>
 <path d="m414.41 350.75c-1.2031-1.2031-1.2031-2.4023-2.4023-2.4023-1.2031-1.2031-2.4023-2.4023-3.6055-2.4023 0-1.2031-1.2031-1.2031-1.2031-2.4023v-1.2031h1.2031s1.2031 0 1.2031 1.2031c2.4023 1.2031 3.6055 3.6055 4.8047 7.207v0z"/>
 <path d="m432.43 338.74c-1.2031-2.4023-3.6055-3.6055-2.4023-6.0078 2.4023 1.2031 4.8047 1.2031 4.8047 3.6055 1.1992 1.2031 1.1992 2.4023-2.4023 2.4023 1.1992 0 1.1992 0 0 0z"/>
 <path d="m670.27 285.89c2.4023 2.4023 3.6055 4.8047 4.8047 7.207v1.2031c0 1.2031-1.2031 1.2031-1.2031 1.2031-2.3984-3.6094-3.6016-6.0117-3.6016-9.6133z"/>
 <path d="m643.84 880.48c0 2.4023-1.2031 3.6055-2.4023 2.4023-1.2031 0-2.4023-1.2031-2.4023-2.4023 0-1.2031 1.2031-2.4023 2.4023-2.4023 2.4023 0 2.4023 1.1992 2.4023 2.4023z"/>
 <path d="m336.34 721.92v3.6055c-1.2031 1.2031-2.4023 1.2031-3.6055 0s-1.2031-2.4023 0-2.4023c0.003906-1.2031 1.2031-2.4023 3.6055-1.2031z"/>
 <path d="m445.64 842.04c1.2031 1.2031 0 2.4023-1.2031 3.6055-1.2031 1.2031-2.4023 1.2031-3.6055 2.4023h-1.2031v-1.2031c0.007813-2.4023 3.6094-3.6055 6.0117-4.8047z"/>
 <path d="m678.68 915.32c0 1.2031-1.2031 2.4023-2.4023 2.4023-1.2031 0-2.4023-1.2031-2.4023-2.4023 0-1.2031 1.2031-2.4023 2.4023-2.4023 1.1992 0 2.4023 1.1992 2.4023 2.4023z"/>
 <path d="m449.25 784.38c1.2031 3.6055-2.4023 4.8047-7.207 4.8047 2.4023-2.4023 4.8047-4.8047 7.207-4.8047z"/>
 <path d="m530.93 309.91v2.4023c0 1.2031 0 2.4023-1.2031 2.4023-1.2031 0-2.4023-1.2031-2.4023-1.2031s0-1.2031-1.2031-2.4023c1.207-1.1992 2.4062-1.1992 4.8086-1.1992z"/>
 <path d="m342.34 484.09c-3.6055 0-4.8047-1.2031-4.8047-3.6055 0-1.2031 1.2031-2.4023 1.2031-1.2031 1.2031 0 2.4023 1.2031 2.4023 2.4023-0.003906 0.003906-0.003906 1.2031 1.1992 2.4062z"/>
 <path d="m568.17 307.51c-2.4023 0-3.6055-2.4023-2.4023-4.8047 1.2031-1.2031 3.6055-1.2031 3.6055 0 0 1.1992 0 2.4023-1.2031 4.8047 1.2031 0 0 0 0 0z"/>
 <path d="m314.71 827.63c-1.2031 0-2.4023-1.2031-2.4023-2.4023 0-1.2031 1.2031-2.4023 2.4023-2.4023 1.2031 0 2.4023 1.2031 2.4023 2.4023-1.2031 1.1992-1.2031 2.4023-2.4023 2.4023z"/>
 <path d="m970.57 611.41c1.2031-1.2031 2.4023-1.2031 4.8047 0 1.2031 1.2031 1.2031 1.2031 1.2031 2.4023 0 1.2031-2.4023 1.2031-2.4023 1.2031-2.4023-1.2031-3.6055-2.4023-3.6055-3.6055z"/>
 <path d="m694.29 882.88c0-1.2031 1.2031-2.4023 2.4023-2.4023 1.2031 0 1.2031 0 1.2031 1.2031s-1.2031 3.6055-2.4023 3.6055c0-1.2031-1.2031-1.2031-1.2031-2.4062z"/>
 <path d="m623.42 242.64c-1.2031 0-2.4023-1.2031-2.4023-2.4023 0-1.2031 1.2031-1.2031 2.4023-1.2031 1.2031 0 2.4023 1.2031 2.4023 2.4023 0 1.2031-1.1992 1.2031-2.4023 1.2031z"/>
 <path d="m535.73 319.52c-1.2031-1.2031-2.4023-1.2031-2.4023-2.4023 0-1.2031 1.2031-1.2031 2.4023-1.2031 1.2031 0 2.4023 1.2031 2.4023 1.2031 0 1.1992-1.1992 1.1992-2.4023 2.4023z"/>
 <path d="m609.01 852.85c-1.2031 0-2.4023-1.2031-2.4023-2.4023 0-1.2031 1.2031-2.4023 2.4023-2.4023 1.2031 0 2.4023 1.2031 2.4023 2.4023-1.1992 1.2031-1.1992 2.4023-2.4023 2.4023z"/>
 <path d="m670.27 281.08c-1.1992 0-1.1992 1.1992 0 0-1.2031 1.2031-1.2031 1.2031-2.4023 1.2031-1.2031-1.2031-1.2031-1.2031-1.2031-2.4023l1.2031-1.2031c1.2031-1.2031 1.2031 0 2.4023 2.4023v0z"/>
 <path d="m649.85 890.09c-1.2031 0-2.4023 0-2.4023-1.2031s1.2031-2.4023 2.4023-2.4023c1.2031 0 2.4023 1.2031 2.4023 2.4023 0 1.2031-1.2031 1.2031-2.4023 1.2031z"/>
 <path d="m389.19 928.53c0-1.2031 1.2031-2.4023 1.2031-2.4023 1.2031 0 1.2031 1.2031 1.2031 2.4023 0 1.2031-1.2031 2.4023-1.2031 2.4023 0-1.1992-1.2031-1.1992-1.2031-2.4023z"/>
 <path d="m420.42 296.7c2.4023 0 3.6055 2.4023 4.8047 4.8047-2.4023 0-3.6055-2.4023-4.8047-4.8047z"/>
 <path d="m707.51 848.05c-2.4023 0-2.4023 0-3.6055-1.2031 0-1.2031 0-1.2031 1.2031-1.2031 2.4023 0.003906 2.4023 1.207 2.4023 2.4062z"/>
 <path d="m813.21 550.15c-1.2031-2.4023 0-3.6055 1.2031-4.8047 1.2031-1.2031 3.6055-1.2031 4.8047-1.2031 1.2031 0 2.4023 3.6055 2.4023 4.8047 0 1.2031-1.2031 2.4023-2.4023 3.6055 0 0-1.2031 1.2031-1.2031 0-2.4023-1.2031-3.6055 1.2031-4.8047 1.2031-1.2031 1.2031-2.4023 0-3.6055 0-1.2031-1.2031 0-2.4023 1.2031-3.6055h2.4023z"/>
 <path d="m705.11 673.88c0 2.4023-1.2031 3.6055-2.4023 4.8047-1.2031 1.2031-2.4023 1.2031-2.4023 2.4023 0 1.2031-1.2031 1.2031-2.4023 1.2031-1.2031 0-1.2031-1.2031-1.2031-2.4023 0-2.4023 2.4023-4.8047 3.6055-7.207h1.2031c1.1992-0.003906 2.3984 1.1992 3.6016 1.1992z"/>
 <path d="m574.18 618.62-1.2031 1.2031c-2.4023 1.2031-3.6055 2.4023-6.0078 3.6055-2.3984 1.1992-3.6016 1.1992-4.8008 4.8008 0 1.2031-4.8047 2.4023-6.0078 1.2031v-1.2031c1.2031-1.2031 2.4023-3.6055 4.8047-3.6055 1.2031 0 3.6055-1.2031 4.8047-2.4023 2.4023-1.2031 4.8047-2.4023 6.0078-3.6055 1.1992 0.003907 1.1992 0.003907 2.4023 0.003907z"/>
 <path d="m790.39 544.14c-1.2031-1.2031-1.2031-1.2031-2.4023-2.4023-1.2031-1.2031-1.2031-2.4023 0-3.6055l2.4023-2.4023c1.2031-1.2031 1.2031-1.2031 2.4023-1.2031v1.2031c0 2.4023-1.2031 4.8047-1.2031 7.207l-1.1992 1.2031z"/>
 <path d="m743.54 725.53c1.2031 2.4023 1.2031 3.6055 0 6.0078h-2.4023c-1.2031 0-2.4023-1.2031-2.4023-2.4023 0-2.4062 1.2031-3.6055 4.8047-3.6055z"/>
 <path d="m431.23 615.02c1.2031-1.2031 3.6055-1.2031 4.8047-1.2031 0 0 1.2031 0 2.4023 1.2031 1.2031 1.2031 1.2031 2.4023 0 2.4023 0 0-1.2031 1.2031-2.4023 1.2031-1.1992-1.2031-2.4023-2.4062-4.8047-3.6055z"/>
 <path d="m430.03 601.8c0 1.2031-1.2031 1.2031-1.2031 2.4023-1.2031 1.2031-3.6055 1.2031-4.8047 0v-1.2031c0-1.2031 1.2031-2.4023 2.4023-2.4023 2.4023-1.1992 2.4023 0.003906 3.6055 1.2031z"/>
 <path d="m779.58 440.84c0 1.2031 0 1.2031-1.2031 1.2031s-3.6055-1.2031-3.6055-2.4023c0-1.2031 1.2031-2.4023 2.4023-2.4023 1.207 1.1992 2.4062 2.4023 2.4062 3.6016z"/>
 <path d="m510.51 756.76c-1.2031-1.2031-2.4023-1.2031-2.4023-2.4023v-1.2031c1.2031-1.2031 2.4023-2.4023 3.6055-1.2031 1.2031 0 1.2031 2.4023 1.2031 3.6055-1.207 0-2.4062 1.2031-2.4062 1.2031z"/>
 <path d="m745.95 467.27-1.1992 1.2031c-2.4023-1.2031-2.4023-1.2031-2.4023-3.6055l1.2031-1.2031c1.1992 0.003906 2.3984 1.2031 2.3984 3.6055z"/>
 <path d="m517.72 742.34c-1.2031 0-1.2031 1.2031-2.4023 1.2031-1.2031-1.2031-2.4023-1.2031-2.4023-3.6055 0 0 1.2031-1.2031 2.4023-1.2031 2.4023 1.2031 2.4023 2.4023 2.4023 3.6055z"/>
</svg>
