<?xml version="1.0" encoding="UTF-8"?>
<svg width="1200pt" height="1200pt" version="1.1" viewBox="0 0 1200 1200" xmlns="http://www.w3.org/2000/svg">
 <path d="m261.45 1109.7c25.676 8.3594 49.531 20.02 78.449 19.371 35.062-0.73828 65.355 22.246 100.01 27.969 28.945 4.8008 55.82 25.359 87.086 10.168 14.414 19.254 36.871 9.6406 55.199 14.969 41.262 11.922 85.609 11.617 125.67 3.918 74.125-14.23 146.12-40.246 210.8-80.781 30.266-18.961 61.871-38.082 81.641-70.09 13.398-21.719 22.285-46.773 45.996-60.883 21.285-12.582 27.836-39.086 46.352-52.918 19.898-14.926 29.207-34.891 40.668-54.988 12.898-22.746 18.871-47.883 28.629-71.645 26.609-64.734 36.316-132.69 37.121-183.77-0.81641-86.059-11.156-152.08-33.297-216-7.2266-20.875-16.312-41.145-25.332-61.344-19.055-42.816-44.203-80.27-86.043-105.18-24.66-14.664-45.219-35.379-64.812-56.441-23.777-25.637-44.441-54.75-70.828-77.234-52.406-44.586-117.96-64.445-183.01-79.41-65.406-15.086-133.27-16.68-199.75-1.0938-39.285 9.2031-81.348 14.703-116.14 33.164-57.547 30.5-118.3 49.594-180.14 65.695-53.25 13.871-81.941 55.992-61.383 106.68 6.9492 17.078 4.1289 26.98-4.8672 37.449-9.0977 10.602-8.5039 30.266-23.906 33.191-30.672 5.8164-35.734 30.027-41.102 53.051-13.152 56.32-11.172 115.98-37.613 169.52-3.5352 7.1875-4.2734 15.996-5.1016 24.172-0.52734 5.3125-2.9531 12.605 3.9805 15.574 7.9258 3.375 12.527-2.6367 15.785-8.5312 6.4102-11.578 10.656-24.395 20.953-33.652 37.898-34.18 52.047-84.289 82.469-123.55 7.832-10.129 9.3359-26.781 29.895-18.133 8.7969 3.6797 15.836-6.8047 22.246-13.438 8.5469-8.8477 15.77-20.52 29.605-21.152 13.055-0.62109 22.301-7.793 29.629-16.617 13.465-16.195 30.477-29.961 46.312-41.395 36.305-26.188 54.816-61.398 67.848-101.05 6.8438-20.875 20.941-36.395 38.848-41.867 36.961-11.312 68.453-37.055 108.13-39.836 29.102-2.0586 59.367-17.129 86.359-8.5039 51.152 16.324 106.06 8.2695 156.58 33.086 27.746 13.648 61.199 17.883 88.047 36.621 11.578 8.0703 22.324 17.684 34.734 24.055 87.652 44.887 131.27 127.07 172.14 209.29 22.008 44.309 16.34 96.805 22.68 145.68 6.6875 51.641-17.062 100.38-15.047 152.11 0.63281 15.875 0.72656 35.828-6.0938 50.293-31.293 66.5-47.816 141.81-112.55 189.22-27.18 19.887-50.492 45.02-75.891 67.371-63.652 56.059-141.89 82.695-221.47 103.17-48.938 12.582-100.5 19.898-149.63-6.5547-24.449-13.172-52.852-15.969-79.727-18.289-31.109-2.7031-60.184-10.43-88.195-22.207-59.312-24.949-112.5-61.004-159.24-104.39-56.359-52.285-95.828-116.16-114.3-192.3-8.9141-36.75-22.363-72.383-33.746-108.54-4.2852-13.531-14.98-16.984-20.164-4.4961-7.4102 17.723-18.223 34.207-17.184 56.188 2.2031 46.035 9.7695 92.203 24.371 134.2 21.641 62.242 35.988 129.43 84.977 179.66 37.34 38.293 69.188 82.863 123.36 100.45z"/>
 <path d="m90.633 261.09c35.961-0.67188 56.809-16.945 56.598-44.164-0.19922-25.926-35.945-68.887-56.559-67.977-27.77 1.2148-50.188 31.238-49.727 66.621 0.22266 19.633 28.918 45.902 49.688 45.52z"/>
 <path d="m58.219 351.47c16.246 0.53906 41.801-16.312 42.316-27.957 0.66016-13.742-24.094-27.863-49.16-28.945-16.746-0.71094-27.77 3.875-26.309 23.262-0.15625 21.984 10.617 32.887 33.152 33.641z"/>
</svg>
