<?xml version="1.0" encoding="UTF-8"?>
<svg width="1200pt" height="1200pt" version="1.1" viewBox="0 0 1200 1200" xmlns="http://www.w3.org/2000/svg">
 <path d="m1125.3 393.35c-14.465-26.992-24.91-56.926-47.145-79.516-15.469-15.746-31.848-30.766-43.426-49.805-3.375-5.5781-10.535-11.777-7.6094-17.828 6.1602-12.793-1.4102-19.305-9.2188-25.516-20.992-16.59-44.23-30.738-63.375-49.172-40.168-38.742-86.73-66.383-139-83.895-41.184-13.781-83.777-23.207-124.96-37.305-29.301-10.035-60.672-6.1172-90.988-9.3906-14.504-1.5547-29.512-3.4531-43.766-1.4883-42.844 5.8672-85.438 11.617-124.57 33.746-38.742 21.902-82.035 34.906-120.98 57.02-7.3594 4.168-14.887 7.2656-10.234 17.629 5.1172 11.262 20.336 15.27 32.07 11.312 12.5-4.1953 21.008-18.922 38.637-14.758-2.625 2.8086-3.8516 4.7461-5.5781 5.8828-52.695 34.496-102.42 73.027-151.44 112.5-19.977 16.047-33.707 36.434-39.641 61.727-9.5195 40.656-29.078 77.09-49.449 112.83-28.984 50.875-43.359 104.48-37.305 163.3 1.4102 13.465 6.4492 26.82 3.4688 40.469-5.6289 25.766-5.4453 51.031-0.73828 77.207 5.8828 32.52-3.4023 66.488 7.4258 98.887 0.32812 1.0156-1.1875 2.6758-3.2188 6.8984-10.246-16.668-15.441-32.742-17.062-49.793-1.4883-15.746 0.23828-31.621-1.9258-47.551-4.4961-32.609-9.3242-65.078-6.4492-98.531 1.8477-21.164 0.87109-42.922 0.66016-64.34-0.47656-43.371-5.2344-86.547 4.3242-129.85 9.8633-44.664 23.539-85.766 66.5-110.08 4.6406-2.6094 9.0859-7.6992 7.2148-14.281-1.4883-5.2227 0.44922-9.125 3.6914-12.289 10.379-10.152 15.574-23.367 22.023-35.922 2.7969-5.4727 5.6562-11.039 11.551-14.32 20.609-11.406 37.859-26.691 52.707-45.047 4.707-5.7891 10.602-12.289 20.07-8.7422 5.9883 2.2148 12.977 4.918 16.523-2.3359 3.9023-7.9648 7.3438-16.828 0.79297-25.676-5.0625-6.8984-11.168-6.8984-17.867-3.1133-2.6758 1.5039-5.0898 1.9766-7.9258 0.51562-10.918-5.6953-18.645-1.1094-26.758 6.7773-18.238 17.723-33.664 39.93-62.27 42.75-1.3984 0.13281-2.875 1.8203-3.9414 3.0859-28.234 33.559-63.836 61.16-84.527 100.67-6.1836 11.828-15.785 21.93-19.449 34.617-7.0547 24.566-11.012 50.059-18.672 74.426-7.4375 23.645-2.1641 48.25-8.8203 72.434-3.3633 12.16 1.1719 30.422 2.7695 45.824 2.7031 25.832 7.3828 53.484-4.5117 76.891-8.8203 17.473-9.3906 32.703-6.4609 50.281 1.9375 11.672 2.4805 23.578 3.4961 35.406 1.1211 13.926 1.082 28.008 3.2422 41.789 6.0273 38.598 21.152 73.805 44.902 104.71 13.383 17.379 15.496 41.906 35.695 54.688 14.715 9.2969 23.672 24 34.535 36.988 4.707 5.6289 10.141 10.562 15.336 15.746 23.512 23.5 50.188 43.621 71.684 69.414 16.18 19.426 33.48 38.492 52.734 54.727 69.863 58.957 153.22 82.945 242.4 93.98 45.336 5.5898 90.539 7.4766 135.96 9.8242 24.66 1.2383 49.094 0 72.793-4.418 45.336-8.4805 87.086-29.551 131.97-40.918 31.977-8.0586 58.496-28.195 82.152-52.219 13.398-13.609 29.906-24.41 40.152-40.891 9.957-16.102 22.617-29.605 35.84-42.777 2.9805-2.9922 4.4297-7.1602 10.762-5.8828 14.059 2.9023 16.352-7.0938 15.797-17.539-0.37109-6.2656-2.4805-12.371 2.9023-17.395 15.535-14.637 23.484-34.34 34.957-51.73 14.809-22.406 27.52-45.902 47.156-65.723 20.559-20.625 25.871-51.574 37.043-78.355 15.797-37.859 11.039-79.32 20.797-118.3 4.0469-16.141 7.0039-32.625 9.6406-49.066 4.207-26.281-11.262-48.766-15.113-73.648-7.7539-49.867-34.797-92.316-57.98-135.54zm-322.92-276.22c42.184 22.152 82.379 47.988 123.41 72.25 3.2695 1.9375 7.1211 3.6797 6.6445 10.09-23.379-1.6602-40.34-16.746-59.711-26.059-38.848-18.688-74.547-43.609-118.26-52.918-24.223-5.1562-46.34-20.203-72.988-16.617 42.766-17.035 83.195-6.5117 120.9 13.254zm55.25 966.57c-30.211 13.398-62.676 22.84-89.789 42.344-41.023 29.445-87.23 37.477-136.13 38.043-12.898 0.13281-25.648 0.13281-38.504-0.94922-4.3242-0.34375-8.6367-1.1328-9.8633-5.0625-1.2656-4.1289 4.9336-4.2188 6.0547-6.4492 6.9883-13.848 19.91-11.418 31.887-13.938 37.188-7.6992 73.688-18.961 111.07-25.32 37.055-6.3164 69.414-21.152 100.87-40.762 19.832-12.328 42.633-19.344 63.258-31.109 18.266-10.445 32.926-25.332 51.797-34.656-22.91 34.566-52.277 60.836-90.652 77.859zm146.55-263.6c-3.1133 51.059-39.746 85.715-63.18 126.69-5.0898 8.9414-14.703 15.414-22.762 22.445-16.141 14.059-34.035 25.871-46.906 43.805-8.4648 11.789-55.699 26.504-77.605 26.504-18.477-1.1719-37.953 5.1445-57.297 11.355-54.199 17.445-110.99 16.723-166.62 20.531-28.512 1.9766-59.062-4.918-88.352-11.605-24.305-5.5781-49.887-5.418-74.902-7.8711-6.1445-0.59375-13.293 0.34375-18.305-2.4805-42.66-23.922-89.145-41.184-127.52-72.711-8.5703-7.0273-15.52-15.863-20.203-24.949-12.184-23.445-40.973-30.422-52.008-53.539-21.891-45.875-56.164-87.535-56.031-141.4 0.039063-19.727 0.28906-37.727-11.379-54.344-3.3359-4.7344-3.5586-10.945-2.3867-16.535 6.75-33.309-1.8203-66.277-1.3711-99.391 0.35547-29.156 5.8281-56.414 23.484-81.812 16.918-24.305 28.852-52.102 42.699-78.539 23.461-44.703 52.324-85.742 83.945-124.96 6.0117-7.4258 11.895-14.941 17.523-22.68 14.969-20.676 36.883-27.957 59.656-37.477 21.414-8.9531 43.531-15.363 64.879-24.055 14.598-5.9219 14.914-24.371 27.441-33.309 14.598-10.391 29.184-15.27 47.418-14.992 15.391 0.26562 30.277-7.3828 45.824-10.195 29.445-5.2227 58.918-7.7422 88.746-9.7305 44.781-3.0195 87.242 7.6992 130.51 14.125 23.445 3.4688 44.281 14.215 64.062 26.082 8.7578 5.2227 17.801 10.379 26.953 13.371 24.91 8.082 45.535 21.852 63.453 40.457 21.031 21.891 43.133 42.871 62.836 65.922 11.484 13.449 26.914 21.613 38.426 35.262 16.195 19.148 28.695 39.918 38.336 62.453 10.602 24.75 20.375 49.977 28.641 75.625 15.02 46.641 6.2383 92.902-5.2734 138.74-4.9453 19.793-7.9766 39.785-9.3906 60.055-0.42188 6.2773 0.91016 13.977-4.5508 17.523-14.703 9.6406-17.566 27.137-27.625 39.891-7.543 9.5469-12.145 21.508-11.578 36.039 0.66016 15.16-8.6367 29.824-9.5977 45.703zm133.66-177.02c-6.5547 40.246-9.6133 80.875-23.379 120.2-11.539 32.887-22.18 66.16-37.582 97.266-11.617 23.5-20.586 48.805-37.82 69.285-5.3125 6.3164-10.469 13.488-22.363 14.02 90.688-161.84 133.41-331.17 90.422-515.33 9.2188 21.23 14.059 42.555 24.328 62.043 9.2031 17.523 4.2734 36.594 3.9297 54.988-0.55469 32.57 7.7539 65.117 2.4648 97.527z"/>
 <path d="m237.19 92.609c1.3438 21.324 23.355 41.75 44.031 40.84 15.559-0.64453 24.422-12.699 23.906-32.387-0.77734-28.324-11.895-48.883-26.57-49.016-17.566-0.17188-42.383 24.16-41.367 40.562z"/>
 <path d="m81.336 180.34c13.938 0 26.742-13.172 26.625-27.48-0.09375-11.027-12.605-23.133-24.371-23.578-15.746-0.60547-23.762 6.9219-23.84 22.324-0.09375 17.562 8.2812 28.707 21.586 28.734z"/>
 <path d="m334.04 78.871c-0.47656 11.117 7.3984 13.953 14.188 15.309 14.23-0.43359 26.043-4.5898 26.98-17.512 0.75-10.484-8.9922-18.355-18.977-20.992-9.5586-2.5078-21.652 11.09-22.191 23.195z"/>
 <path d="m1072.2 1045.1c-0.039062-8.1641-7.7422-10.113-15.031-9.7852-8.4258 0.41016-14.504 3.9414-13.266 13.504 0.96094 7.5703 3.3242 14.742 15.785 14.059 6.6445-2.375 12.562-8.9961 12.512-17.777z"/>
 <path d="m1028.2 195.71c-0.71094 7.1211 2.3594 12.539 10.363 12.199 11.906-0.55469 11.395-11.723 13.082-18.871 1.6484-6.9102-6.1055-7.8984-11.777-8.5586-10.68-0.09375-10.945 8.1328-11.668 15.23z"/>
 <path d="m381.29 16.996c-0.60547 6.2109 4.0234 7.0273 8.8477 6.9219 5.6289-0.13281 10.312-2.1875 10.023-8.4531-0.27734-5.5781-3.8125-9.0742-11.816-8.7031-4.0234 0.85938-6.582 5.1328-7.0547 10.234z"/>
 <path d="m154.2 22.629c0.13281 5.3672 1.8477 10.68 8.1641 10.551 6.0781-0.17188 7.4258-5.7227 8.3359-10.406-0.47656-7.1992-5.7227-8.2812-10.734-8.5039-5.3438-0.17188-5.832 4.3242-5.7656 8.3594z"/>
 <path d="m1062.6 238.56c-0.027344 5.2227 1.793 9.5469 7.3828 9.2852 5.1562-0.22266 7.5703-4.3242 7.6758-9.0859-0.51563-5.9727-4.1133-8.5586-9.0977-8.6094-5.25-0.015625-5.9375 4.125-5.9609 8.4102z"/>
 <path d="m856.11 985.62c-7.1719-0.43359-10.891 4.668-11.078 10.34-0.27734 9.0469 7.9258 10.09 14.504 11.039 5.9609 0.89844 7.4375-3.7695 7.9648-8.9688-1.4727-6.0781-3.5039-11.973-11.391-12.41z"/>
</svg>
