<?xml version="1.0" encoding="UTF-8"?>
<svg width="1200pt" height="1200pt" version="1.1" viewBox="0 0 1200 1200" xmlns="http://www.w3.org/2000/svg">
 <path d="m94.133 418.49c-0.30859 0.20703-0.69141 0.30078-1.1836 0.17969 0.45703-0.007813 0.83984-0.10156 1.1836-0.17969zm235.72-257.46h-0.011718l-0.066406-0.070313c0.023437 0.027344 0.050781 0.050781 0.078124 0.070313zm202.13 952.93c-0.12109 0.015624-0.17969 0.11328-0.28516 0.14844l0.027344-0.40625c0.078125 0.09375 0.17969 0.16406 0.25781 0.25781zm212.51-925.63c2 2.0938 4.4531 1.8945 7.0742 0.76953 4.8516-2.082 7.582-1.1602 10.418 3.0938 1.0977 1.6797 2.5352 3.3047 4.3867 3.7461 4 0.96094 7.1328 3.8203 10.84 4.9883 10.895 3.4141 19.977 10.332 30.266 14.891 5.4531 2.4219 11.203 3.7188 16.047 8.6445 4.2266 4.2734 11.363 6.6406 18.062 7.7852 7.5156 2.8672 12.305 10.609 20.906 11.516 0.26172 0.027344 0.55469 0.30078 0.70312 0.53516 1.7539 2.8867 4.6602 5.043 6.1484 7.8945 1.4609 2.793 3.4062 4.0977 5.9453 5.5 2.3555 1.3047 5.1797 1.832 5.8711 5.9297 0.90234 5.3555 4.5586 7.0742 8.6133 5.8828 6.2852-1.8516 7.7031-0.58203 6.4414 5.8789-0.25781 1.2969-0.88281 3.5625 0.58203 3.4414 4.8828-0.44141 6.1797 3.707 8.5312 6.1719 3.043 3.2109 6.4102 6.4844 7.4531 11.035 0.61719 2.7148 2.5078 4.0039 4.2891 5.8438 3.9883 4.1172 9.7188 5.9766 13.145 10.566 1.5977 2.1289 5.0586 1.1836 5.8359 3.6328 0.98438 3.1211 3.3477 4.9609 5.8086 5.8945 3.8242 1.4883 4.8281 5.4766 7.9375 7.4883 1.4219 0.92578 1.7812 2.9688 1.9805 4.8594 0.40625 3.8672 4.0117 6.3477 4.6797 10.266 0.23438 1.3125 2.0156 1.4414 3.5 0.94141 1.1602-0.39062 2.2656-0.078125 1.9297 1.4688-0.71875 3.3125 2.0938 4.4102 3.8047 6.0625 4.9961 4.8242 8.543 10.766 11.316 16.871 2.0078 4.3906 3.668 8.7383 7.1797 12.129 0.8125 1.0977 2.5664 0.93359 2.8438 3.0352 0.5625 4.6797 1.5469 9.375 6.7188 11.543 0.78516 0.33984 1.5742 1.4023 1.1758 2.2422-2.3867 5.0234 1.4102 7.4609 4.2383 10.199 2.3594 2.3203 3.6719 5.6211 2.9727 8.1797-0.82031 2.9609 0 4.6445 1.668 6.3555 1.9453 2.0352 3.2188 4.4023 3.625 7.0938 0.44922 2.8945 2.1797 4.5195 4.1484 6.5 3.7109 3.7188 8.1016 7.5508 6.0117 13.992-0.26172 0.82812 0.34375 2.0469 0.78516 2.957 1.0391 2.1758 1.125 4.3633 0.042968 6.4766-1.3125 2.5742-0.71875 4.375 2.0312 5.2109 2.7773 0.84766 3.2773 2.6992 3.6602 5.4062 0.52734 3.6641-0.80469 7.7656 2.0977 11.066 2.9766 3.3555 4.6641 7.4023 5.707 11.727 0.042969 0.015625 0.042969 0.050781 0.089844 0.078125-0.21094 0.12891-0.38281 0.20703-0.63281 0.5-0.93359 2.2812 0.015624 4.3398 0.65625 6.5273 2.0078 6.832 5.5703 13.223 5.4062 20.711-0.070313 3.5703 1.1836 6.9492 3.6484 9.918 6.043 7.2617 9.0156 15.348 5.4453 24.805-0.30859 0.8125 0.054687 1.832-0.13672 2.6914-1.1602 4.9258 3.0508 8.8594 2.3594 13.938-0.37891 2.7227-0.74219 5.6016-0.78516 8.4375-0.16406 9.2188 1.4414 18.211 3.5859 27.098 0.39062 1.6367 0.89062 3.2695 0.26953 4.8594-1.3398 3.4688-0.57031 6.7188 0.42188 10.117 1.4102 4.8438 1.7305 9.5742-1.2266 14.293-2.1953 3.4844-2.543 7.4883-1.2109 11.699 1.2305 3.8242 2.457 7.8594 0.74609 11.891-1.6953 4.0195-1.8789 8.2031-1.5508 12.406 0.29688 3.9336-0.19922 7.7734-0.54297 11.664-0.85547 9.5547-2.543 19.039-2.707 28.664 0.14844 0.32812 0.41406 0.48438 0.60547 0.77734-0.40625 0.625-1.0195 1.2109-1.1484 1.8867-1.8242 9.7773-6.1914 18.875-7.6797 28.742-0.20703 1.3633-0.73438 2.4727-1.4102 3.6719-2.9297 5.3789-4.2891 11.406-4.668 17.348-0.23437 3.543-0.74219 6.6836-2.3945 9.7266-2.207 4.0625-3.9961 8.2734-5.3438 12.719-1.5938 5.2227-1.8242 11.156-5 15.562-4.6758 6.4961-6.9336 14.129-10.988 20.855-0.84766 1.3945-1.1055 2.8984-0.43359 4.6875 1.8086 4.8438 0.47656 9.2422-2.4531 13.309-1.2461 1.7188-2.707 3.207-4.5508 4.2695-1.9258 1.125-3.3359 2.6133-3.7344 4.8516-0.43359 2.4375-1.5039 4.4375-3.5781 5.8789-0.84766 0.59766-1.5586 1.4961-1.5391 2.6562 0.09375 5.6641-4.3438 8.793-7.2227 12.789-1.4766 3.6836-3.3086 7.0625-6.8281 9.3125-0.48438 0.32813-0.28516 1.7109-0.48438 2.5664-0.28516 1.168-0.42578 3.1133-1.0742 3.3203-4.4453 1.4102-4.9453 5.8555-7.375 8.75-3.918 4.7148-6.5781 10.188-11.551 14.441-6.1836 5.3359-10.957 12.426-16.941 18.32-7.2266 7.1445-14.43 14.207-22.582 20.25-1.4883 1.125-3.0625 2.1719-5.1797 2.4727-6.3125 0.91797-12.605 1.9805-18.824 3.3984-7.668 1.7148-15.035 4.7656-22.922 5.6211-0.20703 0.11328-0.40625 0.21484-0.59766 0.32812 0.12891-0.25 0.22656-0.52734 0.36328-0.76953-2.3945-1.2344-4.9961-0.5625-7.4961-0.71484-3.0938-0.15625-5.5859 1.9609-8.6914 2.0234-5.9492 0.085937-9.1797 3.0859-10.434 9.4297-3.3906-2.7461-6.0039-2.6719-7.1094 2.0234-0.17969 0.68359-0.96094 1.1758-1.6758 1.4297-6 2.2109-7.9219 7.8594-10.551 12.812-1.168 2.1875-1.7461 4.8867 0.84766 6.9023 0.0625 0.023438 0.10547 0 0.16406 0.023438-1.3906 2.9648-1.3203 5.9414 0.019531 8.9141 0.015625 0.59766 0.023438 1.1875 0.050782 1.793 0.070312 3.6211 1.418 7.1484 0.84766 10.832-1.2305 2.957-1.4453 6.6758-3.9609 8.6914-4.9727 3.9492-9.9336 7.8945-15.996 10.355-4.418 1.8086-8.3789 4.707-12.555 7.1172-7.0664 3.832-14.805 6.7109-19.836 13.531-3.4922 0.63281-5.6875 3.2266-8.1719 5.3984-3.2852-0.0625-6.6133-0.19141-8.9844 2.7227-2.9648 2.1953-6.8359 1.0703-9.9492 2.7148-2.9766 0.49219-6.1562-0.91797-8.9766 0.94141 0.20703 1.4961-0.54297 2.5859-1.3125 3.6836-0.36328-0.058593-0.73828-0.085937-1.125-0.015625-2.793 1.9453-5.6914 3.2422-9.3047 3.1992-2.1172 0-4.9375 0.32812-6.2695 2.082-2.7578 3.6055-6.3789 3.4336-10.168 3.3906-7.3594-0.11328-15.105-2.293-21.227 4.0469-0.035156 0.058594-0.20703 0.12891-0.43359 0.12891-5.6289-0.30078-10.859 2.0078-16.438 2.1719-9.9961 0.30859-19.68 3.8984-29.82 2.957-1.0312-0.085938-1.9648 0.82031-2.9648 0.97656-6.2344 0.94922-12.625 0.11328-18.816 1.6953-0.64062 0.14453-1.4258-0.41797-2.1445-0.60547-2.5234-0.69141-5.1875-1.0195-7.5742-0.078125-3.3984 1.2695-6.8477 0.60547-10.254 0.99219-2.2656 0.26172-4.2656-1.3398-6.625-0.99219-9.7266 1.3906-19.574-2.6914-29.305 0.70703-1.3906 0.48438-2.8359-0.78516-4.2773-1.1641-4.8594-1.3008-9.6406-3.6406-14.883-1.332-1.2539 0.57031-2.6523 0.17969-3.9844-0.15625-11.449-3.0703-23.219-4.4453-34.785-6.8828-4.1094-0.875-8.457 0.99219-12.367-1.4102-2.3594-1.4336-5.0117-2.0078-7.7617-2.0391-10.688-0.19922-20.719-2.6406-29.953-8.1641-2.457-1.4453-5.1719-2.4023-8.0156-2.9727-10.141-1.9922-19.195-7.6445-29.57-8.8906-1.3242-0.12891-2.5273-0.90625-3.6758-1.6523-6.1289-3.8711-13.023-5.3594-20.078-6.1016-3.0781-0.32031-5.707-0.83984-8.1719-3.0547-3.4727-3.0859-6.3125-2.4219-8.9727 1.5039-0.54687 0.82422-1.3398 1.125-2.0508 1.6445-5.4141 3.8477-11.293 2.5156-16.992 1.375-4.7188-0.94141-9.9492-1.625-11.488-7.6875-0.3125-1.3125-1.6602-2.0938-2.6641-2.9922-3.6133-3.207-5.3711-7.4023-5.2656-12.008 0.085937-3.6406-1.4453-4.5078-4.5898-5.2148-4.9805-1.0664-9.8086-3.582-13.016-7.2461-2.5664-2.8984-5.1094-5.3945-8.4297-7.0664-3.4492-1.6914-5.7656-4.332-7.125-7.7812-1.4688-3.8125-4.0469-5.6641-8.1875-5.8516-4.0234-0.17578-7.332-2.3086-8.9766-5.8555-1.4453-3.1641-3.4844-4.5312-6.7266-5.1289-3.4141-0.61328-7.3945-1.582-8.7227-4.8594-1.4375-3.5078-3.8164-5.9297-6.125-8.6367-1.9531-2.2578-3.8984-4.5742-5.332-7.2461-3.3984-6.293-7.5234-11.898-14.02-15.348-0.69141-0.36328-1.25-0.77734-1.5469-1.5469-3.5352-8.8984-10.781-14.285-18.504-19.145-3.3359-2.0742-6.2852-4.0625-7.8398-8.1719-1.6445-4.2891-4.1797-8.2305-4.6875-13.004-0.15625-1.5898-0.92578-3.2852-2.25-4.332-7.1562-5.793-7.7617-15.234-12.457-22.465-2.4492-3.7344-4.2969-7.9453-7.8789-10.711-2.5781-2.0078-3.6133-4.2305-3.3984-7.3242 0.21875-3.0273-0.90625-5.3516-3.1562-7.5469-4.3477-4.2734-6.7617-9.7461-8.5781-15.523-2.3594-7.4336-5.2461-14.742-8.7734-21.641-2.7578-5.3945-4.6602-11.414-9.2617-15.84-1.2109-1.1523-0.80469-3.1328-0.94141-4.7578-0.14063-1.7266 0.38672-3.7266-1.7305-4.7383-0.12109 0.085937-0.24219 0.18359-0.37109 0.27734v-0.007812c-2.1094-2.5156-0.42578-5.5508-1.0898-8.2578-1.7031-6.8477-4.4609-13.273-5.6289-20.422-1.4453-8.9062-8.5156-16.602-7.0742-26.52 0.019532-0.14062-0.13672-0.26953-0.16406-0.42578-1.7539-6.1211-1.5391-12.547-2.6641-18.719-0.90625-5-0.015625-10.109-1.918-15.125-0.8125-2.1328-3.9766-3.1211-2.7305-6.5 1.7344-4.5742 1.2617-9.3555-2.3281-13.039-2.2227-2.293-2.4023-4.0742-0.54297-6.5898 1.875-2.5781 3.0781-5.3008 1.0977-8.6289-0.75391-1.2695-0.39062-3.2344-0.39062-4.875 0.019531-2.8281-0.09375-5.4648-1.5195-8.1914-2.5781-4.918-2.7617-10.434-1.1094-15.668 1.4375-4.4961 0.96875-8.7383-1.0039-12.633-2.6445-5.2031-1.8047-10.277-1.207-15.656 0.65625-6.0195 3.1016-11.52 3.5352-17.77 0.5625-8.1641-1.7461-16.68 2.0156-24.609 0.50781-1.0703-0.28516-2.3516-0.91797-3.3789-1.0898-1.7891-2.1367-3.625-3.3633-5.3203-0.92578-1.3125-0.85547-2.5156 0.69141-2.7305 6.0078-0.76953 5.6016-5.1211 5.5352-9.3828-0.085937-4.0625 0.24219-7.6758 3.6289-10.965 2.5703-2.4727 3.832-6.1133 2.9766-10.332-0.64844-3.1445-0.64844-6.7852 1.1055-9.7539 2.9414-4.9883 4.7305-10.625 4.6016-16.02-0.14062-5.0586 2.0742-7.9141 4.5742-11.508 2.0039-2.9062 4.9961-5.4414 4.9961-9.7188 0-7.0664 3.7773-13.387 4.5938-20.363 0.20703-1.7461 1.4336-4.0664 2.8867-4.8359 3.3984-1.7695 4.0898-4.7383 4.9805-7.875 1.4336-5.1367 2.4375-10.508 4.6953-15.27 3.1289-6.6055 8.6016-11.906 11.402-18.801 0.55469-1.3047 1.9727-1.8828 2.6992-2.8672 2.3008-3.1055 6.9258-3.9375 7.957-8.0703 1.3633-5.4531 3.0234-10.402 7.0039-14.93 2.5391-2.8828 3.8125-7.0586 7.2773-9.5234 0.32031-0.23047 0.49219-0.75781 0.59766-1.1914 0.84766-3.6406 3.4141-5.8359 6.3477-7.7656 1.4883-0.85547 2.3867-2.0742 2.8281-3.8047 0.26562-1.0898 0.97656-2.793 1.7383-2.9375 6.6836-1.2812 8.3594-7.6172 12.008-11.828 2.707-3.0781 4.5469-6.8945 6.7891-10.379 4.3984-5.2656 9.7422-9.7695 12.711-16.152-0.054688-0.49219 0.10938-1.0352 0.32031-1.5898-0.011719 0.52734-0.22656 1.0742-0.32031 1.5898 3.3633-0.99219 7.2344-0.99219 9.2695-4.582 1.0703-1.8828 3.1797-2.7227 4.3555-4.082 3.4492-3.9922 6.4414-8.3594 10.539-11.785 0.25391-0.19922 0.11328-0.85547 0.14844-1.3047 4.1758-3.3281 8.3359-6.6641 12.504-9.9844 6.3047-6.625 13.188-12.559 20.848-17.555 2.5586-1.668 4.7383-3.875 6.2227-6.3477 4.0742-6.7773 11.094-10.27 16.664-15.32 6.5195-5.9141 15.625-8.8008 20.18-17.234 0.57031-1.043 2.6484-1.9258 3.9258-1.8125 5.7773 0.55078 8.7695-3.7891 12.641-6.6328 0.33203-0.26172 0.64062-0.54687 0.96094-0.80469 1.6797-0.57031 3.3555-1.0977 5.1719-1.0469 1.7188 0.042969 3.6641 0.32031 4.4883-1.9023h-0.019532 0.007813c0.66016-0.59766 1.3086-1.1836 1.957-1.7734 5.3164-3.3633 11.457-5.5586 15.371-10.918 1.1875 0.15234 1.8359-0.78906 2.7422-1.2305 4.1328-2.0586 6.7188-7.3555 12.512-6.0156 0.44141 0.09375 1.0195-0.53906 1.5547-0.78906 5.4414-2.6719 11.527-4.0625 16.301-8.0508 3-2.4883 6.7617-2.3945 10.238-3.25 0.50781 0.007813 1.0703-0.12109 1.7031-0.45703l0.015625-0.019531c2.5078-1.6484 5.7617 0.29688 8.1992-1.7188 2.2031-2.3008 4.9375-3.1211 8.0586-2.8203 1.4336-0.32813 2.8281-1.1133 3.9844-1.7891 4.1406-2.4102 9.0469-1.4258 13.246-3.457 3.4766-1.6875 7.3594-2.1992 11.129-3.0625 4.668-1.0625 11.242 0.33594 12.668-6.9766 0.14844-0.69141 1.0547-0.58203 1.5117-0.18359 1.8516 1.6602 3.5273 0.5625 4.7734-0.60547 2.9219-2.8008 5.9492-2.9375 9.2266-0.94141 3.8398 2.3594 7.0117 1.9297 10.461-1.2109 2.2656-2.0742 5.6289-2.6445 8.875-2.4648 2.418-0.27734 5.1094 1.8945 7.2422-0.82031 6.0547 0.035156 12.082-1.6094 18.16-0.09375 2.2734 0.5625 4.4258-0.16406 6.1914-1.7734 1.375 1.0391 2.957 0.87109 4.5391 0.89844 0.65625 0.24219 1.4102 0.47656 1.9531 0.44922 5.2148 1.2539 10.652 1.1836 15.469-0.22266 4.0195-1.168 8.0156-0.64062 11.941-1.4531 2.3594-0.51172 5.0938-1.8594 8.3711-1.0195 4.625 1.1914 9.6484 1.2422 14.48 2.1602 2.5938 0.48438 5.6289 0.8125 8.2695-0.75391 2.1328 0.10547 4.1914-0.33594 6.1875-1.0117 4.2812-0.10156 8.6562-0.078125 12.66 1.2656 3.2148 1.0781 6.3125 1.6055 9.6133 1.5039 1.6719-0.054688 3.1406 0.38672 4.7305 0.97656 3.8906 1.4258 7.957 2.5312 12.203 1.2617 2.2539-0.68359 4.168-0.007813 6.3789 0.89062 4.4531 1.8164 9.2109 3.25 14.164 1.4805 2.0938-0.16406 2.7422 2.1094 4.4336 2.625 1.2891 0.66797 2.3555 1.5742 3.9609 1.8281 5.2852 0.82031 10.574 1.1484 15.902 0.84375 0.82031 0.33203 1.6523 0.66797 2.5 0.99609 0.57812 2.082 2.168 3.3125 3.7773 4.5312 1.7109 1.418 3.4492-0.61328 5.1719 0.015625-0.085938 0.14844-0.23438 0.23438-0.30469 0.40625-0.37891 3.1055 2 3.4062 4.0469 3.6406 2.3086 0.24219 4.2891 0.69141 6 2.5zm134.07 34.914s-0.007813 0-0.007813 0.007812v-0.007812zm13.551 8.0781h-0.042969c-0.007812-0.019531-0.027344-0.035157-0.027344-0.0625 0.019532 0.027343 0.050782 0.035156 0.070313 0.0625zm163.39 490.17c-0.0625-0.10547-0.12891-0.25391-0.19141-0.37109 0.11328 0.09375 0.24219 0.15234 0.35547 0.23828-0.070312 0.046875-0.10547 0.089844-0.16406 0.13281zm-59.617-368.55c0.058594 0.078126 0.13672 0.11328 0.19922 0.17578-0.078125 0.023437-0.14844 0.066406-0.22656 0.10938 0.007812-0.10156 0.007812-0.17188 0.027343-0.28516zm62.469 65.414c-0.023437-0.027344-0.058593-0.042969-0.09375-0.0625 0.027344-0.015625 0.050782-0.035156 0.085938-0.050781 0.007812 0.042968 0 0.070312 0.007812 0.11328zm7.9922 26.898c-0.0625-0.019531-0.12109-0.035156-0.18359-0.0625 0.007813-0.10156 0.027344-0.21484 0.042969-0.30859 0.054687 0.11328 0.070313 0.25781 0.14062 0.37109zm-4.5742-8.1289c0.015625-0.015625 0.042969-0.023437 0.058594-0.042968-0.007813 0.027343-0.015625 0.019531-0.015625 0.042968 0.007812 0 0.015625 0.007813 0.023438 0.007813-0.015626 0.011719-0.023438 0.019531-0.03125 0.027343v-0.015624c-0.011719-0.011719-0.027344-0.019532-0.035157-0.019532zm3.6406 16.266c-0.035156 0-0.0625-0.007812-0.097656-0.007812 0.027344-0.019531 0.054688-0.054688 0.078125-0.078125 0 0.023437 0.007813 0.042968 0.019531 0.066406h0.066406c-0.015624 0.027344-0.015624 0.0625-0.03125 0.089844-0.011718-0.027344-0.035156-0.046875-0.035156-0.070313zm-16.145-41.547-0.12109 0.023438c0.035157-0.050782 0.085938-0.074219 0.11328-0.12891 0 0.035156 0 0.078124 0.007813 0.10547zm17.086 63.199c-0.027343 0.03125-0.0625 0.074219-0.09375 0.12109 0-0.019531 0.015626-0.035157 0.015626-0.054688 0.007812-0.007812 0.050781-0.050781 0.042968-0.050781h0.019532c0-0.007812 0.007812-0.007812 0.007812-0.015625h-0.007812c-0.011719 0 0.015624-0.027344 0.007812-0.027344v0.027344zm-15.383 287.76c0.050781 0.042968 0.12109 0.09375 0.18359 0.13672l-0.18359 0.078125c0.027344 0.070313 0.050781 0.14844 0.070312 0.22656-0.054687-0.035156-0.10547-0.0625-0.16406-0.085938 0.042969-0.042968 0.042969-0.085937 0.09375-0.14062zm-41.434 99.852c0.14453 0.023438 0.25781 0.050781 0.39844 0.078125-0.042969 0.050781-0.078125 0.12109-0.12109 0.16406-0.097656-0.078126-0.14844-0.15625-0.27734-0.24219zm-818.7-524.39c0.03125 0.035156 0.058594 0.042969 0.09375 0.066406-0.035156 0-0.050782 0.027344-0.078125 0.027344v-0.027344c0.007812-0.023437-0.015625-0.03125-0.015625-0.066406zm-52.598 5.2461c-0.20703-0.25-0.46875-0.55078-0.83203-0.85547 0.5625 0.12891 0.8125 0.43359 0.83203 0.85547zm147.36-150.83c0.007812-0.12109-0.027344-0.22266-0.019531-0.32813 0.046874 0.097657 0.078124 0.20703 0.13281 0.32031-0.042969 0-0.078125 0.007813-0.11328 0.007813zm-189.54 564.62c0.007812 0.050781 0.035156 0.12109 0.050781 0.19141-0.10156-0.042969-0.17188-0.11328-0.27734-0.14062 0.089843-0.023437 0.14062-0.015625 0.22656-0.050781zm32.398 36.637c-0.050782-0.078125-0.035157-0.19922-0.085938-0.26172h0.23438c-0.070313 0.078125-0.085937 0.16406-0.14844 0.26172zm-12.383-363.36c0.19922-0.54297 0.32812-1.2266 0.46094-1.9336 0.97656 0.52734 0.66406 1.1914-0.46094 1.9336zm-21.805 97.355c-0.035157-0.089844 0.007812-0.16797-0.050782-0.25391 0.10938-0.035156 0.20703-0.058593 0.31641-0.09375-0.12109 0.11328-0.16406 0.24219-0.26562 0.34766zm0.76953 58.164v0.007812c0-0.007812 0-0.007812-0.007813-0.015624h0.007813zm11.379-41.012c-0.24219 0.14062-0.50391 0.14844-0.77734 0.042969 0.24219-0.023438 0.55859 0 0.77734-0.042969zm-9.3477 134.85c-0.007813-0.015625 0-0.042969-0.007813-0.058594 0.023438 0.015625 0.042969 0.027344 0.058594 0.042969-0.015625 0.007812-0.035156 0.007812-0.050781 0.015625zm9.5977-134.96c-0.027344 0.027344-0.058594 0.027344-0.085937 0.042969 0.035156-0.007813 0.050781-0.03125 0.085937-0.042969zm-0.11328-18.184c0.019531-0.15625-0.007813-0.23047-0.007813-0.35156 0.09375 0.050781 0.16406 0.042968 0.26953 0.12109-0.13281 0.066406-0.14844 0.16406-0.26172 0.23047zm-34.672 20.855c-0.34766-0.29297-0.62109-0.62891-0.99609-0.89062 0.38281 0.21875 0.67578 0.57031 0.99609 0.89062zm56.957-158.73c0.16406-0.13672 0.35156-0.25 0.53516-0.38672-0.14844 0.19922-0.32812 0.32812-0.53516 0.38672zm30.289-79.055v0.007813h-0.011718s0.011718 0 0.011718-0.007813zm26.969-58.043c-0.10547-0.41797 0.09375-0.67578 0.45703-0.86719-0.19922 0.24219-0.29297 0.57031-0.45703 0.86719zm-25.363 77.887c0.0625-0.007812 0.11328 0 0.17578 0-0.019531 0.078126-0.078124 0.12891-0.11328 0.20703-0.019531-0.078125-0.054687-0.13672-0.0625-0.20703zm11.684-39.559c0.023437 0.12891 0.078125 0.19922 0.09375 0.32031-0.11328-0.085937-0.19922-0.070312-0.32031-0.15625 0.085938-0.042969 0.15625-0.10156 0.22656-0.16406zm12.434 30.988c0.070312 0.15625 0.085937 0.29688 0.10156 0.44141-0.015625-0.12891-0.078125-0.30078-0.10156-0.44141zm77.566-46.906c-0.085937 0.078125-0.15234 0.12109-0.22266 0.19141-0.007813-0.070312 0.007812-0.16406 0-0.22656 0.078125 0.007812 0.12891 0.035156 0.22266 0.035156zm159.41-130.48c-0.007812 0.007813-0.027343 0.015625-0.035156 0.023437v0.007813c-0.007813 0-0.007813 0.011719-0.015625 0.011719-0.019531-0.011719-0.042969 0-0.070312-0.019532 0.050781-0.050781 0.11328-0.078124 0.15625-0.13672 0 0.042968-0.027344 0.066406-0.035157 0.11328zm30.359-3.3047c0.050782-0.015626 0.09375-0.015626 0.13672-0.035157 0.007813 0.035157 0.027344 0.042969 0.035156 0.070313-0.050781-0.007813-0.11328-0.019532-0.17188-0.035156zm-85.16 72.762c-0.007812-0.09375-0.054688-0.14844-0.070312-0.22656 0.10547 0.027344 0.18359 0.042968 0.30469 0.070312v0.015625c-0.097656 0.054688-0.14844 0.089844-0.23438 0.14062zm186.56-91.949c-0.007813-0.007813-0.015625-0.007813-0.015625-0.015626h0.023437c0 0.007813-0.007812 0.007813-0.007812 0.015626zm133.55 23.504c-0.32812-0.29688-0.52734-0.73828-0.64062-1.2227 0.18359 0.41797 0.40625 0.82422 0.64062 1.2227zm-29.172 983.49c0.015625 0.058594 0.027344 0.11719 0.042968 0.17578-0.77734 4.8047-3.6758 6.8047-7.8242 6.5508-1.0312 0.76562-2.6797 1.2188-5.3203 1.1758-2.0586-0.019531-3.4102 0.56641-3.375 2.1055 0.015625 1.1914 2.6562 2.7891-0.63281 3.4922-3.2383 0.66406-5.4531-1.0938-6.3125-2.6094-1.707-2.9883-12.82-4.1367-4.5039-9.168 0.98438-4.8594 9.8672-6.8672 10.148-12.129 0.027344-0.96094 2.2148-1.0859 3.9375-0.84375-0.32812-0.15234-0.66797-0.29297-1.0156-0.42578-2.2305-0.83594-4.6094-1.1055-5.9062-3.5859-0.44922-0.83203-1.8594-1.7148-2.6641-0.60547-3.6914 5.0469-10.715 4.9688-14.516 10.027 0.78516 2.0234 4.3203-0.57031 4.8125 2.3867 0.41016 2.5-0.69922 4.7227-1.2188 7.0312-0.23047 1.125-0.90625 2.5156-2.4609 1.9297-1.1797-0.42578-2.6836-1.0664-1.6289-2.9141 0.070312-0.14062 0.25391-0.34766 0.22656-0.39062-2.1875-2.6289-3.9766-5.9141-6.7344-7.5664-1.4375-0.86328-2.4297 3.5273-5.1914 4.1523-2.5039 0.59375-3.6992 2.5586-1.6133 5.1328 0.37891 0.46094 0.52734 1.1875-0.18359 1.5508-1.0273 0.5-2.1094 0.37891-2.9219-0.42578-2.1094-2.1172-4.1328-4.3047-6.207-6.5-1.0664-0.36328-2.4648-1.6367-3.1562-0.19141-1.168 2.4648 1.8398 2.9727 2.8594 4.7656-2.7578 1.832-5.8438 1.9883-8.9141 1.6758-2.7227-0.25-5.5234-0.85547-2.957-4.7031 0.69922-1.0469 0.8125-2.4141-0.44141-3.1836-1.2461-0.80469-2.4727-2.0469-4.0547-1.5469-1.4258 0.44141-2.0664 1.5039-1.5391 3.1836 0.42578 1.332-0.64062 2.2305-1.582 2.9922-0.79688 0.64844-1.6094 1.1562-1.875 2.3594-0.39063 1.7188 1.9258 4.3906-0.27734 4.8516-4.8672 1.043-8.6289 5.5859-14.27 4.1133-4.9609-1.2773-10.125-0.50781-15.191-0.76953-2.9492-0.14453-5.6445 0.3125-7.9453-2.7227-2.2227-2.8789-6.5898-3.1992-9.7461-3.3125-4.9883-0.17188-10.062-0.49219-14.344-2.4219-5.3164-2.3672-11.82-0.13672-16.383-4.7266-0.49609-0.50391-1.8789-0.57031-2.5781-0.25391-8.3359 3.8594-14.641-0.12891-20.535-5.332-2.4141-2.1211-4.8008-2.1016-7.4375-0.85547-6.0508 2.8359-11.48-0.19922-16.98-1.9141-1.1172-0.36328-2.1367-1.4062-3.2539-0.58594-2.8672 2.1094-5.1602 1.0273-7.0469-1.2461-3.6055-4.3047-9.5547-4.668-13.582-8.293-1.9883-1.7695-3.4062 0.61328-4.582 1.5234-5.7266 4.5547-7.0469 4.7539-12.98 0.66406-0.25-0.12109-0.41406-0.45703-0.69141-0.54297-2.75-1.0469-5.3008-4.668-7.8945 0.93359-1.832 3.9609-5.6992 0.91797-8.8281 0.53516-7.875-0.92578-11.57-8.9297-18.926-10.723-2.1289-0.50781-1.2539-3.0859-1.4023-4.7969-0.14453-1.5469 0.52734-3.4141-2.0156-3.8242-1.7617-0.30078-3.4414-1.1914-4.5273 1.2305-0.73828 1.6172-1.8438 1.332-3.2695 0.37891-3.207-2.168-7.6172-1.2969-10.074 1.7109-2.0742 2.5625-7.2188 1.9141-8.3945-1.1406-0.70313-1.832-1.4453-3.5273-2.9141-4.9531-3.9766-3.8125-4.3672-9.4258-6.668-14.113-0.69141-1.3906-0.55469-3.2227-0.99219-4.7812-1.4453-5.3086-3.0703-5.9727-7.9375-3.6836-1.8086 0.85937-4.1875 3.1484-5.6289 1.3516-1.4219-1.7461-2.6562-4.7305-0.65234-7.3945 0.78125-1.0547 0.71875-2.082 0.19922-3.3555-2.3398-5.8008-4.5469-11.656-6.8047-17.492l0.011719-0.007812c-1.1953-1.0039-0.75391-3.1484-2.6289-3.6992-1.2969-1.2617-2.793-2.9219-4.2305-0.36328-1.832 3.2578-3.9844 2.1953-5.8633 0.49219-1.7461-1.5586-2.9102-1.8164-4.9531-0.36328-3.3633 2.4023-7.2969 1.1055-9.2344-2.6289-0.28516-0.51953-0.25781-1.4453-0.64062-1.6445-4.4102-2.1172-3.9922-6.1719-4.3242-10.047-0.13672-1.6172-1.6133-2.3594-3.2734-2.5742-4.0312-0.51172-7.6523-1.332-9.3828-5.957-0.625-1.7031-1.2109-2.6406-0.078125-4.2891 1.0898-1.5938 0.32031-3.1758-1.1328-4.332-1.625-1.2617-2.5156 0.14453-3.3633 1.0898-1.3477 1.4961-2.957 1.8477-4.8594 1.7891-3.832-0.12109-4.7891 1.7539-3.3906 5.1445 0.625 1.5195 1.3594 3.0078 1.7812 4.6172 0.71094 2.6445-1.9453 3.1641-3.293 4.0547-1.6523 1.0625-1.8438-0.90625-2.5078-2.0586-1.6602-2.8789-2.3164-6.2148-4.4531-8.8984-1.9727-2.4961 0.042968-3.7578 2.1445-4.5977 5.2734-2.1172 5.8438-4.4023 2.3008-8.8477-1.6719-2.1172-2.5859-4.4258-0.83984-7.0273 1.332-2.0312 0.3125-3.918-0.99609-5.2305-1.3555-1.3945-3.2852-2.2148-5.3438-0.95312-0.75781 0.44922-1.5625 0.8125-2.3594 1.2383-3.2578 1.7031-5.9219 2.707-4.9102-2.9922 0.64062-3.4766-3.1641-3.9883-4.8594-5.8555-1.5469-1.6953-2.9336 0.26953-4.1602 1.2383-0.96094 0.76172-2.1953 1.8828-3.1289 0.80469-4.0742-4.6523-10.359-7.5312-11.805-14.363-0.17969-0.79688-0.33594-1.5664 0.39063-1.9961 0.69141-0.44141 1.418-0.14062 2.082 0.30078 1.1602 0.78906 1.9375 2.6133 3.7734 1.6445 0.79297-0.42578 0.72656-1.4531 0.20703-1.9805-1.2812-1.3242-2.1797-4.0664-4.3594-3.1406-3.8906 1.6875-4.1758-1.2695-5.2031-3.3867-0.66016-1.3516-1.0469-3.1133-3.0195-2.6484-2.1797 0.46094-1.0195 1.9805-0.73438 3.2188 0.3125 1.3906-0.29297 2.6367-1.6523 2.7305-2.9141 0.16406-5.1953 1.0469-6.4844 3.9258-0.36328 0.8125-1.2812 0.47656-1.9102-0.035156-0.70312-0.57812-1.4297-1.5898-2.1367-1.5625-4.6602 0.03125-4.8164-2.2422-3-5.8906-2.3359 1.7734-5.8125 1.4258-6.625 5.0312-0.29297 1.332-1.8398 1.8164-2.9727 1.2891-2.7852-1.3047-4.668 1.5156-7.2188 1.2812-1.082-0.070313-1.2109 1.1836-0.86719 2.1172 0.44141 1.1406 0.93359 2.3594 0.26172 3.4688-1.0039 1.6758-1.0039 4.918-3.5625 4.4961-2.6641-0.40625-0.85937-2.8789-0.70312-4.4961 0.18359-1.7305-0.69922-3.0547-2.168-3.582-1.9727-0.70703-4.2891-1.1055-5.9766 0.44141-1.1484 1.0469-2.2812 2.4219-2.4453 4.168-0.019532 0.25 0.23438 0.74609 0.36328 0.76953 7.7305 0.46094 0.69141 5.9844 2.8516 8.6719 1.0117 1.2383-1.1406 2.8477-3.0859 2.6406-2.2734-0.26172-4.9297-0.76953-4.6445-3.7031 0.20703-2.3164-0.30078-3.0586-2.3672-3.875-2.207-0.85547-3.1641-2.9141-1.5938-5.1445 0.98828-1.3906 0.83203-2.2891-0.25-3.4922-1.2422-1.4258-2.3594-1.2617-3.9258-0.59766-4.7891 2.1211-5.168 1.8164-6.707-3.2578-0.74609-2.457-1.6094-4.8594-2.6484-7.168-0.51562-1.168-1.5391-2.8789-3.0078-2.0312-4.9961 2.7578-4.6094-1.5156-4.8242-3.8672-0.24219-2.7578-1.2734-4.7969-3.5273-5.8164-7.5938-3.4609-9.9805-11.355-14.996-16.992-1.8828-2.1172-1.5547-5.1367-2.6523-7.5312-2.9219-6.3711-7.8594-11.25-12.746-16.102-1.2031-1.1758-2.6367-1.9805-2.0586-4.0547 0.49609-1.7188-0.95703-2.8164-1.8242-3.9062-3.457-4.4297-5.6953-9.3125-6.6992-14.891-0.46094-2.5-2.4727-4.3906-4.2617-6.2188-3.418-3.5078-5.8203-7.3203-5.6484-12.684 0.18359-5.3359-4.2539-8.9844-6.4336-13.469-1.1328-2.3555-2.707-4.4531-3.4648-7.1016-0.70312-2.4219-1.5938-5.0742-3.2344-6.8633-2.6367-2.8203-3.7891-5.6211-2.4922-9.3242 0.58203-1.6602-0.83594-2.4375-1.7617-3.3359-2.4141-2.3242-4.0039-4.7461-2.543-8.3711 0.57031-1.4258 0.58594-3.293-0.64844-4.7109-5.9766-6.7617-7.8008-15.234-9.7188-23.656-0.35547-1.582-0.78906-3.3555 1.9609-3.418 2.4219-0.078125 2.9141-1.8477 1.5508-3.3359-1.8789-1.9961-2.0938-4.1953-1.9648-6.6328 0.09375-1.7305-0.76172-2.8164-2.293-3.4766-3.3789-1.4062-4.625-3.957-5.4102-7.5469-1.3242-6.0781-4.3164-11.777-4.1523-18.227 0.019531-0.26172-0.10156-0.64062-0.28516-0.83984-4.375-4.875-0.70703-9.8047-0.69141-14.758 0.035156-6.4258 2.9844-13.82-2.2109-19.891-2.3789-2.7578-0.25391-6.5859-2.0781-9.4492-2.3008-3.5977-0.8125-6.3125 1.7148-8.9492 0.82812-0.84766 2.0039-2.3359 1.207-3.1133-3.3359-3.2695-2.2383-7.6523-2.6523-11.352-0.44141-3.8555-3.0625-7.7812-0.875-11.828 1.1094-2.0156-0.066406-3.8672-0.41406-5.6641-1.1836-6.4336 1.832-12.805 0.17188-19.238-0.27344-1.0039 0.19141-2.5586 0.90234-3.3633 2.8672-3.3203 4.8477-6.4258 0.76953-10.336-1.1523-1.1055 0.45703-2.4023 0.8125-3.6484 0.80469-2.7383 3-5.4883-0.46875-8.3242-1.1055-0.89844-1.5039-3.8242-0.96875-5.3438 2.1875-6.1328 0.48438-12.66 2.3281-18.816 1.0703-3.5781-2.207-6.6133-1.8867-10.383 0.49219-5.6836 0.89844-11.293 4.7891-15.809 1.4609-1.6836 1.5938-2.5938 0.19141-4.4961-3.4766-4.7383-2.6445-9.3203 1.9961-12.918 1.168-0.89844 1.6172-1.6523 0.76172-2.957-3.9258-5.9219-1.832-12.051-0.47656-18.113 0.19922-0.95312 1.2812-1.7461 0.86719-2.8789-1.9531-5.4141 2.1172-9.2266 3.8477-13.543 1.1758-2.9375 2.6445-5.1797 0.38672-8.2109-2.1875-2.9258-0.058594-5.043 2.4648-4.8945 5.7422 0.34375 4.0664-3.5117 3.1211-5.6406-1.9023-4.3047-2.8516-8.0469 0.72656-11.938 1.4531-1.5664-1.0273-3.7031 0.52734-5.9258 1.9375-2.7734 4.0039-4.2969 7.4102-3.8398-0.16406-1.9688-1.832-2.5391-2.6367-3.7344-1.7188-2.5586-4.4336-5.0938 0.34766-7.4766 1.3984-0.71094 1.7266-2.2227 1.3828-3.9375-0.86328-4.2266-0.070312-7.4883 4.5391-9.4492 2.1445-0.92578 3.6406-2.7852 3.9414-6.1992 0.25391-2.7578 0.50391-5.9141 1.2383-8.75 0.82031-3.2422 1.6328-6.1133-1.5547-8.5-0.58203-0.41406-1.2305-1.6875-0.59766-1.832 3.3555-0.8125 3.9062-4.957 7.1914-5.8047 0.98047-0.25781 2.3789-0.61328 2.7344-1.3398 3.2422-6.8398 11.465-8.3359 15.254-14.395 2.0742-3.3203 3.3516-7.1602 4.9805-10.758 0.35156-0.78516 0.58594-2.0664 1.1641-2.2812 4.8594-1.793 4.3242-5.7773 4.2812-9.6836-0.027344-1.6602 0.33594-3.9375 2.6992-2.5078 2.7227 1.6055 3.1641-0.48438 4.582-1.7305 4.4609-3.9102 3.3906-10.219 6.6484-14.598-3.2852-6.3203 1.7539-6.9258 5.5859-9.457 3.0508-2.0234 4.168-6.5195 1.918-10.594-0.60156-1.0977-1.0117-2.2383 0.035156-3.3008 1.0469-1.082 2.2422-0.79687 3.2852-0.097656 2.6211 1.7812 4.7227 0.18359 6.5195-1.2344 2.0781-1.625 1.3945-4.1758 0.80469-6.2852-1.4531-5.4414 0.83203-8.7266 6.4844-8.6914 2.293 0.007812 2.9141-1.1758 2.8906-3.0625-0.019531-3.0586 0.82812-4.5391 4.3398-3.3711 2.8867 0.94141 4.2891 0.027344 3.1211-3.4219-0.74219-2.1641-0.35547-4.4375-1.7539-6.7539-1.8086-3 2.6016-1.5586 3.3086-3.1211-0.21484-4.0547 1.1445-8.3438-2.8242-11.691-1.6172-1.3594-0.57031-3.1719 1.5195-3.5117 1.2891-0.20703 2.6914 0.054687 3.9766 0.33984 1.6445 0.37109 3.5977 1.1758 4.5859-0.39062 1.043-1.6953-1.0898-2.543-2.1641-3.3125-1.7617-1.2539-1.2266-2.5938 0.10547-3.0703 2.4219-0.87109 2.4453-2.7305 2.9922-4.6836 0.64844-2.2422 1.6328-4.5312 4.2891-5.3281 0.5625-0.17187 1.2617-0.44141 1.5195-0.88281 3.832-6.1797 11.078-9.1133 14.742-15.535 1.1328-1.9648 3.3125-3.3906 5.1445-4.9023 1.8672-1.5586 1.9648-3.3555-0.007813-4.332-4.3672-2.1797-1.9258-4.9297-0.15625-6.2773 2.707-2.0586 3.8477-4.8164 5-7.5859 0.94141-2.2539 1.9258-2.5234 4.0703-1.8164 4.7578 1.5508 6.7617 0.12109 6.8477-4.8242 0.042969-3.2227 1.0547-5.2383 4.6172-5.2227 1.0117 0 2.8359-0.15625 2.3711-1.2617-2.1016-4.832 3.8984-5.8281 4.2695-9.5625 0.14063-1.4883 1.8945-0.58984 2.9141 0.11328 3.4336 2.3945 6.0547 2.8594 10.309 0.023437 4.3594-2.9023 10.523-4.1484 15.781-0.10938 1.1055 0.84766 2.125 0.94141 3.3203 0.30859 0.66406-0.35156 1.5469-1.0703 2.0117-0.87891 2.9844 1.1992 6.1836 3.457 5.8984-2.707-0.035157-0.46094 1.9375-0.32031 2.6992 1.1055 2.4023 4.582 7.1484 5.0508 10.762 1.2461 1.8594-1.9648 0.42578-2.8281-1.1055-3.7266-1.5039-0.89844-4.4453-2.0156-3.6836-3.2773 1.3828-2.293 2.0508-5.2578 4.5938-6.8047 1.625-1.0039 2.5508 0.1875 3.4141 1.1836 1.6328 1.9023 3.5703 1.582 4.3828-0.23438 1.9219-4.2891 5.207-8.5664 1.8594-13.668-0.26953-0.41797-0.12891-1.0977-0.17969-1.6602 1.9258-0.90234 2.3594 1.0703 3.5078 1.4414 1.4609 0.47656 3.5117 1.6953 2.9219-1.5898-0.20703-1.1758-0.25-2.2227 1.2969-2.1719 1.2305 0.046874 1.9023 0.98047 1.9219 2.1211 0 0.86328-0.22656 1.7891-0.57812 2.5742-0.64063 1.4023-1.3086 2.7148-0.12109 4.168 0.67969 0.875 1.6055 1.0664 2.3516 0.43359 1.4336-1.2266 3.4141-2.1719 3.543-4.375 0.39844-6.1914 0.43359-6.1406 6.9258-5.2852 2.1797 0.29688 4.9453 1.2383 6.0547-2.125 0.78516-2.3164 1.5977-4.9219 4.9258-3.6133 1.9727 0.77734 1.6875 2.8008-0.66406 6.0508 3.2422 0.78906 6.4336 0.10547 9.6758-0.085937 5.2305-0.32031 2.8867-5.8086 5.4375-7.9531 1.7891 1.7031-1.9102 4.0273 0.96094 4.7812 2.8438 0.74219 5.9141 1.0898 8.7344-0.38281 0.91406-0.46484 1.6484-1.2891 2.4727-1.9453h-0.011718c2.3633-2.168 1.6094-5.6289 3.3984-8.1367 0.78125-1.0898-0.57031-2.1094-1.6836-2.7148-1.1758-0.64062-2.2305-0.93359-3.1406 0.39062-0.64062 0.94922-1.0352 2.4883-2.5938 1.9531-1.2617-0.44922-2.5742-1.4961-2.6445-2.8359-0.11328-1.9297 1.7031-1.082 2.7148-1.2344 4.7734-0.70312 9.0703-2.0508 11.164-7.0391 0.84766-2.043 2.4531-3.1406 4.5625-3.4062 0.72656 1.6172-0.27734 2.0742-0.83594 2.6719-1.1953 1.2344-2.5352 2.3828-0.57031 4.043 1.6836 1.4023 3.9336 1.5742 4.7031-0.23047 3.7188-8.7266 12.137-4.2305 18.055-6.6055 1.4766-0.59766 3.543 1.1641 5.7656 1.3203 5.4219 0.37109 9.0352-3.4336 13.715-4.582 1.3984-0.33594 1.7891-1.5117 0.72656-2.8008-0.55469-0.69922-1.332-1.3047-1.6602-2.1016-0.94531-2.2031-3.5547-4.2266-1.6445-6.8984 1.8164-2.5625 4.5664-1.6016 7.0039-0.91797 1.2969 0.35547 2.5156 0.20703 3.3906-0.57812 1.5977-1.4375 2.4805-4.1094 5.5664-2.0664 0.49219 0.32812 3.2344-1.125 1.375-2.9336-1.4688-1.4258-1.2773-2.1172 0.26172-3.0156 1.8125-1.0742 3.0938-0.097657 3.3945 1.5039 0.5625 3.0508 0.63281 6.1719 3.6836 1.1562 0.71875-1.207 2.0664-1.0859 3.168-0.22266 1.4414 1.125 3.0781 1.7383 4.4336 0.24219 1.2188-1.375 1.5391-3.1289 0.63281-5.0156-0.53906-1.0703-2.0234-2.293-0.50391-3.5547 1.1953-0.97656 2.5625 0.078125 3.8125 0.085937 4.6797 0.027344 9.5312 2.6484 14.035-0.89062 1.3477-1.0703 2.5078 0.36328 3.7109 0.80469 1.5391 0.55469 2.75 0.25391 3.25-1.3398 0.41406-1.3906-0.49219-2.1523-1.7305-2.7227-1.3984-0.63281-3.8828-0.3125-3.9141-2.2305-0.070312-2.4219 2.582-2.4922 4.3125-3.1992 2.1367-0.875 5.6719 0.25781 6.7461 2.1016 0.30078 0.50781 0.66406 1.1484 1.1406 1.3398 1.5625 0.60547 2.3672 3.6211 4.3828 2.1367 1.9023-1.3945 0.21484-3.4609-0.62109-4.8008-1.6016-2.5312-0.85547-3.3633 1.6328-4.6602 6.625-3.4688 13.922-5.543 20.234-9.6055 1.8828-1.2109 2.4453 0.42188 3.0586 1.4531 1.1445 1.918 2.3086 2.5508 4.3516 1.1133 3.1367-2.2148 4.7305 1.4688 7.125 2.1719 2.1445 0.64062 3.6289 2.2031 6.3984 0.54297 3.4062-2.0469 6.1641 0.44922 5.8164 4.582-0.19922 2.3086 0.34766 4.6953-1.6055 7.0234 4.4414-0.39062 7.918-0.80469 9.0352-5.5 0.44141-1.8086 1.9883-2.5078 4.2969-1.6445 4.6602 1.7148 7.9531-1.2422 6.8047-5.9648-0.35547-1.5039 0.058594-2.2734 1.0391-3.0859 1.2539-1.0391 1.7539 0.015625 2.4961 0.78516 2.1211 2.207 3.0898 0.5625 3.8398-1.2891 0.74609-1.8047 1.2891-3.6836 2.0312-5.4727 0.39062-0.95703 1.3086-1.168 2.2734-0.99219 0.88281 0.15625 1.5234 0.92578 1.1094 1.582-2.1875 3.5273 0.27734 9.4062-6.4844 10.824 5.8516 1.5391 8.2148-0.10156 8.5312-5.1172 0.089843-1.1172 0.73828-2.8203 1.3594-2.4727 3.0938 1.7109 7.1836-2.6211 9.7188 1.7461 0.94922 1.6523 2.2031 1.4414 3.8203 0.57031 5.1289-2.7578 10.402-4.2539 16.086-1.3398 2.0977 1.0625 4.0352-0.14062 6.0352-0.89844 3.3516-1.2812 5.9727-0.34766 6.5273 3.4922 0.33594 2.168 1.6523 2.4102 3.1641 2.2578 3.7266-0.35547 5.3867 1.9336 7.5117 4.5469 2.5 3.0938 4.8633 5.8633 5.6133 9.9883 0.53516 2.9453 3.625 0.57812 5.4219 1.5195 1.1758 0.60547 2.082-0.73438 2.4297-2.0156 0.88281-3.2578 0.84766-6.6055 4.7812-8.6875 2.7422-1.4609 2.6133-5.3789 2.4805-8.6484-0.17188-4.8164 4.9453-9.0859 9.8242-8.3594 2.3594 0.35156 4.2266 1.5469 3.25 4.2109-0.91406 2.5156 0.42578 3.9258 2.0508 4.8672 2.793 1.6172 4.1602 3.6484 3.9688 6.9102-0.0625 1.1133 0.40625 2.4961 1.1133 3.3711 1.6367 2.0586 0.98828 3.2422-0.80078 4.8242-2.4414 2.1875-1.9141 4.7031 1.2773 5.5781 3.4922 0.96875 6.207 5.082 10.645 2.6523 2.6211-1.4336 4.4023-4.0195 7.5234-4.8047 1.2539-0.3125 0.82031-1.7227-0.29688-2.3984-1.2695-0.78516-2.7148-1.3398-3.8555-2.2891-1.2539-1.0117-0.96875-2.3945-0.12109-3.6406 0.96875-1.3906 1.7578-0.5 2.543 0.23438 0.92578 0.86328 1.9297 1.5898 3.1836 0.75781 1.5469-1.0352 1.6055-2.8242 0.95703-4.0625-1.6406-3.0703-0.93359-5.6992-0.20703-8.9297 0.91797-4.082-1.4766-8.1367-3.7617-11.684-1.0898-1.6758-1.8164 0.0625-2.7383 0.69922-1.5156 1.0664-2.7266 2.9766-5 2.3789-0.28516-0.070313-0.60547-1.0898-0.46484-1.5391 0.67188-2.2305 1.9023-4.4023 4.1562-4.9883 3.1406-0.82031 6.4688-1.2031 9.2188 1.5195 2.0938 2.0664 4.2109 4.0742 6.5898 5.8984 2.5586 1.9531-0.64844 2.5508-2.1016 3.0781-4.3516 1.5742-5.1289 3.2852-2.9414 6.8398 1.9102 3.1211 5.4297 3.1992 7.0469-0.12891 1.8242-3.7266 4.1445-5.1875 8.1289-3.3633 2.0508 0.93359 3.3906-0.43359 4.6875-1.7656 1.2422-1.3047 2.4219-2.7148 4.5469-2.4531 0.93359 0.11719 1.8086 0.23828 2.3359 1.1055 0.60547 1.0117-0.11328 1.6758-0.71094 2.3438-1.5742 1.7969-2.8086 4.4609-4.7969 5.2109-5.1719 1.9648-5.9844 5.9062-6.2461 10.535-0.074219 1.2266 0.70312 1.4922 1.3516 2.0391 1.7461 1.5039 3.5352 2.9844 2.4375 5.6992-0.30078 0.75-0.37109 1.6172 0.64062 1.7812 5.1953 0.89062 5.7852 5.3008 7.0469 9.1641 1.3672 4.2031 3.4648 5.3516 6.875 3.2148 7.5977-4.7969 21.484 1.5234 23.492 9.5898 0.66406 2.6992 2.082 3.6406 4.3828 4.375 4.4961 1.4375 7.7031 4.9883 11.664 7.3594 0.42578 0.24219 0.76953 0.98438 0.76953 1.4961 0.12109 7.7539 5.6641 10.953 11.613 13.672 1.6328 0.74219 3.1211 1.4062 3.2773 3.2305 0.44922 5.293 3.9336 8.6836 7.3242 12.148 0.90625-0.007813 1.7891-0.015625 2.6953-0.023438 2.207-3.0859 4.6289-0.88281 6.6406 0.058594 2.8633 1.3164 5.3438 2.8281 8.8555 2.0781 2.3086-0.50391 4.4258 1.4258 6.293 2.9727 1.5078 1.2266 3.0898 2.3789 4.6289 3.5625 2.1875 1.668 4.3633 1.0195 6.1914-0.41406 4.9961-3.9258 5.2812-3.8047 9.8555 0.28516 4.2695 3.8203 9.832 5.707 15.062 7.418 4.0898 1.332 6.8984 3.3984 9.1719 6.5547 1.4805 2.0664 3.0898 3.707 5.5977 4.1602 3.8125 0.66406 4.7969 5.5508 9.207 5.75 2.3359 0.10156 4.5391 2.0898 7.2383 1.9883 1.6602-0.042969 2.6523 1.2422 3.3125 2.6875 5.332 4.0039 10.262 8.957 17.949 7.2031 1.2617-0.28516 3.3008-0.5 3.7617 0.76953 2.1172 5.9062 7.5664 4.1484 11.688 5.4453 1.0039-1.2969 2.1133-0.60156 3.2344-0.24219 1.168 0.38281 3.0625 0.71094 3.418-0.066406 2.1523-4.7656 9.0859 0 10.469-5.2227 0.89062-3.3047 3.2422-5.5781 4.5664-8.4922 1.0195-2.2578 2.7148-3.1992 4.9883-2.7305 2.0508 0.42969 4.7031 0.5 4.0898 3.9414-0.25781 1.4883 0.84766 2.4648 1.8008 3.4492 0.70703 0.72656 1.7812 1.4102 1.4531 2.5938-1.9023 6.9453 2.5039 12.52 4.3477 18.547 0.94141 3.1328 5.6719 2.3633 8.5781 3.6172 3.1719-3.3125 6.9492-3.2617 10.844-1.7578 2.7383 1.082 4.9805 2.707 3.6211 6.2773v-0.007812 0.007812c-0.29297 0.3125-0.58984 0.61328-0.88281 0.91797-0.11328 0.26562-0.32031 0.52734-0.38672 0.8125-0.29688 1.5312-2.8281 2.5508-1.5938 4.2383 1.2461 1.6836 3.7109 1.832 5.4297 1.0547 3.3125-1.4883 4.957 0.87109 6.4414 2.5938 4.3164 5.0586 10.75 7.5977 14.84 12.883 1.5742 2.0391 3.6484 2.1445 6.0859 1.4414 3-0.87891 6.1406-1.2617 9.1758-1.9766 1.875-0.43359 3.4492 0.25781 4.4609 1.5273 3.4336 4.3672 8.3789 7.0664 12.055 11.148 1.418 1.582 2.8516 3.2344 2.3594 5.5234-0.64844 2.9062 0.55469 3.5469 3.2578 3.6914 1.6289 0.070312 3.6328 0.22656 4.8516 1.9219 0.69141 0.94141 1.9531 1.6172 0.96094 3.0508-0.78516 1.1602-1.6875 1.2266-3.0703 0.83203-4.0391-1.1758-4.7305-0.39844-3.918 3.7422 0.23438 1.1758 0.3125 2.3711 0.45312 3.5625 0.085937 0.94922 0.35938 1.9453 1.3203 2.1445 1.2969 0.25 1.0742-1.0273 1.4258-1.7891 1.2969-2.6562 9.125-5.8906 11.754-4.7227 2.3242 1.0469 3.9766 2.8281 3.4492 5.6719-0.69922 3.7344 0.93359 3.582 3.3906 2.1016 1.6602-1.0117 3.6367-1.418 5.0312-0.19922 1.3984 1.2188 0.69922 3.0117-0.28516 4.4961-1.1602 1.7227 0.007813 1.9219 1.3984 2.1523 2.0664 0.36328 4.0547 0.75391 6.125-0.17187 2.375-1.0703 4.3125-0.12891 4.9531 2.1875 0.73438 2.5859-1.1055 3.3281-3.4062 3.4414-1.4727 0.085937-2.9414 0.72656-4.3867 0.65625-1.2969-0.066406-2.6875-1.0195-3.4297 0.80469-0.5625 1.3828-0.35547 2.7344 1.0117 3.5625 1.3828 0.83984 3.4766 2.25 4.418 0.625 1.6094-2.7148 2.2578-1.3242 3.293 0.12109 2.6367 3.6992 5.4922 6.8047 10.688 4.4531 0.29297-0.14062 1.168 0.38672 1.4023 0.8125 0.47266 0.90625-0.16406 1.3828-1.0117 1.4844-1.9375 0.22656-3.332 1.1758-2.75 3.2188 0.69141 2.4531 2.4375 0.62891 3.707 0.52734 2.3281-0.19922 3.9258 1.125 4.4453 3.0078 0.42578 1.4453-0.62891 3.918 1.6797 3.8242 2.1953-0.10547 4.875 0.10938 6.6914-1.793 0.8125-0.84766 1.168-2.2109 2.5742-2.2812 0.86719-0.050781 2-0.13672 2.5625 0.33594 0.94922 0.8125-0.0625 1.5938-0.64062 2.2227-1.8594 2.0234-1.2383 3.2188 1.2695 3.5977 2.043 0.3125 3.2773 1.4961 2.5938 3.3477-1.0547 2.9727-0.078125 5.418 0.73438 8.2109 0.95312 3.2773 2.1992 6.8164-0.72266 10.215-1.0898 1.2773-1.0664 3.6406-1.3164 5.5508-0.11328 0.93359 1.1602 2.2656-0.007813 2.8438-1.4258 0.70703-2.4141-0.58984-3.2695-1.6875-1.2031-1.5625-2.8789-1.9805-4.2617-0.58594-1.7227 1.6758 0.34375 2.6094 1.2617 3.5781 2.0391 2.207 4.2188 4.2891 6.3633 6.4062 0.53516 0.51953 1.1836 1.4648 1.6875 1.3945 8.2305-0.99609 7.8594 6.9766 10.875 11.008 1.8008 2.4023 2.8203 6.2852 2.3867 9.8555-0.36328 2.8984 0.38281 5.4297 2.5273 7.332 4.1406 3.6914 5.2891 9.7891 10.332 12.789 2.1445 1.2891 3.0859 3.4766 2.4297 5.8359-2.0156 7.2188 2.1367 12.859 4.7383 18.809 2.7852 6.3789 5.1602 12.684 4.1484 19.832-0.16406 1.168 0.66016 2.5078 1.1016 3.7188 1.6406 4.3945 0.1875 9.3906 2.6719 13.637 0.28516 0.46484-0.011719 1.4883 0.31641 1.7031 6.5117 4.1523 4.1172 11.441 5.1797 17.07 1.0117 5.4727 0.41797 11.465 1.7734 17.129 0.16406 0.70703-0.035156 1.6914 0.38281 2.168 5.7734 6.5898 9.0156 15.012 15.535 21.047 0.61328 0.60547 1.7031 1.4883 1.5742 2.0156-1.2617 5.6641 4.1094 7.332 6.5039 10.617 2.8281 3.875 6.043 7.4023 7.7539 11.984 0.29688 0.82812 0.71094 1.8672 1.3828 2.2656 3.7266 2.1523 3.3633 4.8828 1.3945 7.9609-0.88281 1.3672-0.97656 2.7266-0.39062 4.2656 0.3125 0.8125 0.29297 1.918-0.83984 2.2539-1.1562 0.35547-1.2695-0.67188-1.7461-1.4414-2.3438-3.8477-5.6094-6.9258-9.5-9.0039-3.2422-1.7188-4.5312-4-6.2188-7.2617-2.8438-5.4883-3.4219-10.867-3.918-16.672-0.30859-3.7148-6.8711-7.5195-10.383-6.1875-4.5234 1.7031-5.7578 0-6.3711-4.2812-0.36328-2.5938 0.40625-6.6328-4.8359-6.4336-5.9141 0.22656-6.0508-0.13672-6.2852 5.9297-0.14844 3.9883-0.83984 7.6016-3.5352 10.785-3.875 4.5039-2.793 9.7539-1.7383 14.887 1.0977 5.3633-0.16406 7.3242-4.957 10.324-2.7812 1.7578-3.6641 5.6211-6.3867 7.7578-0.29688 0.32031-0.57422 0.63281-0.85938 0.94922-1.625 3.7031-2.4961 7.5586-3.3359 11.527-1.0469 4.9375-1.7305 9.3984 1.7812 13.473 1.1836 1.375 1.875 2.6523 1.2891 4.4883-1.8164 5.6953 1.4102 11.602-0.37109 17.172-1.8008 5.5938-2.0664 11.039-1.375 16.816 0.52734 4.2891-1.4531 8.4492-2.25 12.66-0.64844 3.3789-1.7031 6.5977-2.8789 9.6836-0.78516 2.0664-1.3555 3.8281-0.96094 5.9219 0.83203 4.3398 0.64063 8.4219-1.6836 12.441-2.0664 3.5195-1.1758 6.7109 2.6094 8.6719 3.5273 1.8359 2.9922 5.0352 2.457 7.8945-0.40625 2.1562-0.48438 4.0234 0.12109 6.125 0.53516 1.7695 0.59766 3.4297-0.29297 5.4883-1.4883 3.5039 1.3203 5.8359 4.0625 7.5664 5.3242 3.3828 7.4688 13.617 4.0039 19.066-0.85547 1.3555-1.9531 1.4883-3.3281 1.7969-5.457 1.1875-7.3867 5.3359-5.1016 10.523 0.36328 0.78906 0.57031 1.6523 0.75 2.5156 0.73438 3.0703 1.6875 4.7148 5.1523 2.2305 3.8164-2.75 5.2656-0.80078 7.1094 3.4531 2.5938 5.9922 0.44141 13.48 6.8477 18.355 2.9062 2.1953 2.5352 6.9844-0.015625 9.9961-6.7891 7.9297-7.9492 17.145-7.6094 27.055 0.15625 4.3672-0.22656 9.3984-2.3164 13.004-1.9727 3.4141 0.16406 5.9492 0.46484 8.25 0.85547 7.0469-1.9453 14.855 3.5273 21.113 0.57031 0.64844 0.625 1.8945 1.6602 1.9375 1.168 0.0625 1.2539-1.0469 1.5234-1.875 0.82031-2.6562 0.35156-5.9414 5.2578-5.5352 1.9688 0.15625 4.1484-3.5117 4.4414-6.2148 0.26953-2.5625 2.0352-4.3086 2.5508-6.6328 0.14062-0.68359 0.64062-1.4883 1.5508-1.2617 0.86328 0.21484 0.85547 0.94141 0.86328 1.7695 0.027344 5.8555 1.918 11.391 3.2422 17.008 1.1914 5.0938 1.5547 9.7031-2.0234 14.434-3.1992 4.2109-5.3438 9.2852-7.7227 14.074-2.3672 4.8086-6.1797 3.6836-10.027 2.8359-3.4609-0.75781-4.3242-3.293-4.5234-6.3633-0.27734-4.0039-2.4297-6.9414-6.1562-7.9102-5.5586-1.4688-9.1484 0.55469-11.969 4.5312-2.2109 3.1133-5.1445 5.8359-8.1602 8.2227-2.0234 1.6406-3.1914 3.2344-3.582 5.8359-0.99219 6.5977-1.7461 6.9766-8.4531 8.4805-2.6211 0.58984-5.6641 1.4102-5.1211 5.4492 0.79687 5.8359 0.57812 5.9922-5.2812 6.1641-3.5977 3.5977-5.0586 7.7383-3.7031 12.875 0.75391 2.8789-1.2422 4.6875-3.5352 6.0781-2.4375 1.0117-4.2539 2.3789-5.8438 4.8008-1.957 3-4.1797 6.7773-9.2109 5.4727-1.6406-0.42188-2.1953 1.4883-3.0508 2.7305-2.8125 4.0586-3.9883 9.5117-9.4844 11.379-0.96875 0.34766-1.8594 1.4883-2.7148 1.4297-5.1641-0.51953-7.3242 2.9805-9.4336 6.6562-0.33984 0.875-0.92578 1.4609-1.7812 1.8164-2.8711 1.7539-6.2539 2.7227-7.6641 6.4062-0.63672 1.6523-1.9453 0.41406-2.8867-0.25781-5.9492-4.375-6.6484-4.6523-9.1289 2.1953-1.6953 4.6523-4.6719 7.2305-8.3008 9.7188-0.011718 0.27734-0.011718 0.57812-0.027344 0.88281-0.070312 1.6172-0.96875 2.7227-2.4297 3.3008-0.64844 0.24219-1.3164-0.15234-1.4102-0.70703-0.28516-1.6602 0.66797-2.7344 2.0312-3.4922-0.25-4.1953-3.8125-3.0273-6.0781-3.4688-1.7188-0.33594-4.4609-1.1836-4.8398 2.2305-0.054688 0.40625-0.32031 1.1328-0.54688 1.1484-7.875 0.875-6.7773 8.8477-10.359 13.074-1.6328 1.9453-3.6562 2.4492-6.0156 2.3711-4.2891-0.14062-6.0703 2.2305-7.5664 6.0938-1.1836 3.0898-2.707 6.7734-6.1641 8.2578-2.3281 1.0117-2.0664 2.9414-2.1211 4.4297-0.042968 1.6172 1.8438 0.94922 2.9336 1.0625 4.2969 0.47656 5.6289 3.4336 3.4844 7.2266-1.125 1.9805-2.793 3.2461-4.6367 4.0742-1.875 0.86328-2.6094 1.6523-1.7109 3.6836 0.5 1.1836 0.875 2.8203-0.59766 3.6406-1.6055 0.90625-2.9023-0.17187-3.9141-1.3477-1.4102-1.6797-3.168-2.1133-5.2422-1.9141-2.0586 0.20703-3.4844 2.0586-3.0508 3.2617 2.2812 6.1211-2.3711 9.5039-4.8516 13.73-0.74219 1.2539-1.6016 2.3242-3.207 1.6172-1.5156-0.68359-1.4883-2.1523-1.3398-3.5273 0.12109-1.1836 0.42969-2.2734 0.023438-3.5195-1.0547-3.3047-3.6055-4.125-5.9375-1.5664-2.5352 2.707-4.7812 5.6836-7.0664 8.5938-1.0898 1.4023-2.543 2.9141-4.0977 1.9492-3.1055-1.9648-3.5469 0.20703-4.7734 2.1523-2.4219 3.8125-4.7656 7.2695-9.3047 9.707-3.9922 2.1719-7.8164 5.8398-11.188 9.4336-1.375 1.4727-2.8008 2.6836-5.0312 2.4219-0.69141-0.058594-1.8242 0.078125-2.0938 0.51953-2.8086 4.6523-8.3281 4.6172-12.297 7.2305-1.668 1.0859-3.457 2.2109-4.3828 3.8281-4.4766 7.7812-12.703 10.145-19.836 14.086-0.87891 0.48438-1.6172 0.44141-2.332-0.41406-2.7148-3.2266-5.6719-3.4492-7.6719 0.11328-2.2656 4.043-5.1953 4.4258-8.9062 3.3008-4.0195-1.2461-7.2344-0.078124-10.148 2.7578-3.4688 3.3477-6.4531 3.0352-10.664 0.20703-1.9883-1.3477-5.3594-5.7578-6.7852 0.84766-0.085937 0.36328-0.52734 0.83984-0.90234 0.96875-9.7422 3.3203-6.707 12.148-8.1953 19.016-0.17969 0.85547 0.36328 1.4102 1.2188 1.5391 0.94141 0.17188 1.7812-0.054688 2.4648-0.76172 0.97656-1.0273 0.19141-2.7852 1.5469-3.6055 1.2539-2.4805 3.0352-2.1523 4.6953-0.66797 1.668 1.5078 2.707 3.8398 0.75391 5.3984-2.4727 1.9453-5.2227 4.6523-9.0195 2.4453-2.7422 1.0469-4.5898 0.89062-4.6602-2.8281-0.035156-1.9023-0.97656-3.7344-0.83203-5.7383 0.078125-1.1445 0.3125-2.5859-1.2773-2.9688-1.3594-0.34375-2.9922-0.40625-3.6133 1.0039-1.2305 2.7656-4.4961 2.8633-6.0977 5.1445-1.2266 1.7656-3.0508 0.59766-3.7617-0.54297-1.2188-2.0078-1.9102-4.3516-2.7578-6.6055-0.74219-2 1.125-2.1133 2.1602-2.7266 1.4453-0.85547 1.7734 0.027344 1.9141 1.2969 0.12891 1.1406 0.73438 2.1719 2.0117 1.9297 1.2969-0.24219 2.6719-0.80469 3.1211-2.2734 0.375-1.1758-0.20703-2.1875-1.2852-2.5508-1.8359-0.63281-2.3789-1.2383-0.51172-2.5156 0.96094-0.66797 1.3125-1.6602 0.72656-2.7695-0.62109-1.1836-1.5547-0.96875-2.6875-0.74219-5.0156 1.0703-9.8672 2.8945-15.02 3.2578-0.51172 0.027343-1.4609 0.66797-1.4375 0.91797 0.52734 3.8125-4.125 5.5508-3.6836 9.1758 0.21875 1.6914-0.58594 2.2461-1.8672 2.3594-1.6094 0.13672-3.0508 2.8711-4.7305 0.63281-1.2852-1.707-3.6055-1.4727-4.8164-3.1484-0.52734-0.76172-1.4414-1.2188-2.332-0.49219-0.96094 0.75781-1.2109 1.832-0.47656 2.8008 3.1914 4.1914 0.23438 6.5625-2.6641 8.8984-1.7461 1.3906-3.8047 2.4453-5.3594 4.0117-1.1328 1.1562-1.8164 1.9609-3.1484 0.47266-1.0625-1.1641-1.375-2.3242-0.15625-3.543 0.88281-0.88281 2.8984-1.125 2.25-2.8789-0.63281-1.7734-2.543-1.0312-3.9258-1.3945-6.043-1.5195-9.3828 2.0586-12.289 6.3633-0.79297 1.1875-1.3203 1.6602-2.8359 1.0898-3.9062-1.4062-6.6641-6.0781-4.2891-8.8281 3.7969-4.3828-0.74219-6.5-1.8398-9.4492-0.51172-1.3828-2.3008-2.293-3.5117-3.3984-0.94922-0.86328-1.7383-2.3438-3.2578-0.68359-1.0898 1.2188-1.0312 2.25-0.15625 3.625 0.91797 1.4414 4.2461 2.1875 2.4883 4.3203-0.63672 0.80078-1.6797 0.64844-2.7461 0.33203zm-9.9844-8.6328c0.13281 0.007812 0.26953 0.019531 0.40234 0.03125 0.035157 0.003906 0.070313 0.007812 0.10156 0.011719 0.023437-0.91797-1.7266-2.125-3.5312-2.5078-0.25391-0.058594-0.53516-0.10938-0.82812-0.15234 1.4258 0.66406 2.668 1.5352 3.8555 2.6172zm417.89-179.94c0.85547-0.015624 1.2188 0.78125 1.2695 1.5508 0.11328 1.4688 0.32031 2.9648-0.62109 4.3477-2.3203 3.4688-4.4102 7.1406-6.918 10.461-2.2656 3.0273-0.73438 7.0586-3.2266 9.9883-1.2969 1.5469-1.125 4.0117-2.8633 5.3945-4.8047 8.4648-13.297 13.828-18.07 22.672-2.9648 5.5352-7.5898 10.793-11.934 15.883-3.5703 4.1797-7.1914 7.8203-11.863 10.621-2.4297 1.4414-1.5391 5.1875-4.0625 6.7695-2.9922 1.8398-5.2227 4.3828-6.9258 7.4375-3.7188 6.707-10.203 10.883-15.105 16.426-6.2344 7.082-14.898 11.008-21.246 17.797-10.184 5.6953-18.734 13.574-27.598 20.992-1.9219 1.6016-3.8398 2.8203-6.2188 3.3203-3.6914 0.75391-6.5703 2.6914-8.75 5.7422-1.9961 2.8008-11.336 6.043-14.266 4.9883-1.7812-0.62891-2.207-2.1523-1.6016-3.6406 0.88281-2.3242 1.7812-4.6094 4.4609-5.8516 3.6328-1.7383 6.418-4.5156 8.4844-8.1367 1.1328-2.0078 2.8203-3.9531 5.2305-4.7305 1.2812-0.40625 2.043-1.168 2.6016-2.2734 1.6172-3.2617 2.8555-6.7695 7.4023-7.2031 1.2891-0.12109 1.2109-1.6602 1.0469-3.0195-0.63281-5.2227 1.4883-8.0039 6.7969-8.2109 4.3828-0.17578 6.5195-1.7383 8.6992-5.9062 2.3242-4.5508 5.6797-9.0195 10.082-12.262 0.27734-1.4531 0.70703-2.7773 0.058594-4.3477-1.8672-4.5078 0.12891-8.2578 2.8008-11.77 1.9219-2.5156 2.8047-5.3945 2.7695-8.4648-0.042969-4.7891 4.3672-7.7461 8.8789-7.7031 4.2695 0.015625 9.0547 0.015625 12.91-2.3281 1.8945-1.1406 4.0117-2.2148 5.7734-2.0586 4.6367 0.38281 6.832-2.8438 8.9961-5.6016 4.0547-5.1719 7.5117-10.793 11.301-16.188 0.8125-1.1836 0.37109-1.9688-0.51953-2.6953-1.168-0.95312-1.9805-2.9688-1.2617-3.5312 4-3 3.293-9.8125 9.1484-11.203 1.7461-0.42578 2.7227-1.7578 3.6562-3.1484 1.2031-1.7891 2.8086-2.6719 5.0156-2.1523 3.1133 1.4883 3.1016-0.85547 2.4883-2.4727-1.2109-3.1484 0.24219-5.7852 0.96875-8.5625 0.11328-0.44141 0.027344-1.1484 0.27734-1.2852 5.0938-2.6992 4.9297-10.008 10.668-12.125 0.75391-3.6562 4.5586-4.9883 6.125-8.0508 0.28516-0.54297 1.1484-0.82812 1.5273-0.35156 0.82422 0.98438 0.86719 2.4727 0.18359 3.3711-1.8242 2.3789-2.4141 5.1367-2.7773 7.9102-0.57812 4.2734-0.95703 8.5781-1.3555 12.867-0.097657 1.0547 0.007812 2.1172 1.2031 2.6992 1.9023-0.68359 1.4688-2.75 2.3594-4.0664 0.97656-1.4258 0.78516-4.6523 4.0469-2.1523 1.0273 0.77734 1.8164-0.57031 2.3242-1.4883 1.6094-2.8242 5.3438-3.8711 6.1992-7.3555 0.10547-0.39844 0.92578-0.90234 1.4297-0.90234zm81.52-219.45c7.9336 3.1172 1.9531 7.4609 3.4727 11.109 0.76172 1.8008-7.0703 2.7031-11.066 3.7656-10.773 2.9062-13.07 1.8984-12.848-5.7656-2.6094-7.7656 10.43-11.566 18.035-17.027 1.332-0.95703 4.0117-0.95703 5.6016 0.078125 1.6289 1.0742-0.30859 1.8203-1.4844 2.4766-2.8867 1.5977-6.4492 3.5039-1.7109 5.3633zm-840.14 371.96c1.4453 3.0508 5.0234 5.293 7.418 7.9727 1.6367 1.8945 6.5547 4.0234-1.0742 5.4648-2.3633 0.41406-1.2344 1.9336 0.28125 2.7461 2.8711 1.543 1.9023 3.1641 0.085937 4.5859-2.0078 1.5312-4.7031 2.5781-8.0312 2.0039-4.0859-0.74609-7.0273-2.8711-11.484-3.4023-2.5742-0.30469-1.957-2.7148 0.015625-3.2227 5.9023-1.543 4.9492-5.5742 7.9805-8.0977 2.4141-2.0352 0.95312-3.75-2.6055-4.5273-2.6953-0.58594-6.2539-1.293-5.7812-3.1289 0.6875-2.7812 5.9922-1.0469 7.9805-2.332 3.2266-0.49609 4.5469 0.47266 5.2148 1.9375zm-39.484-24.215c-3.1797 3.8398 0.082032 5.9727 2.8672 8.832 3.668 3.7656 0.22656 6.5469-7.7266 6.5703-4.1172 0.29687-7.1914-0.75-8.8125-3.0039-2.0898-2.9609-1.4531-6.4805-6.7031-8.7812-0.55078-0.26172-0.26562-1.7461 0.41016-1.9883 6.0898-2.1367 6.457-5.8555 8.4844-8.9805 2.1328-3.3438 5.168-2.3516 7.0508-0.46094 2.3984 2.4531 5.9844 5.8984 4.4297 7.8125zm490.87 83.906c0.65234-0.34766 1.9531-0.17578 2.9492-0.24219 2.7383 0.30859 8.1758 1.6875 4.9961 2.8359-11.621 4.2266-4.707 11.719-7.8477 17.254-0.97656 1.6875 0.97656 4.2812-3.1797 4.8438-3.9414 0.53516-3.4453-2.2344-4.8047-3.5977-0.78516-0.76172-2.0859-1.4453-2.2773-2.25-0.84375-3.0625-7.832-3.8242-5.418-8.1836 2.9688-5.2969 9.8789-7.5039 15.582-10.66zm-92.543-9.4492c3.3008 3.8555 9.9531 4.3711 13.426 8.5938 3.5 4.3164 1.4492 7.4414-0.72266 11.031-1.3281 2.207-3.6016 3.8164-7.0273 3.5664-5.3477-0.40234-6.5-4.0664-7.9727-6.9805-2.125-4.2812-3.4023-8.8086-5-13.199-0.77734-1.8242 0.023438-3.2617 1.9727-4.2617 2.3242-1.1484 3.9258-0.30469 5.3242 1.25zm-190.43-1085.8c-7.1758-1.1758-7.75-8.0273-8.2266-14.027 0.19922-3.5234-0.10156-8.3984 4.6758-7.4258 6.5508 1.3516 7.4727 7.6758 7.7227 13.352 0.15234 3.3984-0.39844 8.7266-4.1719 8.1016zm182.3 1071.7c-1.2227-4.8711-4.2812-8.0391-9.4805-8.5898 0 0.11719-0.035156 0.23047-0.097656 0.33594-0.13281-0.13281-0.26953-0.25781-0.40625-0.37891-4.2227-0.28906-7.7422 1.8047-7.5469 6.4336 0.17578 5.2734 4.0508 8.4219 9.375 8.8984 0.125 0.011719 0.25 0.023438 0.375 0.027344 1.5273-1.125 1.7188-2.9219 1.8008-4.7852-1.9336-3.1602-10.234-5.1797-3.832-9.9453 0.10156-0.078125 0.17969-0.16406 0.23438-0.25 0.44141 0.42188 0.87891 0.875 1.3203 1.3594 1.7383 1.9141 0.29297 6.7734 5.4531 6.1992 0.73047-0.074219 1.7773 0.38672 2.8047 0.69531zm407.46-674.86h-0.023437c0 0.023438 0.023437 0.023438 0.023437 0.046875zm-3.6211-16.246v0.046876c0-0.023438 0.023437-0.023438 0.023437-0.046876z" fill-rule="evenodd"/>
</svg>
