<?xml version="1.0" encoding="UTF-8"?>
<svg width="1200pt" height="1200pt" version="1.1" viewBox="0 0 1200 1200" xmlns="http://www.w3.org/2000/svg">
 <path d="m1172.4 600.36c-29.762-97.277-44.176-199.34-86.625-292.47-19.188-42.055-34.68-89.023-76.562-115.96-34.301-22.062-64.84-48.594-97.254-72.855-39.758-29.816-82.812-50.664-132.45-62.82-29.895-7.3203-57.586-27.18-90.266-31.199-56.926-7.0938-114.66 2.6367-171.52-8.9414-14.902-3.0469-30.238 3.0195-45.559 7.9531-74.875 24.055-149.29 52.535-210.41 100.41-38.809 30.371-82.43 55.754-116.21 95.684-32.914 38.941-43.832 85.199-65.379 127.38-24.621 48.305-45.52 100.17-57.73 152.85-23.723 102.32-0.64453 207.24 16.102 306 14.02 82.602 83.988 152.49 140.38 220.92 25.887 31.449 67.199 35.828 94.641 60.645 60.078 54.184 133 73.16 209.04 86.453 58.324 10.207 116.52 2.9688 174.99 0.22266 68.188-3.2305 131.37-18.477 194.6-45.242 83.484-35.355 143.45-98.82 208.42-156.49 37.16-32.992 70.391-74.848 82.812-121.77 16.102-60.949 33.957-123.36 29.855-198.05-0.027344-11.133 4.9961-33.578-0.85938-52.711zm-150.33-103.58c-2.2812 11.723-12.184 16.102-20.559 22.34-23.895 17.883-41.129 43.715-44.676 70.879-2.5039 19.16-3.8359 18.844-18.223 13.488-29.078-10.785-32.703 6.0391-27.559 27.797 6.1836 26.098 4.957 46.258-18.805 65.828-22.957 18.898-14.031 44.164 0.27734 67.41 28.773 46.773 56.887 100.67 22.363 149.61-28.102 39.812-31.805 106.71-99.863 112.02-16.574 41.328-66.961 38.941-91.555 70.84-8.3984 10.891-24.25 14.398-39.242 15.574-33.969 2.6367-67.859 6.2109-89.59 8.2695-104.23-0.13281-190.54-20.559-269.12-69.93-15.402-9.6797-31.887-17.828-48.5-25.359-16.219-7.3828-32.637-18.133-35.078-34.312-5.3398-35.207-28.008-54.738-54.75-71.355-51.098-31.648-67.805-83.684-84.039-136.46-22.785-73.859-28.734-151.07-44.73-226.29-6.3945-30.055 3.8516-58.918 10.906-88.207 22.246-92.77 81.902-158.36 154.13-214.22 62.836-48.594 126.18-98.203 199.73-128.97 79.637-33.336 162.99-41.684 249.43-21.191 50.215 11.922 101.72 14.387 149.68 39.008 61.754 31.688 123.97 60.449 159.23 125.06 4.2852 7.8203 10.152 15.336 16.785 21.309 68.84 62.102 37.625 135.46 23.754 206.85z"/>
</svg>
