<?xml version="1.0" encoding="UTF-8"?>
<svg width="1200pt" height="1200pt" fill="#1E3A5F" version="1.1" viewBox="0 0 1200 1200" xmlns="http://www.w3.org/2000/svg">
 <path d="m628.4 742.13h56.859v-56.859h-170.53v56.859z"/>
 <path d="m457.87 742.13h56.859v56.859h-56.859z"/>
 <path d="m685.26 742.13h56.859v56.859h-56.859z"/>
 <path d="m1083.1 401.06h-56.812v-170.53h56.859l-0.046875-56.859h-284.21v56.859h56.859v56.812h-113.67v-56.812h-56.859v-56.859h-170.48v56.859h-56.906v56.812h-113.67v56.859h-113.67v56.859h-113.67v56.859l-56.859-0.046875v170.53h113.67v397.92h852.66v-397.92h113.67v-170.53h-56.859zm-170.53-170.53h56.812v113.67h-56.766v-113.67zm56.812 454.74 0.046875 284.21h-170.53v-170.53h-56.812v170.53h-284.26v-170.53h-56.812v170.53h-170.53v-397.87h113.67v-56.812h113.67v-56.906h113.67l0.046875-56.812h56.812v56.859h113.67l0.046875 56.859h113.67v56.859h113.67v113.67z"/>
</svg>
