<?xml version="1.0" encoding="UTF-8"?>
<svg width="1200pt" height="1200pt" fill="#1E3A5F" version="1.1" viewBox="0 0 1200 1200" xmlns="http://www.w3.org/2000/svg">
 <path d="m1125.9 882.24-0.09375-73.734-73.125 0.09375 0.09375-202.5c24.281 0 48.703-0.42188 73.078 0v-116.34h-73.219v-70.219h-65.297v-72.609l-65.859-0.046875v-67.312l-68.484-0.1875 0.09375-68.906h-69.469v-72.422l-68.906-0.23438v-67.406c-25.406 0-50.859 0.51562-76.219 0l0.046875-70.406-75.094 0.14062v70.031l-75.141 0.046875v67.781l-71.953-0.14062v72.469l-70.031 0.14062 0.14062 70.031h-67.5l-0.09375 67.828-67.875-0.09375v70.969s-61.641 0.09375-61.641 0.09375l-0.09375 70.828c-24.234 0-48.516 0.1875-72.75-0.046875-0.46875 38.719 0 77.438 0.046875 116.06 24.188 0 48.75-0.84375 72.891 0.23438l0.09375 202.26-73.406 0.28125c-0.14062 24.094-0.14062 48.141 0 72.234-22.641 0.1875-45.234 0.23438-67.875 0.23438l0.09375 318.37 627.94-0.375 555.52 0.46875 0.09375-317.72c-21.984 0-43.969 0.23438-65.953 0zm-1048.8 248.44-0.23438-178.45h72.844v178.64zm186.37-180.32v-215.16h152.76l0.09375 215.06h-152.86zm226.74-633.74 73.219-0.09375-0.09375 73.688-73.078-0.14062c-0.375-24.469 0-48.938 0-73.406zm73.359 149.72v73.828l-73.172 0.046875c-0.14062-24.656-0.046875-49.312 0.23438-73.969h72.891zm149.81 419.26-70.172-0.09375v67.406h70.125v107.34l-0.09375 70.5-222.61 0.23438c-1.0312-45.984-0.28125-92.062-0.375-138.05 0-61.359-0.5625-122.76 0.23438-184.18 74.297-1.1719 148.69 0 222.98-0.1875v77.062zm-75.328-345.52c-0.14062-24.609-0.046875-49.219 0.23438-73.828l75.281 0.09375v73.5l-75.562 0.1875zm75.422-150.05-75.609-0.09375c-0.51562-24.422-0.09375-49.031 0.046875-73.406 25.172-0.51562 50.484-0.1875 75.656 0l-0.09375 73.453zm225.66 561.47-152.86 0.14062v-216.47c50.906-0.98438 102-0.09375 152.9 0l-0.09375 216.32zm184.74 57 0.14062 122.21c-21.516-0.5625-43.031-0.23438-64.547-0.23438-2.2969 0.046875-4.2656 0.09375-6.5156-0.46875-1.6875-6.5156-0.46875-36.797-0.46875-46.125l0.09375-131.11c22.125 0.09375 44.25 0 66.422-0.23438 1.125 0 2.25 0.1875 3.3281 0.28125 0.98438 0.98438 1.3594 1.8281 1.5 3.2344 0.42188 3.8438-0.23438 8.3438-0.1875 12.281l0.14062 40.125z"/>
</svg>
