<?xml version="1.0" encoding="UTF-8"?>
<svg width="1200pt" height="1200pt" version="1.1" viewBox="0 0 1200 1200" xmlns="http://www.w3.org/2000/svg">
 <path d="m225 1125h75v75h-75z"/>
 <path d="m150 1125h75v75h-75z"/>
 <path d="m150 1050h75v75h-75z"/>
 <path d="m150 975h75v75h-75z"/>
 <path d="m150 900h75v75h-75z"/>
 <path d="m150 825h75v75h-75z"/>
 <path d="m150 750h75v75h-75z"/>
 <path d="m150 675h75v75h-75z"/>
 <path d="m150 600h75v75h-75z"/>
 <path d="m150 525h75v75h-75z"/>
 <path d="m75 525h75v75h-75z"/>
 <path d="m0 525h75v75h-75z"/>
 <path d="m75 450h75v75h-75z"/>
 <path d="m150 450h75v75h-75z"/>
 <path d="m225 375h75v75h-75z"/>
 <path d="m300 300h75v75h-75z"/>
 <path d="m375 225h75v75h-75z"/>
 <path d="m450 150h75v75h-75z"/>
 <path d="m525 75h75v75h-75z"/>
 <path d="m675 150h75v75h-75z"/>
 <path d="m825 300h75v75h-75z"/>
 <path d="m900 375h75v75h-75z"/>
 <path d="m975 450h75v75h-75z"/>
 <path d="m975 525h75v75h-75z"/>
 <path d="m150 375h75v75h-75z"/>
 <path d="m225 300h75v75h-75z"/>
 <path d="m300 225h75v75h-75z"/>
 <path d="m375 150h75v75h-75z"/>
 <path d="m450 75h75v75h-75z"/>
 <path d="m525 0h75v75h-75z"/>
 <path d="m600 75h75v75h-75z"/>
 <path d="m675 75h75v75h-75z"/>
 <path d="m600 0h75v75h-75z"/>
 <path d="m750 225h75v75h-75z"/>
 <path d="m825 225h75v75h-75z"/>
 <path d="m900 300h75v75h-75z"/>
 <path d="m750 150h75v75h-75z"/>
 <path d="m750 75h75v75h-75z"/>
 <path d="m750 0h75v75h-75z"/>
 <path d="m825 0h75v75h-75z"/>
 <path d="m900 0h75v75h-75z"/>
 <path d="m975 0h75v75h-75z"/>
 <path d="m975 75h75v75h-75z"/>
 <path d="m975 150h75v75h-75z"/>
 <path d="m975 225h75v75h-75z"/>
 <path d="m975 300h75v75h-75z"/>
 <path d="m1050 375h-75v75h75z"/>
 <path d="m1200 525h-75v75h75z"/>
 <path d="m1125 450h-75v75h75z"/>
 <path d="m1125 525h-75v75h75z"/>
 <path d="m1050 675h-75v75h75z"/>
 <path d="m1050 600h-75v75h75z"/>
 <path d="m1050 750h-75v75h75z"/>
 <path d="m1050 825h-75v75h75z"/>
 <path d="m1050 900h-75v75h75z"/>
 <path d="m1050 975h-75v75h75z"/>
 <path d="m1050 975h-75v75h75z"/>
 <path d="m1050 1050h-75v75h75z"/>
 <path d="m300 1125h75v75h-75z"/>
 <path d="m375 1125h75v75h-75z"/>
 <path d="m450 1125h75v75h-75z"/>
 <path d="m450 1050h75v75h-75z"/>
 <path d="m450 975h75v75h-75z"/>
 <path d="m450 900h75v75h-75z"/>
 <path d="m450 825h75v75h-75z"/>
 <path d="m450 750h75v75h-75z"/>
 <path d="m525 750h75v75h-75z"/>
 <path d="m600 750h75v75h-75z"/>
 <path d="m675 750h75v75h-75z"/>
 <path d="m675 825h75v75h-75z"/>
 <path d="m675 900h75v75h-75z"/>
 <path d="m675 975h75v75h-75z"/>
 <path d="m675 1050h75v75h-75z"/>
 <path d="m675 1125h75v75h-75z"/>
 <path d="m750 1125h75v75h-75z"/>
 <path d="m825 1125h75v75h-75z"/>
 <path d="m900 1125h75v75h-75z"/>
 <path d="m975 1125h75v75h-75z"/>
</svg>
