<?xml version="1.0" encoding="UTF-8"?>
<svg width="1200pt" height="1200pt" version="1.1" viewBox="0 0 1200 1200" xmlns="http://www.w3.org/2000/svg">
 <path d="m1107.7 553.74v-46.078h-46.32v-46.32h-45.961v-45.961h-46.32v-46.32h-45.961v-45.961l-46.328 0.003906v-46.32h-45.961v-45.961h-46.32v-46.32h-45.961v-45.961h-46.316v-46.32h-45.961v-45.961l-46.32 0.003907h-46.32v45.961h-45.949v46.32h-46.32v45.961h-45.961v46.32h-46.32v45.961h-45.961v46.32l-46.328-0.003907v45.961h-45.961v46.32h-46.32v45.961h-45.961v46.32l-46.316-0.003906v46.078h-45.961v92.508h184.55v507.47h322.78l46.348-0.003906h369.1v-507.47h184.55v-92.508zm-415.45 323.04v230.87h-45.961l-46.32-0.003906h-92.27v-276.83h45.949l46.32 0.003906h92.281zm230.88-184.56v415.43l-46.32-0.003906h-138.24v-323.15l-46.316 0.003906h-230.87v323.15h-138.24l-46.328-0.003906v-461.39h276.82l46.34 0.007813h323.14l-0.003906 45.957z"/>
</svg>
