<?xml version="1.0" encoding="UTF-8"?>
<svg width="1200pt" height="1200pt" version="1.1" viewBox="0 0 1200 1200" fill="#E3B505" xmlns="http://www.w3.org/2000/svg">
 <path d="m900 364.22v-42.891h-42.844v-42.891h-85.734v-128.58h-171.42v128.63h-300v42.891h85.734v42.891h42.844v42.891h42.844v42.891h42.844v42.891h42.844v42.891l-428.53-0.09375v-42.891h-42.844v42.891h-42.844v42.891h85.734v428.72h-42.844v42.891h1028.5v-42.891h-85.734v-428.72h42.844v-85.781h-42.844v-42.891h-42.844v-42.891h-42.844v-42.891h-42.844zm-471.47 643.08h-128.58v-300.14h128.58zm128.63 0h-85.734v-342.98h-214.31v342.98h-85.734v-428.72h385.69v428.72zm85.688-814.6h85.734v214.36h-42.844v-42.891h-42.844v-171.47zm342.84 385.87v428.72h-385.69v-428.72z"/>
 <path d="m300 321.32h-42.844v42.891h42.844z"/>
 <path d="m257.16 364.22h-42.844v42.891h42.844z"/>
 <path d="m214.31 407.06h-42.844v42.891h42.844z"/>
 <path d="m171.42 449.95h-42.844v42.891h42.844z"/>
 <path d="m900 664.26h-214.31v214.36h214.31zm-42.844 171.52h-128.58v-128.63h128.58z"/>
 <path d="m0 1050.1h42.844v-42.891l-42.844 0.046875v42.891z"/>
 <path d="m1200 1007.3h-42.844v42.891h42.844z"/>
</svg>
