<?xml version="1.0" encoding="UTF-8"?>
<svg width="1200pt" height="1200pt" version="1.1" viewBox="0 0 1200 1200" xmlns="http://www.w3.org/2000/svg">
 <path d="m621.86 76.391c4.4883 2.1133 9.0234 3.2656 13.633 3.793 4.6094 0.50391 9.2891 0.35938 14.137-0.69531 4.8477-1.0781 9.8164-2.7852 15.215-6.625-3.9375-5.3281-8.3281-8.4258-12.84-10.777-4.5117-2.3281-9.2148-3.625-13.992-4.1758-4.7773-0.52734-9.6484-0.33594-14.566 0.9375-4.9219 1.2969-9.8867 3.3125-14.93 7.6562 4.3906 4.9688 8.8555 7.7539 13.344 9.8867z"/>
 <path d="m812.86 129.41c8.9297 6.5039 18.023 12.504 27.359 18.098 9.3359 5.5938 18.887 10.824 28.848 15.648 10.031 4.7266 20.258 9.2891 31.895 12.359-5.9297-10.512-13.656-19.055-21.961-26.879-8.375-7.7266-17.52-14.52-27.215-20.375-9.6953-5.8555-19.992-10.754-30.742-14.52-10.801-3.6719-22.008-6.457-34.078-6.6953 8.1836 8.8789 16.992 15.766 25.895 22.363z"/>
 <path d="m1060.2 382.11c6.5273 12.121 13.273 24.098 20.352 36.07 7.1992 11.93 14.449 23.93 23.52 35.641-0.21484-14.809-3.2656-28.969-7.4414-42.742-4.2734-13.727-9.9102-26.977-16.68-39.602s-14.711-24.602-23.688-35.762c-9.0703-11.09-18.984-21.551-30.984-30.238 4.3203 14.16 10.152 27 16.078 39.648 5.9805 12.621 12.293 24.887 18.844 36.984z"/>
 <path d="m1139 662.38c-0.64844-13.969-2.1367-27.91-6.0703-41.93-5.4492 13.488-8.6641 27.023-11.496 40.512-2.7344 13.488-4.8242 26.953-6.4805 40.414-1.6797 13.465-2.9531 26.953-3.8633 40.586-0.79297 13.656-1.5117 27.383-0.57422 41.902 8.1367-12.07 13.535-25.223 17.855-38.641 4.2227-13.441 7.1055-27.191 8.832-41.062 1.7266-13.867 2.3242-27.836 1.7969-41.781z"/>
 <path d="m739.39 1116c-12.312 1.0781-24.406 2.6172-36.457 4.5352-12.047 1.9219-24.023 4.1992-36.07 6.9844-12.047 2.9023-24.121 6-36.406 11.09 12.574 4.2969 25.32 5.832 38.039 6.4062 12.719 0.45703 25.414-0.35938 37.945-2.3281 12.527-1.9688 24.863-5.1133 36.816-9.4805 11.93-4.4648 23.566-9.9375 34.176-17.977-13.25-0.98438-25.707-0.21484-38.043 0.76953z"/>
 <path d="m140.14 898.05c-6-10.441-12.168-20.809-18.695-31.176-6.625-10.344-13.344-20.762-21.887-30.91-0.28906 13.273 2.2578 25.922 5.9023 38.184 3.7422 12.215 8.9023 24 15.238 35.09 6.3594 11.09 13.945 21.504 22.703 30.863 8.832 9.2891 18.695 17.762 30.527 23.832-4.8008-12.359-10.535-23.281-16.199-34.129-5.7344-10.801-11.566-21.336-17.59-31.754z"/>
 <path d="m83.09 625.7c0.60156-11.305 0.74219-22.656 0.26562-34.152-0.60156-11.52-1.5352-23.137-4.6094-35.184-6.2148 10.777-9.9375 22.008-12.863 33.406-2.8086 11.398-4.5352 23.016-5.1836 34.727-0.64844 11.688-0.21484 23.473 1.4883 35.184 1.8008 11.688 4.6094 23.328 10.152 34.465 3.8633-11.832 5.7852-23.207 7.4883-34.559 1.5781-11.352 2.6602-22.582 3.2617-33.887z"/>
 <path d="m155.14 353.64c6-11.449 11.711-23.062 17.039-35.016 5.2578-12.023 10.367-24.191 14.039-37.656-11.375 8.1367-20.641 18.047-29.062 28.535-8.3281 10.559-15.625 21.863-21.863 33.719-6.2383 11.855-11.449 24.266-15.406 37.129-3.8633 12.887-6.7695 26.137-7.0078 40.129 9.0469-10.656 16.176-21.77 23.09-32.902 6.8359-11.211 13.172-22.488 19.172-33.938z"/>
 <path d="m336.14 149.5c9.1445-5.9023 18.098-12.098 26.902-18.77 8.7852-6.793 17.52-13.777 25.727-22.656-12.098 0.35938-23.328 3.3359-34.129 7.2227-10.777 3.9844-21.023 9.168-30.625 15.359-9.625 6.168-18.602 13.344-26.688 21.48-8.0391 8.2305-15.383 17.23-20.688 28.129 11.496-3.793 21.48-8.832 31.273-14.016 9.7227-5.2773 19.082-10.848 28.227-16.75z"/>
 <path d="m554.66 77.207c9.168-0.74219 18.312-1.9922 27.504-3.8633 9.2148-1.9922 18.457-4.3438 27.984-8.7852-9.2891-4.9453-18.84-7.2969-28.441-8.7852-9.6016-1.3906-19.246-1.6562-28.824-0.91016-9.5742 0.74219-19.078 2.5195-28.32 5.4258-9.2383 3-18.312 6.8633-26.664 13.273 10.105 2.8555 19.609 3.7188 29.016 4.2227 9.3633 0.38281 18.578 0.16797 27.746-0.57812z"/>
 <path d="m1085.1 761.47c-9.1445-6.2383-18.816-11.566-28.992-15.938-10.176-4.3672-20.809-7.7773-31.824-9.9102-9.4805-1.7539-19.199-2.7344-29.184-1.8242 1.6328-11.594 3-22.945 4.8008-34.055 1.0781-6.2383 2.2305-13.129 3.2383-19.895l1.2969-10.152 0.98438-10.176c1.1289-13.559 1.7266-27.121 1.6797-40.68-0.023437-7.1289-0.21484-14.258-0.52734-21.359 9.2148 4.5117 18.672 7.3672 28.031 9.8867 10.848 2.7852 21.695 4.8008 32.449 6.4062 10.777 1.6328 21.48 2.8086 32.281 3.8633 10.871 1.0078 21.551 1.9688 33.574 2.7852-7.8477-9.3125-18.504-15.336-29.207-19.871-10.824-4.4648-22.055-7.2969-33.336-8.9531-11.281-1.6797-22.633-2.1836-33.938-1.7266-9.9844 0.50391-19.895 1.6094-30.023 4.1992-1.0078-18.84-3.0703-37.609-6.5508-56.258-2.6172-13.391-5.9023-26.688-10.414-39.742-1.1992-3.2383-2.3516-6.5508-3.6016-9.6953l-3.4805-8.5195c8.9297 2.0625 17.711 2.7852 26.473 3 10.703 0.16797 21.359-0.625 31.871-2.3984 10.512-1.7539 20.93-4.4648 31.055-8.3047 10.078-3.9375 19.969-8.7617 28.848-16.129-11.398-1.6562-22.008-1.5117-32.52-1.0547-10.488 0.55078-20.809 1.6797-31.055 3.3828-10.246 1.6797-20.449 3.9844-30.625 7.0312-8.6641 2.7109-17.305 5.8086-25.777 10.391-2.1602-5.0898-4.3203-10.176-6.5742-15.238-10.969-24.602-23.977-48.551-39.168-70.871-2.0898-3.0977-4.2734-6.0977-6.4336-9.1445 9.5508-2.6875 18.098-6.6484 26.328-10.922 9.168-4.8945 17.832-10.32 26.137-16.129 8.3281-5.8086 16.297-11.953 24.145-18.602 2.0156-1.7266 4.2227-3.6016 6.3359-5.8555 2.1133-2.1602 4.1992-5.0898 5.375-7.5117 1.2461-2.4727 2.1602-4.7266 3.2656-6.793 1.1289-1.9688 2.3516-3.9609 5.1602-4.8477-1.1992-0.81641-2.7617-1.1523-4.3906-1.1289-1.6328 0.070313-3.2383 0.52734-4.6797 1.1523-2.9297 1.2227-5.3281 2.9531-7.5352 4.3203-2.207 1.4883-3.8398 2.1602-5.9531 3.0469l-6.6719 2.5938c-9.8633 4.0312-19.223 9.2383-27.863 15.238-8.6641 6.0234-16.68 12.863-23.977 20.473-6.4062 6.793-12.359 14.113-17.281 22.656-5.1133-7.1523-10.32-14.23-15.695-21.168l-12.672-15.719c-4.3203-5.1602-8.9023-10.129-13.367-15.145-19.727-21.434-41.543-41.039-65.137-58.105 9.2148-5.6875 17.281-11.113 25.344-16.922 8.375-6.1211 16.535-12.602 24.215-19.922 7.6797-7.2969 14.953-15.434 21.023-24.719 5.9297-9.2891 11.016-19.895 11.664-31.488l-24.816 19.801c-7.9219 6.4336-15.742 12.961-23.328 20.137-7.5859 7.1523-14.879 14.953-21.312 23.762-6 8.4258-11.543 17.855-13.824 28.609-19.703-14.16-40.656-26.52-62.711-36.648-3.0703-1.4141-6.168-2.7852-9.2891-4.1055 6-7.5859 10.488-15.551 14.617-23.641 4.6328-9.2891 8.4961-18.793 11.711-28.512s5.8086-19.633 7.6797-29.855c1.7539-10.246 3.0469-20.688 2.2812-31.969-7.9922 8.0156-13.727 16.945-18.84 26.113-4.9922 9.2148-9.0977 18.793-12.383 28.633-3.2891 9.8398-5.7344 19.945-7.2734 30.336-1.2227 8.9531-1.9219 18.023-1.0547 27.527-20.543-8.543-41.809-15.312-63.406-20.305-26.09-5.9023-52.633-9.2891-79.223-10.68 26.52 2.5195 52.801 7.0312 78.406 13.969 25.633 6.8164 50.566 16.055 74.23 27.816 47.375 23.594 88.848 57.648 123.21 97.441 4.1992 5.0898 8.5664 9.9844 12.672 15.145l12.047 15.648c7.8711 10.609 15.434 21.434 22.535 32.473 14.305 22.078 26.258 45.383 36.457 69.648 2.543 6.0703 5.0156 12.168 7.4141 18.312l3.5508 9.2383c1.1523 3.0703 2.1133 6.0703 3.1914 9.0977 3.9844 12.191 6.9102 24.84 9.1914 37.633 4.3438 25.656 6.0234 51.887 5.6875 78-0.16797 13.078-0.98438 26.113-2.2578 39.07l-1.1055 9.6953-1.3906 9.625c-1.0547 6.3828-2.207 12.602-3.5039 19.465-4.8008 26.902-6.1445 53.258-15.406 76.223-2.3281 5.7344-4.9453 11.375-7.9922 16.824l-9.8164 17.207c-6.625 11.449-13.344 22.754-20.426 33.719-14.16 21.91-29.902 42.551-48.672 59.641-18.816 17.039-40.535 31.199-63.695 42.984-22.992 11.977-47.113 21.91-72 29.398-49.754 15.121-102.07 21.574-154.15 20.23-26.062-0.625-52.055-3.3828-77.711-7.9453-25.703-4.5859-50.93-11.039-75.48-19.633-49.055-17.184-95.113-43.129-134.06-77.039-38.879-33.961-68.953-77.762-83.785-126.89-7.4414-24.551-10.727-50.375-11.902-76.367-1.0078-26.016 0.26562-52.273 2.832-78.527 5.4258-52.559 11.977-105.43 29.207-154.73 8.7344-24.574 20.184-48.215 34.008-70.465 13.969-22.129 29.953-43.078 48.121-62.09 18.023-19.105 37.871-36.602 59.352-51.863 10.633-7.8008 21.863-14.762 33.191-21.504 5.8086-3.1445 11.449-6.5742 17.398-9.457l8.832-4.4883 9-4.1523c48.098-21.91 100.8-34.297 154.08-34.871-26.617-0.76953-53.398 1.1523-79.68 6.168-26.23 5.1602-52.055 12.816-76.777 23.305l-9.2656 3.9375-9.1211 4.2734c-6.1211 2.7344-11.977 6.0469-17.977 9.0703-11.734 6.5039-23.398 13.246-34.488 20.855-22.414 14.902-43.273 32.137-62.398 51.168-4.8945 4.6562-9.3125 9.7695-13.992 14.641-4.3672 5.1602-8.9766 10.105-13.129 15.434l-1.9453 2.4258c-3.5039-9.6719-8.9531-17.688-14.953-25.129-3.1211-3.8164-6.5039-7.3438-10.129-10.754-1.8477-1.7031-3.7695-3.2891-5.832-4.9453-2.1133-1.5859-4.1992-3.0234-6.3359-4.4141-8.6406-5.4727-17.855-9.2891-27.215-12-9.3828-2.5938-18.91-4.5117-29.52-4.4141 6.5273 8.3281 14.137 14.543 21.84 20.23 7.7266 5.5938 15.457 10.391 22.848 15.121 3.7695 2.3516 7.1992 4.6328 11.016 7.1523 3.8164 2.4727 7.7031 5.0391 11.809 7.4141 7.9922 4.6562 16.297 9.0234 26.016 12.289l-3.9844 4.9688c-2.0625 2.6875-4.0312 5.4258-6.0469 8.1367-4.1055 5.375-7.7539 11.09-11.594 16.656-14.328 21.938-26.426 45.406-35.977 69.91-6.6719-5.3281-13.273-9.8164-20.688-13.68-4.3906-2.2812-9-4.2461-14.258-5.7617-1.2734-0.40625-2.6875-0.67188-4.0781-0.96094l-3.5508-0.69531-6.9375-1.1289c-9.2656-1.3438-18.602-2.1367-28.105-2.2305-9.5273 0-19.152 0.38281-29.473 2.7852 8.1602 6.7188 17.113 11.016 26.23 14.496 9.1445 3.3828 18.527 5.7109 28.031 7.1289l7.1523 0.88672 3.5039 0.28906 2.9297 0.28906c4.0547 0.40625 8.543 1.1758 13.199 1.7266 7.6562 0.88672 15.938 1.8711 24.457 0.86328-9.3359 24.961-15.672 50.809-20.594 76.727-1.5352 8.2812-2.9297 16.586-4.2227 24.863-8.3047-3.4805-16.824-5.5195-25.32-7.0078-10.68-1.7539-21.406-2.4258-32.113-2.1133-10.703 0.3125-21.383 1.5586-31.945 3.9102-10.535 2.4727-21.047 5.7617-30.984 11.688 11.039 3.3828 21.625 4.8008 32.16 5.8555 10.535 0.9375 20.977 1.2227 31.391 0.96094 10.441-0.26562 20.832-1.1289 31.297-2.6641 8.1836-1.2734 16.367-2.8086 24.719-5.3516-2.5195 16.465-4.7031 32.93-6.6016 49.512-1.8945 16.703-3.3125 33.527-3.9375 50.473-8.3516-0.12109-16.414 0.71875-24.383 1.8477-10.922 1.6797-21.574 4.1758-31.992 7.4414-10.414 3.2656-20.617 7.2227-30.551 12.047-1.2461 0.57422-2.4727 1.2461-3.6953 1.8711-0.76953 0.48047-1.8477 0.98438-3.0469 1.5352-2.3984 1.0547-5.0156 2.1602-7.6328 3.3828-2.6172 1.2734-5.2305 2.6172-7.7773 4.3203-2.4492 1.6328-5.1602 3.7422-6.3828 6.5742 2.8086-0.91016 5.4492-0.64844 8.1836-0.625l8.1602 0.48047c2.7344 0.14453 5.4961 0.28906 8.4492 0.23828 1.4648 0 3.0469-0.12109 4.8945-0.40625 1.3672-0.19141 2.7617-0.33594 4.1055-0.57422 10.922-1.6797 21.574-4.1758 31.992-7.4141 10.441-3.2148 20.617-7.1992 30.551-12 6.4336-3.1914 12.77-6.625 18.887-10.754-0.16797 7.5117-0.21484 15.023-0.046875 22.559 0.81641 27.191 4.1055 54.648 11.809 81.215 1.4141 4.8008 3.0234 9.5273 4.6797 14.258-9.2656-0.79297-18.457 0.79297-27.168 3.6484-5.1133 1.7031-10.031 3.9844-14.734 6.625-2.2305 1.2734-4.3203 2.6875-6.5039 4.0078l-6.168 4.1055c-7.8711 5.3281-15.648 10.801-23.496 16.586-7.8242 5.8789-15.742 11.832-23.617 19.586 11.016 1.1523 21.504-0.74219 31.559-3.8398 10.008-3.1914 19.512-7.8711 28.176-13.801 2.1836-1.5586 4.1992-2.9766 6.1445-4.4648 1.9219-1.5352 3.9102-3.0234 5.7617-4.6094 3.6016-2.8789 7.2734-5.7617 11.039-8.6641 6.4336-5.0625 13.199-9.9844 20.305-15.742 7.4141 20.09 17.016 39.336 28.777 57.168 8.4492 12.863 17.855 25.055 28.078 36.527-8.9531 3.5742-16.945 8.1602-24.551 13.078-8.9023 5.9023-17.184 12.434-24.961 19.535l-5.7344 5.4258c-1.8945 1.9922-3.5273 3.4336-5.3984 5.2305-3.625 3.5039-7.5586 7.1523-11.281 11.258-3.7188 4.1055-7.3438 8.5938-10.246 13.727-2.832 5.1133-5.0391 10.871-5.0625 16.727 4.4648-3.7695 8.6875-6.5742 13.078-9.1914 4.3672-2.5938 8.8086-5.0156 13.32-7.5586s9.0234-5.2812 13.609-8.4727c2.2305-1.5586 4.6797-3.4805 6.625-5.1133l5.9766-5.2812c7.8477-7.1992 15.215-14.953 21.938-23.352 5.6406-7.1523 10.895-14.688 15.191-23.184 7.3438 8.0391 15.07 15.719 23.207 22.922 20.449 18.312 42.938 34.129 66.602 47.762 1.9219 1.1055 3.8633 2.1602 5.8086 3.2383-5.832 5.1133-11.016 10.703-15.91 16.488-7.4414 8.9531-13.992 18.504-19.703 28.633-5.7852 10.176-10.273 20.953-14.016 31.824-1.8242 5.4727-3.4805 11.039-4.8242 16.777-0.64844 2.8789-1.2734 5.7617-1.7539 8.7109-0.23828 1.4648-0.50391 2.9297-0.67188 4.6562-0.070312 1.6562 0.070313 3.5742 1.1289 4.8008 0.12109-0.71875 0.35938-1.3203 0.67188-1.8477 0.43359 3.4805 2.4258 6.8867 4.8711 9.5508 2.543 2.832 5.4727 5.1133 8.1602 7.2734l0.60156 0.26562c20.688 12.527 42.383 22.488 65.375 29.953 11.496 3.6953 23.328 6.6016 35.473 8.3281 12.121 1.7031 24.527 2.4258 37.031 0.57422-10.945-6.2891-21.719-11.305-32.52-16.223-10.801-4.8711-21.625-9.4062-32.664-13.609-22.055-8.2812-44.785-15.77-69.023-19.297l0.60156 0.26562c-3.3359-0.88672-6.5039-1.6094-9.5273-2.5938-2.9023-1.0078-5.7852-2.2578-8.2578-4.7031 0.33594-0.52734 0.76953-1.0078 1.2227-1.4883l3.0703-3.0469c2.1133-2.1367 4.0781-4.3438 6.0234-6.5508 3.8398-4.4648 7.3672-9.0703 10.727-13.777 6.6953-9.457 12.383-19.152 17.855-28.848 5.4961-9.793 10.586-19.895 15.121-30.406 2.9766-7.0547 5.7109-14.258 7.9922-21.84 19.777 10.535 40.273 19.656 61.367 27.047 20.566 7.2734 41.617 13.105 62.902 17.641-4.8711 6.7695-8.832 13.777-12.527 20.902-4.9688 9.793-9.1211 19.871-12.574 30.191-3.457 10.32-6.1914 20.902-8.0391 31.801-1.7539 10.922-2.8789 22.031-1.6328 33.84 7.7539-8.9766 13.32-18.551 18.383-28.344 4.9453-9.793 9.1211-19.871 12.551-30.215 3.4336-10.32 6.1445-20.93 7.9922-31.801 1.2969-8.1602 2.2812-16.465 2.1602-25.055 3.2148 0.64844 6.4336 1.2734 9.6484 1.8477 26.734 4.8242 53.832 7.8008 81.047 8.543 13.246 0.3125 26.496 0.12109 39.742-0.55078-2.8555 8.2305-4.5859 16.512-5.9766 24.77-1.7773 11.113-2.6406 22.199-2.8789 33.238-0.23828 11.039 0.19141 22.055 1.2461 33.098 1.1523 11.062 2.6875 22.078 5.9023 33.695 6.1211-10.441 9.3594-21.625 11.711-32.762 2.2305-11.16 3.3359-22.391 3.5508-33.602 0.21484-11.184-0.45703-22.367-1.9688-33.48-1.2461-8.4492-2.8086-16.848-5.3984-25.32 39.023-2.4727 77.809-9.2656 115.27-20.785 2.2578-0.69531 4.5117-1.4141 6.7422-2.1367-1.4141 8.4258-1.8711 16.703-2.0156 24.91-0.070312 11.23 0.71875 22.344 2.2812 33.312 1.5352 10.992 3.8633 21.863 7.0312 32.594 3.2891 10.727 7.1758 21.359 13.391 31.633 3.0977-11.688 3.8633-23.039 4.0547-34.297 0.070312-11.23-0.71875-22.344-2.3047-33.312-1.5586-10.992-3.8867-21.863-7.0547-32.594-2.5195-8.1836-5.375-16.297-9.3359-24.266 21.574-7.3438 42.602-16.391 62.809-27 12.602-6.4805 24.938-13.703 36.793-21.77 0.046875 0.23828 0.070312 0.48047 0.12109 0.71875 0.64844 2.9531 1.3672 5.4961 2.1133 8.1602 1.5117 5.2305 3.2656 10.32 5.1133 15.289 3.7695 9.9375 8.0391 19.512 12.793 28.824 4.7266 9.3359 9.9609 18.406 15.816 27.289 5.9531 8.832 12.238 17.566 20.566 25.68 0.40625-11.617-1.6562-22.465-4.5117-32.977-2.9531-10.488-6.9609-20.566-11.902-30.168-4.9219-9.625-10.727-18.793-17.496-27.312-3.4062-4.2461-7.0312-8.375-10.992-12.238-1.9688-1.8945-4.1055-3.8867-6.0703-5.543-0.33594-0.28906-0.64844-0.60156-0.98438-0.88672 9.2891-6.6016 18.238-13.727 26.688-21.574 17.953-16.703 32.879-35.93 46.055-55.848 5.7109 6.2148 11.594 11.809 17.473 17.305 8.3047 7.6328 16.703 14.879 25.246 21.938 8.543 7.0547 17.281 13.922 26.352 20.617 8.7109 6.2891 17.566 12.574 27.816 18.098-11.113 8.8789-20.426 18.648-29.641 28.223-9.2148 9.7695-18.098 19.441-27.121 28.703-9.0234 9.2891-18.266 18.168-28.055 27-9.7188 8.9297-20.137 17.543-30.145 27.887 14.258-1.9688 27.574-6.8164 40.199-13.465 12.551-6.7188 24.145-15.551 34.105-25.777 9.9844-10.223 18.336-21.719 25.246-33.887 6.7422-12.098 12.336-24.742 15.695-38.543 0.45703 0.23828 0.86328 0.50391 1.3438 0.74219-3.7188-11.809-9.9102-22.031-16.992-31.512-7.1523-9.4062-15.406-17.93-24.527-25.391-9.0977-7.4883-19.031-13.969-29.641-19.176-7.4883-3.6016-15.289-6.6719-23.52-8.6875 0.52734-0.81641 1.0781-1.6562 1.6094-2.4727 7.2461-11.473 14.016-23.137 20.617-34.801l9.793-17.594c3.4062-6.2148 6.3359-12.695 8.9297-19.32 2.4727-6.6719 4.5352-13.465 6.1914-20.305 1.6094-6.8398 2.832-13.656 3.8633-20.398 0.070313-0.55078 0.14453-1.0781 0.23828-1.6328 7.9219 5.6641 15.887 10.246 23.879 14.641 9.4805 5.0898 19.008 9.6953 28.801 13.922 9.7695 4.2227 19.777 8.0391 30.191 11.23 10.465 3.0977 21.215 5.832 33.023 6.4805-7.5625-9.0469-16.227-16.031-25.32-22.367z"/>
 <path d="m332.33 224.66c-1.7031-2.0391-2.7852-3.4336-4.2734-5.375-5.7617-7.3906-12.215-15.238-19.801-22.199-3.8398-3.4805-7.8711-6.8164-12.457-9.6719-4.5586-2.7617-9.6484-5.4258-15.215-5.9297 2.9297 4.6328 4.9688 8.9766 7.1758 13.391 2.1836 4.3906 4.3672 8.7617 6.6719 13.055 4.6797 8.5664 9.6016 16.945 15.961 25.199 1.5586 1.9453 3.625 4.3672 5.1836 6.0469 1.7266 1.7773 3.4062 3.6016 5.1836 5.3281 3.5508 3.457 7.1992 6.8398 11.09 10.031 7.8008 6.3359 16.078 12.266 26.113 16.656-2.9297-10.559-7.6328-19.586-12.793-28.199-2.5938-4.2969-5.4258-8.3984-8.3516-12.406-1.418-2.0391-2.9766-3.957-4.4883-5.9258z"/>
 <path d="m397.82 138.1c1.2734 5.0156 2.6641 10.031 4.3203 15.145 0.81641 2.5664 1.8008 5.1133 2.832 7.7773l3.1211 7.4141c4.1992 9.5742 9.0977 18.816 14.832 27.742 5.832 8.8789 12.215 17.543 20.832 25.391 0.12109-11.449-1.9922-22.078-4.6562-32.473-2.7617-10.367-6.3594-20.426-10.656-30.121-2.2578-5.0625-4.3203-9.0977-6.6719-13.801-2.3516-4.6328-4.8711-9.4062-7.8242-14.062-2.9531-4.6328-6.2383-9.2383-10.223-13.391-3.9609-4.1055-8.6406-8.0625-14.184-9.9102 2.1602 5.375 3.4062 10.297 4.6562 15.312z"/>
 <path d="m530.5 190.15 1.6328-7.5117c0.23828-1.3203 0.48047-2.6406 0.625-4.2227l0.16797-4.2734c0.097656-2.6406 0.12109-5.2578 0.070313-7.8711-0.23828-10.465-1.4648-20.785-3.6016-30.938-2.1367-10.129-5.1602-20.09-9.168-29.762-2.0391-4.8477-4.2734-9.5508-6.9102-14.281-2.6875-4.7031-6-9.7695-10.801-12.938 0.55078 5.6406 0.28906 10.512 0.19141 15.695-0.12109 5.207 0.097656 10.465 0.43359 15.602 0.76953 10.273 2.2305 20.352 4.3203 30.289 2.0625 9.9375 4.7773 19.754 8.207 29.473 0.86328 2.4258 1.7773 4.8477 2.7617 7.2734l0.74219 1.8008 0.38281 0.91016 0.3125 0.60156c0.43359 0.96094 0.83984 2.207 1.2734 3.4336 0.91016 2.5195 1.8242 5.1836 3.2148 7.8008 0.64844 1.2969 1.4648 2.5938 2.4492 3.793 0.98438 1.1289 2.2578 2.3516 3.7695 2.4961-0.71875-1.2461-0.69531-2.4492-0.57422-3.6953 0.042968-1.2539 0.23438-2.4531 0.5-3.6758z"/>
 <path d="m645.24 116.33c-1.9219 5.2812-3.3125 10.703-4.5117 16.129-2.3047 10.895-3.1445 21.91-2.8086 32.879 0.45703 10.992 1.8242 21.887 5.543 32.953 5.6641-10.223 8.9766-20.617 11.977-30.84 2.8789-10.246 5.1836-20.375 7.2461-30.406l3.0234-15.023c0.96094-5.0156 1.9688-9.9609 2.8789-15.383 0.86328-5.3984 1.6094-11.16 1.3906-17.062-0.21484-5.8555-1.3906-11.977-4.3906-17.039-3.6016 11.039-8.7852 19.008-13.68 28.609-2.4648 4.6719-4.793 9.8789-6.668 15.184z"/>
 <path d="m534.31 261.67c-22.152 4.2461-43.969 10.609-64.848 19.344-10.535 4.1992-20.688 9.2148-30.742 14.473-9.9102 5.4727-19.777 11.16-29.137 17.566-18.938 12.551-36.574 27.098-52.754 43.152-16.246 16.008-30.551 33.961-43.246 52.969-12.551 19.129-23.113 39.625-31.344 61.078-8.2305 21.504-13.727 43.801-18 66.145-4.1992 22.391-7.2969 44.664-9.9375 67.199-2.5938 22.512-4.1289 45.359-3.6484 68.398 0.64844 22.992 3.4336 46.273 9.9375 68.809 6.6484 22.488 16.535 44.016 29.375 63.574 12.84 19.535 28.199 37.391 45.574 52.824 17.305 15.527 36.359 28.922 56.375 40.465 20.039 11.496 41.062 21.289 62.832 28.895 21.742 7.7031 44.137 13.512 66.719 17.617 22.609 4.1055 45.527 6.625 68.52 7.2461 45.984 1.0781 92.23-4.8242 136.37-18.383 22.078-6.7188 43.512-15.648 63.961-26.375 20.473-10.559 40.32-23.328 57.672-39.504 17.375-16.199 31.367-35.137 43.609-54.504 6.1211-9.6953 11.832-19.559 17.375-29.398l8.2578-14.832c2.9023-5.2812 5.3984-10.824 7.6094-16.488 2.1133-5.6875 3.8633-11.473 5.2578-17.305 1.3672-5.8086 2.375-11.594 3.2656-17.305 1.6797-11.426 2.9297-22.441 4.6328-33.215 0.88672-5.207 1.8711-11.062 2.7109-16.801l1.0781-8.5938 0.81641-8.5938c0.9375-11.473 1.4414-22.945 1.3672-34.391-0.12109-22.922-1.9922-45.816-6.2383-68.496-2.2305-11.328-5.0391-22.586-8.8555-33.648-1.0078-2.7344-1.9922-5.543-3.0469-8.207l-3.2383-7.8477c-2.207-5.2305-4.4414-10.441-6.793-15.625-9.3125-20.762-20.352-40.992-33.215-59.785-6.4062-9.4062-13.129-18.551-20.113-27.48l-10.727-13.246c-3.6484-4.3438-7.5352-8.5195-11.305-12.77-30.816-33.383-67.586-61.68-108.94-80.398-20.641-9.3359-42.215-16.465-64.199-21.406-22.008-4.8945-44.398-7.6562-66.816-8.7344 44.641 4.3906 88.609 15.742 128.33 35.762 39.742 20.039 74.594 48.602 103.41 82.129 3.5273 4.2734 7.1758 8.3984 10.633 12.742l10.105 13.176c6.6016 8.9297 12.938 18.047 18.887 27.359 11.977 18.574 21.984 38.16 30.48 58.586 2.1367 5.1133 4.1992 10.246 6.2148 15.406l2.9766 7.7773c0.96094 2.5664 1.7773 5.0625 2.6641 7.6094 3.3125 10.199 5.7617 20.809 7.6328 31.535 3.6016 21.527 4.9922 43.535 4.6797 65.473-0.16797 10.969-0.86328 21.938-1.9453 32.785l-0.9375 8.1367-1.1758 8.0625c-0.88672 5.3516-1.8711 10.535-2.9766 16.367-4.0781 22.777-5.2578 44.879-12.961 63.91-1.9453 4.7773-4.1055 9.457-6.6484 13.969l-8.2812 14.473c-5.5664 9.625-11.23 19.129-17.184 28.344-11.902 18.383-25.105 35.641-40.777 49.895-15.719 14.207-33.887 26.062-53.305 35.93-19.297 10.031-39.504 18.359-60.383 24.625-41.734 12.648-85.633 18.07-129.31 16.945-43.68-1.1758-87.406-8.8086-128.54-23.09-41.16-14.398-79.777-36.168-112.41-64.535-32.594-28.414-57.77-65.016-70.223-106.08-6.2383-20.543-9-42.168-10.031-63.938-0.88672-21.84 0.14453-43.895 2.2578-65.977 4.4883-44.258 9.9609-88.727 24.312-130.08 7.2969-20.641 16.871-40.512 28.414-59.207 11.688-18.602 25.078-36.266 40.32-52.246 15.121-16.078 31.777-30.793 49.824-43.68 8.9297-6.5508 18.359-12.434 27.887-18.121 9.6719-5.4258 19.414-10.824 29.566-15.336 40.344-18.648 84.672-29.281 129.57-29.93-22.488-0.86719-45.07 0.66797-67.246 4.7969z"/>
 <path d="m322.8 550.46c1.6094-9.457 3.4336-18.84 5.7109-28.078 1.1055-4.6328 2.3281-9.2148 3.625-13.801 1.2227-4.6094 3-8.9766 4.5117-13.465 5.8086-18.07 14.734-34.945 24.289-51.383l7.9453-11.879c1.3438-1.9688 2.6172-3.9844 4.0078-5.9297l4.4414-5.6172 8.8555-11.258 9.6953-10.559c25.824-28.32 57.961-50.641 92.734-67.199 4.2461-2.3047 8.8555-3.8164 13.297-5.6875l6.7188-2.7109c2.2578-0.88672 4.4648-1.8711 6.793-2.5195 9.2383-2.7617 18.359-6.168 27.887-7.9922 4.7266-1.0547 9.4336-2.3047 14.184-3.1914l14.398-2.0898c2.3984-0.3125 4.8008-0.76953 7.2227-0.98438l7.2734-0.43359 14.594-0.83984c-38.93-1.2461-78.48 5.6406-114.84 20.785l-13.535 5.9297-3.3828 1.4883-3.2656 1.7266-6.5273 3.4805-6.5273 3.5039c-2.1836 1.1523-4.3672 2.3047-6.4336 3.6719l-12.504 7.9453c-4.2734 2.5195-8.1367 5.5938-12.121 8.543-3.9375 3-7.9922 5.832-11.832 8.9766l-11.207 9.7422c-1.8477 1.6562-3.7695 3.2148-5.5664 4.9219l-5.2305 5.2812-10.441 10.633-9.5742 11.426-4.8008 5.7109c-1.5117 1.9688-2.9023 4.0312-4.3672 6.0469l-8.6641 12.168c-10.535 16.871-20.473 34.367-27.238 53.281-3.793 9.2891-6.8867 18.816-9.4062 28.465-2.5938 9.625-4.7031 19.32-6.5742 29.039-3.6719 19.488-6.3828 38.832-8.7109 58.441-2.2812 19.586-3.6484 39.48-3.2656 59.566 0.55078 20.062 2.9531 40.367 8.6406 60.07 5.8086 19.656 14.449 38.496 25.656 55.586s24.625 32.688 39.793 46.176c15.098 13.586 31.727 25.273 49.199 35.328 17.496 10.031 35.809 18.574 54.793 25.223 38.016 13.367 77.809 20.426 117.91 21.695 40.078 0.91016 80.426-4.2461 118.89-16.078 19.246-5.8789 37.945-13.656 55.801-23.039 17.855-9.2148 35.207-20.375 50.375-34.559 15.191-14.184 27.406-30.742 38.062-47.641 5.3281-8.4727 10.297-17.039 15.098-25.609l7.1523-12.91c2.543-4.6562 4.7266-9.5273 6.6719-14.473 3.7695-9.9844 5.9766-20.375 7.4414-30.336 1.4648-9.9609 2.5195-19.512 4.0078-28.848 0.74219-4.4883 1.6094-9.625 2.3281-14.617 0.67188-5.0156 1.2227-10.008 1.6328-15 0.79297-10.008 1.2227-19.992 1.1523-29.977-0.14453-19.969-1.8008-39.91-5.543-59.688-1.9453-9.8633-4.4141-19.703-7.7773-29.352-0.88672-2.3984-1.7539-4.8477-2.6875-7.1758l-2.832-6.8164c-1.9219-4.5352-3.8867-9.0703-5.9297-13.586-8.1367-18.047-17.809-35.664-29.039-52.008-5.5938-8.1836-11.449-16.129-17.543-23.879l-9.3594-11.52c-3.1914-3.793-6.5742-7.4141-9.8633-11.09-26.902-28.969-58.969-53.543-94.992-69.719-17.977-8.0625-36.77-14.207-55.895-18.457-19.152-4.1758-38.617-6.5039-58.078-7.3672 38.762 3.9844 76.871 13.969 111.29 31.441 34.414 17.496 64.559 42.312 89.449 71.449 12.527 14.473 23.855 30.145 34.246 46.246 10.344 16.129 18.961 33.07 26.305 50.785 1.8477 4.4141 3.625 8.8789 5.3516 13.367l2.5664 6.7695c0.81641 2.2305 1.5117 4.3906 2.2812 6.5742 2.832 8.8086 4.9453 17.977 6.5508 27.266 3.0977 18.625 4.2734 37.68 3.9609 56.688-0.14453 9.5039-0.76953 18.984-1.7266 28.367-0.48047 4.7031-1.1289 9.3594-1.8477 14.016-0.79297 4.6328-1.6328 9.0977-2.5938 14.184-3.5742 19.895-4.6094 38.977-11.23 55.246-1.6797 4.0781-3.5273 8.0898-5.7109 11.977l-7.1758 12.551c-4.8477 8.3516-9.7695 16.586-14.93 24.527-10.32 15.887-21.719 30.77-35.23 43.031-13.559 12.191-29.207 22.465-46.008 30.984-16.68 8.6641-34.152 15.863-52.199 21.289-36.098 10.945-74.062 15.602-111.86 14.617-37.777-1.0078-75.648-7.5859-111.21-19.922-35.617-12.434-68.977-31.246-97.199-55.727-28.176-24.504-49.922-56.062-60.695-91.441-10.633-35.566-10.367-74.184-6.8633-112.37 1.8477-19.203 4.1289-38.523 7.25-57.41z"/>
</svg>
