<?xml version="1.0" encoding="UTF-8"?>
<svg width="1200pt" height="1200pt" version="1.1" viewBox="0 0 1200 1200" xmlns="http://www.w3.org/2000/svg">
 <path d="m841.31 630.24c-3.2344-0.70312-6.375 1.3125-7.0781 4.4531l-1.7812 7.6875c-0.70312 3.2344 1.3125 6.4688 4.4531 7.2188l42.703 7.6875c3.7031 0.84375 7.3125-1.5469 8.1562-5.1562l2.0625-8.8594c0.84375-3.7031-1.4531-7.4531-5.1562-8.2969l-43.453-4.6875z" fill="#ff6246"/>
 <path d="m357 644.53c-1.5469-2.8594-5.1562-3.9375-8.0625-2.3906l-35.391 19.453c-3.375 1.7812-4.5469 6-2.7656 9.375l4.3125 7.9219c1.7812 3.375 6 4.5469 9.375 2.7656l33.938-22.078c2.8594-1.5469 3.9375-5.2969 2.3906-8.1562l-3.8438-6.8438z" fill="#ff6246"/>
 <path d="m612.14 795.37-7.9219 0.60938c-4.6875 0.375-8.0625 4.4531-7.6875 9l10.922 107.77c0.375 4.2188 3.9375 7.2188 8.0625 6.9375l7.0781-0.60938c4.2188-0.375 7.2188-3.9375 6.9375-8.0625l-8.3906-107.86c-0.375-4.6875-4.4531-8.0625-9-7.6875z" fill="#ff6246"/>
 <path d="m454.08 281.16-6.375 3.1406c-3.7031 1.7812-5.2969 6.375-3.4688 10.078l41.625 94.922c2.0625 4.2188 7.0781 5.8594 11.297 3.8438l7.0781-3.4688c4.2188-2.0625 5.8594-7.0781 3.8438-11.297l-43.922-93.844c-1.7812-3.7031-6.375-5.2969-10.078-3.4688z" fill="#ff6246"/>
 <path d="m810.37 350.06-77.156 70.781c-3.375 3.2344-3.375 8.5312 0 11.859l5.5312 5.625c3.2344 3.375 8.5312 3.375 11.859 0l75.375-72.609c3-2.8594 3-7.6875 0-10.688l-5.0625-5.0625c-2.8594-3-7.6875-3-10.688 0z" fill="#ff6246"/>
</svg>
