<?xml version="1.0" encoding="UTF-8"?>
<svg width="1200pt" height="1200pt" version="1.1" viewBox="0 0 1200 1200" xmlns="http://www.w3.org/2000/svg">
 <path d="m10.078 311.16c-0.91016-11.043-0.58984-22.148 0.96094-33.121 6.3125-44.191 32.961-82.875 72-104.52 9.6406-5.1172 19.824-9.1445 30.359-12 12-3 18.719-3.9609 27.719-5.8789l52.078-10.078c150.84-29.16 300-51.961 426.24-58.801 38.766-2.7617 64.566 0.11719 47.766 12.84-17.801 10.594-37.156 18.328-57.359 22.918-102.96 20.402-206.16 41.762-309.84 63.48l-154.8 32.641-9.4805 2.0391-6.4805 1.8008c-4.1289 1.3984-8.1406 3.1211-12 5.1602-7.9336 4.0742-15.113 9.4727-21.238 15.961-12.254 13.109-19.551 30.086-20.641 48-0.36719 4.4297-0.36719 8.8867 0 13.32l1.0781 6.7188 1.9219 9.4805 8.1602 38.879 15.84 77.398 30.84 154.8 14.879 76.922c3.6328 18.438 13.406 35.105 27.723 47.277 14.676 12.285 33.066 19.262 52.199 19.801h7.1992l7.1992-0.83984c5.6406-0.83984 12.602-2.1602 18.84-3.1211l38.762-6.5977h2.1602c6.7461-1.1484 13.672 0.43359 19.254 4.3945 5.582 3.9609 9.3594 9.9766 10.508 16.727l12 74.52 8.6406 39.602 2.1602 9.9609-0.003906-0.003906c-0.078125 0.4375-0.078125 0.88281 0 1.3203 0.48438 0.52344 1.1094 0.89844 1.8008 1.0781h2.2812c0.35938 0 0 0 0 0l2.5195-3.9609 109.2-171v0.003906c3.6836-6.0625 9.6523-10.387 16.559-12h0.60156l201.6-44.16 50.398-10.922 25.199-5.3984 15.121-3.3594 3.1211-0.71875 2.2812-0.60156 4.5586-1.1992c18.957-5.8164 35.246-18.148 45.984-34.816 10.742-16.668 15.238-36.602 12.695-56.266-0.60156-5.8789-3.1211-17.039-4.9219-25.922l-5.6406-28.078-22.078-112.8-21.359-112.8-10.559-56.281-5.2812-27.961v0.003906c-1.4531-7.2578-3.7891-14.312-6.9609-21-12.758-25.824-34.59-46.031-61.32-56.762-21.238-8.8789-38.039-11.281-42.48-18.48-2.3984-3.8398 0-7.9219 7.1992-12v0.003907c11.141-5.6211 23.535-8.3086 36-7.8008 19.617 0.30469 38.859 5.4141 56.043 14.879 21.688 11.945 39.664 29.629 51.957 51.121 5.7031 10.109 10.176 20.867 13.32 32.039l2.2812 8.2812 1.5586 6.6016 3.6016 12.836 12 53.281 24 106.56 23.398 106.8 12 53.398 2.8789 13.32c0.96094 5.3984 2.0391 12 2.7617 17.52v0.003906c2.8438 30.293-3.543 60.738-18.32 87.34-14.777 26.598-37.254 48.105-64.48 61.699-10.824 5.3789-22.27 9.4062-34.078 12-10.199 2.2812-18.238 3.8398-27.48 5.7617l-53.641 10.922-203.04 40.676-68.641 101.52-35.281 55.559-2.1602 3.4805c-1.0781 1.6797-3.2383 4.5586-5.0391 6.7188v0.003906c-14.281 16.68-36.355 24.512-57.961 20.555-21.602-3.9531-39.473-19.094-46.918-39.758-0.96094-2.7617-1.8008-5.7617-2.3984-8.5195l-0.83984-3.9609-1.6797-8.0391-3.4805-16.078-6.8398-32.16-6.3594-30-18 3.7188c-3.7188 0.83984-10.559 1.9219-15.961 2.6406-5.3984 0.71875-12 0.83984-17.281 1.1992-11.598-0.046875-23.152-1.4141-34.441-4.0781-45.723-10.836-83.633-42.652-102.24-85.801-2.0391-5.3984-4.1992-10.801-5.7617-16.32l-1.918-8.2812-1.0781-4.1992-0.60156-3.2383-15.48-78.117-20.398-104.28-20.281-104.16-10.078-52.078-2.8828-13.082c0-4.6797-1.1992-10.797-1.9219-16.078zm316.92 43.199c48-4.6797 96.84-6.4805 142.92-22.32 6 0 12-0.96094 18-1.6797 37.902-3.6797 75.102-12.645 110.52-26.641 5.6406-2.4648 10.117-7 12.508-12.676 2.3906-5.6719 2.5078-12.047 0.33203-17.805-3.8398-14.762-13.559-24-24.719-24h-0.003906c-20.141 0.1875-40.219 2.1953-60 6-31.199 7.1992-61.68 17.281-92.398 26.16-60-8.8789-115.2 14.879-172.8 22.32-2.5195 0-5.1602 7.4414-5.5195 12-0.36328 8.1484 3.4336 15.922 10.082 20.641 17.152 13.891 39.133 20.367 61.078 18zm307.8 31.082c-3.8398-14.762-13.559-24-24.719-24h-0.003906c-20.137 0.18359-40.219 2.1914-60 6-31.199 7.1992-61.68 17.281-92.398 26.16-60-8.8789-115.2 14.879-172.8 22.32-2.5195 0-5.1602 7.4414-5.5195 12-0.36328 8.1445 3.4336 15.918 10.082 20.637 16.965 13.402 38.496 19.645 60 17.402 48-4.6797 96.84-6.4805 142.92-22.32 6 0 12-0.96094 18-1.6797h-0.003906c37.902-3.6797 75.105-12.648 110.52-26.641 5.6992-2.2617 10.312-6.6172 12.902-12.172 2.5898-5.5547 2.9531-11.891 1.0195-17.707zm-105.6 110.4c-13.754-1.0625-27.59-0.33594-41.16 2.1602-21.238 5.1602-41.879 13.199-62.762 20.039-42.602-12.602-79.441 7.4414-119.16 11.16-1.8008 0-3.1211 6.9609-3.1211 12h0.003906c0.12109 7.7969 3.1133 15.273 8.3984 21 10.398 13.41 26.473 21.18 43.441 21 33.238-1.5586 67.199 0 98.398-12.961h12c26.219-1.2109 51.906-7.7891 75.48-19.316 6.7188-3.6016 11.039-13.078 7.0781-29.281-3.957-16.199-10.918-25.562-18.598-25.801zm659.64 164.16c1.5508 9.3555 1.957 18.867 1.1992 28.32-0.42578 4.6328-1.1055 9.2422-2.0391 13.801l-2.0391 10.199-7.9219 39-16.078 77.879-16.801 77.641-8.7617 38.641-4.5586 19.32v2.5195l-2.8828 10.078c-1.4414 4.4414-3.2383 8.6406-5.0391 12.961h0.003906c-15.707 33.637-46.672 57.629-83.16 64.441-8.7852 1.6055-17.727 2.168-26.641 1.6797-4.4414 0-8.7617-0.71875-13.078-1.6797-4.3203-0.96094-9.1211-1.9219-12-2.7617l-14.52-4.3203-9.6016 51.961-1.6797 8.8789h-0.003907c-0.66406 4.0664-1.625 8.0781-2.8789 12-4.6484 13.211-15.012 23.617-28.199 28.32-13.191 4.6992-27.789 3.293-39.84-3.8398-5.9062-3.6094-10.98-8.4375-14.879-14.16l-5.1602-7.5586-74.52-109.08-50.762-10.078c-36-7.3203-72-15.48-107.28-24l-26.762-6.6016-12.957-3.6016-6.7188-1.6797-8.5195-2.3984v-0.003906c-23.074-7.2109-43.062-21.961-56.762-41.879-12.613-17.27-17-39.207-12-60 4.3203-15 13.199-21.719 20.641-21.359s12.961 8.3984 17.52 17.52c4.7266 10.625 10.816 20.59 18.121 29.641 4.7812 5.6445 10.66 10.258 17.277 13.559 3.2383 1.5508 6.6133 2.7969 10.082 3.7188l5.2812 1.0781 8.5195 1.4414c23.441 4 46.84 8.2383 70.199 12.719 46.32 9.125 92.758 18.723 139.32 28.805 9.3906 1.9883 17.598 7.6484 22.801 15.719 21.762 33.762 43.281 67.719 64.559 101.88l2.2812-12 9.2383-47.398c1.7422-8.9219 6.9531-16.789 14.492-21.875 7.5352-5.0859 16.781-6.9727 25.707-5.2461h0.96094l26.762 5.3984 13.441 2.7617h-0.003906c2.8086 0.60547 5.6562 1.0039 8.5195 1.1992 10.867 0.87109 21.719-1.7812 30.961-7.5586 9.207-5.8867 16.309-14.539 20.281-24.719 0.55469-1.2812 0.99609-2.6055 1.3203-3.9609 0.53516-1.6523 0.97656-3.3359 1.3203-5.0391l3.1211-13.32 6.2383-26.52 51.121-211.92 1.6797-6.7188 1.0781-5.0391c0.67578-3.2031 1.0781-6.4531 1.1992-9.7227 0.33984-6.5078-0.34766-13.027-2.0391-19.32-3.3906-13.375-10.555-25.496-20.641-34.918-5.2344-4.7656-11.086-8.8008-17.398-12l-4.9219-2.3984-5.8789-2.3984-11.16-6.0039c-15.238-6.7188-29.762-13.922-43.441-21.602-16.559-9.3594-26.762-19.199-15.84-26.039 9.5664-4.5156 20.254-6.1016 30.723-4.5586l38.641 8.7617 9.7188 2.1602 4.8008 1.0781h2.3984l3.3594 0.83984c9.207 2.1914 18.113 5.4961 26.52 9.8398 34.43 17.871 58.211 51.156 63.961 89.52zm-282.12 441.96 1.1992-1.3203h0.003906c-0.95703-0.11719-1.9258-0.11719-2.8828 0l0.71875 0.96094c0.003907 0 0.60156 1.0781 0.96094 0.35938z" fill="#ff6246"/>
</svg>
