<?xml version="1.0" encoding="UTF-8"?>
<svg width="1200pt" height="1200pt" version="1.1" viewBox="0 0 1200 1200" xmlns="http://www.w3.org/2000/svg">
 <path d="m657.48 310.08c0 26.512-21.492 48-48 48-26.512 0-48-21.488-48-48 0-26.508 21.488-48 48-48 26.508 0 48 21.492 48 48z" fill="#ff6246"/>
 <path d="m37.68 502.56c0.0625 11.555 4.7148 22.609 12.93 30.734 8.2109 8.1211 19.316 12.652 30.871 12.586 38.641 0 77.16-1.0781 115.8-1.5586-21.805 117.8-21.398 238.63 1.1992 356.28-3.0234 1.9375-5.8047 4.2344-8.2812 6.8398l-144 192c-5.7656 7.7305-8.8789 17.113-8.8789 26.758 0 11.742 4.6875 23 13.027 31.27 8.3359 8.2695 19.629 12.867 31.371 12.77 178.92 0 360-4.6797 536.88-12l516-22.441c12 0 12.719-4.5586 2.7617-9.6016 9.9609 5.1602 13.078 1.4414 7.0781-8.8789l-1.6797-2.7617c-37.32-61.922-79.078-132.72-125.64-197.52l0.003906 0.003906c27.332-130.59 27.332-265.41 0-396l111.48-4.1992c12.84 0 16.68-6.9609 8.8789-14.879 7.8008 8.0391 15 3.8398 16.68-10.078v-3.8398c3.9609-41.641 7.1992-86.039 8.3984-130.08v-0.003906c0.14844-4.3516-0.89062-8.6602-3.0039-12.465-2.1133-3.8047-5.2227-6.9609-8.9961-9.1367l-0.83984-0.35938c-172.8-102.08-346.44-202.52-520.92-301.32-11.613-6.5469-25.746-6.7734-37.562-0.60156l-1.1992 0.60156c-177.36 93.281-354.04 188.08-530.04 284.4-6.9375 3.8242-12.723 9.4336-16.754 16.25s-6.1602 14.594-6.168 22.512l0.71875 144zm543.6 391.68c-45.121-0.83984-90.238-1.0781-135.36-1.5586 21.32-116.67 20.914-236.28-1.2031-352.8 46.078-1.0781 92.281-2.1602 138.12-3.4805-22.895 118.13-23.422 239.52-1.5586 357.84zm54.719-359.4 140.28-4.8008c-24.332 121.7-24.984 246.94-1.9219 368.88-45.602-1.0781-91.199-2.6406-136.68-3.6016 22.062-119.2 21.492-241.49-1.6797-360.48zm-247.2 357.12c-44.762 0-89.641-1.3203-134.4-1.6797h-0.003906c20.625-114.67 20.301-232.13-0.95703-346.68 45.602-0.71875 90.961-1.1992 136.44-2.2812h-0.003906c-21.836 115.83-22.203 234.68-1.0781 350.64zm716.28 209.4c9.5391 9.7266 20.406 18.047 32.281 24.719-12.41-5.4883-25.695-8.7383-39.238-9.5977h-3.3594c-177-5.8789-349.32-15.121-516.6-22.441-137.88-6-273.24-9.3594-409.08-10.922l78.719-105c244.08-1.4414 488.08-6.1602 732-14.16 37.68 45.961 79.441 87.961 125.04 137.52zm-138-197.4c-46.199-1.4414-92.398-2.2812-138.72-3.6016 23.531-122.95 22.879-249.3-1.918-372l142.92-5.1602h-0.003906c-25.996 125.52-26.77 254.95-2.2812 380.76zm-356.88-788.04c166.8 87.52 334.36 173.64 502.68 258.36 1.6797 29.762 4.3203 60 7.8008 91.441v-0.003906c2.1523 13.281 7.8789 25.727 16.559 36-10.566-8.8945-23.762-14.082-37.559-14.758h-3.7188c-333.72-12-652.56-25.441-970.68-28.078v-74.641c162.4-88.164 324.04-177.6 484.92-268.32z" fill="#ff6246"/>
</svg>
