<?xml version="1.0" encoding="UTF-8"?>
<svg width="1200pt" height="1200pt" version="1.1" viewBox="0 0 1200 1200" xmlns="http://www.w3.org/2000/svg">
 <path d="m1119.6 457.92c-0.84375-30.703-2.0625-61.688-5.5312-93.141-3.7031-31.453-9-63.703-21.938-95.531-6-15.844-14.766-31.219-24-45.375-9.375-13.781-19.922-26.766-31.453-38.859-23.156-24.141-49.547-44.766-81.234-59.859-31.312-14.297-64.078-21.844-95.625-26.297-31.688-4.4531-62.766-6.4688-93.609-7.9219-61.547-2.5312-122.16-3-182.86-4.0781-60.703-0.84375-121.55-2.3906-184.55 0.84375-31.547 1.7812-63.938 5.0625-97.312 13.547-16.688 4.4531-33.609 9.9375-49.922 18.141-8.2969 3.7031-16.078 8.5312-24 13.078-7.4531 4.6875-14.531 9.6094-21.469 14.859-27.844 21-52.312 46.219-72.141 75.844-21 30.938-33.234 66-40.688 99-14.156 62.297-16.312 133.22-11.297 188.39 5.5312 55.219 19.453 95.062 49.453 93.234 24.703-1.4531 35.391-41.156 40.547-92.766 5.2969-51.469 5.1562-115.31 13.219-161.06 4.2188-26.156 11.391-49.312 21.938-69 5.2969-9.375 12.234-19.688 20.062-29.156 7.7812-9.375 16.219-18.234 25.453-26.391 9-7.9219 19.312-15.844 28.922-21.469 9.375-6 19.781-10.688 30.938-14.625 22.453-7.9219 48.375-12.609 75.703-15.609 55.078-5.5312 114.14-5.7656 173.06-6.4688 59.156-0.375 118.69-1.0781 177-0.46875 57.844 1.0781 116.3 2.625 163.92 16.547 23.859 7.3125 42.703 17.156 62.859 33.609 19.219 15.469 36.609 34.781 49.219 55.219 24.469 38.391 31.312 93.703 34.453 150.71 3 57.234 2.7656 116.53 2.7656 175.69 0 61.922 0.375 123.94-2.3906 183.94-3.1406 59.625-9.7031 117.7-36.375 157.31-14.297 21.703-32.531 41.297-53.297 57.141-10.781 8.1562-20.766 14.391-31.922 19.688-11.297 5.0625-23.062 9.6094-36.141 12.703-52.078 13.078-113.86 13.922-174.71 15-61.219 0.60938-123.71 0.46875-185.29 0.23438-61.312-0.60938-123.14-0.9375-178.45-10.078-27.469-4.9219-52.312-12.375-72.938-24.938-21.469-12.703-42.141-30.938-58.453-51.141-17.297-21.141-27.469-40.922-35.062-66.703-7.2188-25.312-11.062-53.766-13.312-83.156-5.7656-77.625 8.2969-199.69-36.469-204.71-47.156-5.5312-36 120.94-31.312 200.39 2.0625 30.938 4.7812 62.531 12.609 94.453 3.8438 15.938 9 31.922 15.844 47.391 7.0781 15.234 15.844 30.844 25.547 43.781 19.547 26.766 43.453 50.391 70.688 69.375 27.844 19.781 60.703 32.391 92.391 39.375 63.844 13.688 125.53 13.781 186.61 15 61.078 0.46875 121.45 0.46875 182.39 0 60.938-0.70312 122.29-0.70312 185.76-11.062 31.547-5.1562 64.312-14.766 94.453-31.453 29.766-17.297 54.609-38.766 76.312-64.078 21.375-24.609 39.609-55.547 49.312-87.609 10.453-31.922 14.531-63.703 17.531-94.922 5.2969-62.531 4.9219-123.37 5.2969-184.22 0-60.703 0.60938-121.22-0.70312-182.76z" fill="#ff6246"/>
 <path d="m419.86 561.24c-10.453 0-26.062-11.766-26.766 32.391-0.70312 47.625 15.609 34.312 25.547 34.922 49.688 2.7656 99.375 1.6875 149.06 1.3125 0 54.844-0.14062 109.69 0.23438 164.53 0 10.547-11.766 26.062 32.391 26.766 47.766 0.70312 34.312-15.609 34.922-25.547 3-55.078 1.3125-110.06 1.3125-165.14 52.078 1.5469 104.3 6.375 156.24 20.062 14.531 3.8438 35.625 8.5312 35.156-51.609-0.375-49.219-20.297-43.688-33.703-43.922-52.078-0.84375-104.3 4.0781-156.37 5.5312 2.1562-46.312 7.3125-92.766 19.453-138.94 3.8438-14.531 8.3906-35.625-51.609-35.156-49.219 0.375-43.688 20.297-43.922 33.703-0.70312 46.922 3.1406 93.844 4.9219 140.76-48.938 0-97.922 0-146.86 0.23438z" fill="#ff6246"/>
</svg>
