<?xml version="1.0" encoding="UTF-8"?>
<svg width="1200pt" height="1200pt" version="1.1" viewBox="0 0 1200 1200" xmlns="http://www.w3.org/2000/svg">
 <path d="m1152 192.05v-24h-191.95v24h-24v24h-24v24h-24v239.95h-24v-144h-24v-24h-743.95v24h-24v551.95h-24v24h-24v96h24v24h839.95v-24h24v-96h-24v-24h-24l-0.046875-359.95h48v-24h24v-216h24v24h192v-24h24v-96h-24zm-383.95 167.95h48v527.95h-48zm-551.95 0h503.95v48h-503.95zm0 96h503.95v96h-503.95zm0 144h48v240h48v-240h24v240h48v-240h24v240h48v-240h24v240h48v-240h24v240h48v-240h24v240h48v-240h48v288h-504zm-96-240h48v527.95h-48zm743.95 623.95h-791.95v-48h791.95zm263.95-719.95h-144v-48h144z"/>
</svg>
