<?xml version="1.0" encoding="UTF-8"?>
<svg width="1200pt" height="1200pt" version="1.1" viewBox="0 0 1200 1200" xmlns="http://www.w3.org/2000/svg">
 <path d="m1117.5 425.26v-22.5h-180v-180h-22.5v-22.5h-630v22.5h-22.5v180h-180v22.5h-22.5v540h22.5v22.5h1035v-22.5h22.5v-540zm-810-180h585v157.5h-22.5v-112.5h-22.5v-22.5h-495v22.5h-22.5v112.5h-22.5zm517.5 67.5v90h-450v-90zm270 630h-990v-315h135v67.5h22.5v22.5h135v-22.5h22.5v-67.5h360v67.5h22.5v22.5h135v-22.5h22.5v-67.5h135zm-810-270v-135h90v135zm540 0v-135h90v135zm270-90h-135v-67.5h-22.5v-22.5h-135v22.5h-22.5v67.5h-360v-67.5h-22.5v-22.5h-135v22.5h-22.5v67.5h-135v-135h990z"/>
</svg>
