<?xml version="1.0" encoding="UTF-8"?>
<svg width="1200pt" height="1200pt" version="1.1" viewBox="0 0 1200 1200" xmlns="http://www.w3.org/2000/svg">
 <path d="m667.5 459.74h-495v-45h495zm472.5-112.5v337.5h-22.5v22.5h-337.5v90h-22.5v22.5h-22.5v22.5h-45v22.5h-67.5v22.5h-405v-22.5h-67.5v-22.5h-45v-22.5h-22.5v-22.5h-22.5v-382.5h22.5v-22.5h22.5v-22.5h45v-22.5h67.5v-22.5h900v22.5zm-1012.5 112.5h22.5v22.5h67.5v22.5h405v-22.5h67.5v-22.5h22.5v-45h-22.5v-22.5h-67.5v-22.5h-405v22.5h-67.5v22.5h-22.5zm607.5 45h-45v22.5h-67.5v22.5h-405v-22.5h-67.5v-22.5h-45v270h22.5v22.5h22.5v22.5h67.5v22.5h405v-22.5h67.5v-22.5h22.5v-22.5h22.5zm360-135h-360v22.5h22.5v22.5h22.5v247.5h315z"/>
</svg>
