<?xml version="1.0" encoding="UTF-8"?>
<svg width="1200pt" height="1200pt" version="1.1" viewBox="0 0 1200 1200" xmlns="http://www.w3.org/2000/svg">
 <path d="m1117.5 531v-22.5h-517.5v-22.5h-22.5v-22.5h-22.5v-22.5h-22.5v-22.5h-22.5v-22.5h-22.5v-22.5h-22.5v-22.5h-22.5v-22.5h-22.5v-22.5h-22.5v-22.5h-45v-22.5h-45v22.5h-22.5v22.5h-22.5v45h22.5v67.5h-22.5v22.5h-22.5v22.5h-22.5v22.5h-22.5v22.5h-22.5v22.5h-67.5v22.5h-22.5v22.5h-22.5v45h22.5v22.5h22.5v22.5h22.5v22.5h22.5v22.5h22.5v22.5h22.5v22.5h22.5v22.5h45v22.5h90v90h45v-22.5h22.5v22.5h45v-22.5h22.5v22.5h45v-22.5h22.5v22.5h45v-22.5h22.5v22.5h45v-22.5h22.5v22.5h45v-22.5h22.5v22.5h45v-22.5h22.5v22.5h45v-22.5h22.5v22.5h45v-22.5h22.5v22.5h45v-22.5h22.5v22.5h45v-22.5h22.5v22.5h45v-360zm-922.5 22.5h22.5v-22.5h22.5v-22.5h22.5v-22.5h22.5v-22.5h22.5v-22.5h45v45h-22.5v22.5h-22.5v22.5h-22.5v22.5h-22.5v22.5h-22.5v22.5h-45zm247.5-22.5v45h-22.5v22.5h-22.5v22.5h-22.5v22.5h-22.5v22.5h-22.5v22.5h-45v-22.5h-22.5v-45h22.5v-22.5h22.5v-22.5h22.5v-22.5h22.5v-22.5h22.5v-22.5h45v22.5zm-180 225v-22.5h-22.5v-22.5h-22.5v-22.5h-22.5v-22.5h-22.5v-22.5h-22.5v-22.5h-22.5v-22.5h22.5v22.5h22.5v22.5h22.5v22.5h22.5v22.5h22.5v22.5h22.5v22.5h90v-22.5h22.5v-22.5h22.5v-22.5h22.5v-22.5h22.5v-22.5h22.5v-22.5h22.5v-90h-22.5v-22.5h-22.5v-22.5h-22.5v-22.5h-22.5v-22.5h-22.5v-22.5h-22.5v-22.5h-22.5v-22.5h-22.5v-22.5h22.5v-22.5h22.5v22.5h22.5v22.5h22.5v22.5h22.5v22.5h22.5v22.5h22.5v22.5h22.5v22.5h22.5v22.5h22.5v22.5h22.5v22.5h22.5v22.5h22.5v90h-22.5v22.5h-22.5v22.5h-22.5v22.5h-22.5v22.5h-22.5v22.5zm832.5 67.5h-697.5v-22.5h90v-22.5h45v-22.5h22.5v-22.5h22.5v-22.5h22.5v-22.5h22.5v-45h22.5v-22.5h450zm0-247.5h-450v-22.5h450z"/>
</svg>
