<?xml version="1.0" encoding="UTF-8"?>
<svg width="1200pt" height="1200pt" version="1.1" viewBox="0 0 1200 1200" xmlns="http://www.w3.org/2000/svg">
 <path d="m1095 471.74v-22.5h-112.5v-22.5h-22.5v-22.5h-22.5v-22.5h-585v-22.5h-22.5v-22.5h-135v22.5h-22.5v22.5h-22.5v45h-22.5v-22.5h-22.5v-22.5h-45v247.5h45v-22.5h22.5v-22.5h22.5v112.5h-22.5v112.5h-22.5v67.5h22.5v22.5h135v-22.5h22.5v-180h22.5v22.5h22.5v45h22.5v22.5h22.5v45h22.5v22.5h90v-22.5h22.5v-45h-22.5v-45h-22.5v-22.5h-22.5v-45h-22.5v-22.5h-22.5v-22.5h540v-22.5h22.5v-22.5h22.5v-22.5h112.5v-22.5h45v-67.5zm-967.5 45v22.5h-22.5v-67.5h22.5v22.5h22.5v22.5zm135 135h-22.5v202.5h-90v-45h22.5v-112.5h22.5v-67.5h67.5zm-67.5-67.5v-180h22.5v-22.5h90v22.5h22.5v180zm225 135v45h22.5v22.5h22.5v22.5h-45v-22.5h-22.5v-45h-22.5v-22.5h-22.5v-45h-22.5v-45h22.5v22.5h22.5v45h22.5v22.5zm0-135h-45v-157.5h45zm405 0h-360v-157.5h360zm90 0h-45v-157.5h45zm180-67.5h-112.5v22.5h-22.5v-67.5h22.5v22.5h112.5z"/>
</svg>
