<?xml version="1.0" encoding="UTF-8"?>
<svg width="1200pt" height="1200pt" version="1.1" viewBox="0 0 1200 1200" xmlns="http://www.w3.org/2000/svg">
 <path d="m1117.5 487.5v-22.5h-22.5v-22.5h-22.5v-22.5h-22.5v-22.5h-67.5v-22.5h-22.5v-67.5h-22.5v-22.5h-22.5v-22.5h-22.5v-22.5h-22.5v-22.5h-22.5v-22.5h-22.5v-22.5h-22.5v-22.5h-45v-22.5h-45v-22.5h-180v22.5h-45v22.5h-45v22.5h-22.5v45h135v22.5h67.5v22.5h45v22.5h22.5v45h-22.5v22.5h-22.5v22.5h-22.5v22.5h-22.5v22.5h-22.5v22.5h-22.5v22.5h-22.5v22.5h-22.5v22.5h-22.5v22.5h-22.5v22.5h-22.5v22.5h-22.5v22.5h-22.5v22.5h-22.5v22.5h-22.5v22.5h-22.5v22.5h-22.5v22.5h-22.5v22.5h-22.5v22.5h-22.5v22.5h-22.5v22.5h-22.5v22.5h-22.5v22.5h-22.5v22.5h-22.5v22.5h-22.5v22.5h-22.5v22.5h-22.5v45h22.5v22.5h22.5v22.5h22.5v22.5h22.5v22.5h22.5v22.5h45v-22.5h22.5v-22.5h22.5v-22.5h22.5v-22.5h22.5v-22.5h22.5v-22.5h22.5v-22.5h22.5v-22.5h22.5v-22.5h22.5v-22.5h22.5v-22.5h22.5v-22.5h22.5v-22.5h22.5v-22.5h22.5v-22.5h22.5v-22.5h22.5v-22.5h22.5v-22.5h22.5v-22.5h22.5v-22.5h22.5v-22.5h22.5v-22.5h22.5v-22.5h22.5v-22.5h22.5v-22.5h22.5v-22.5h45v22.5h22.5v67.5h22.5v22.5h22.5v22.5h22.5v22.5h22.5v22.5h45v-22.5h22.5v-22.5h22.5v-22.5h22.5v-22.5h22.5v-22.5h22.5v-22.5h22.5v-22.5h22.5v-45zm-450-247.5v-22.5h-45v-22.5h-67.5v-22.5h-22.5v-22.5h180v22.5h45v22.5h22.5v45h-22.5v22.5h-45v-22.5zm-180 517.5h-22.5v22.5h-22.5v22.5h-22.5v22.5h-22.5v22.5h-22.5v22.5h-22.5v22.5h-22.5v22.5h-22.5v22.5h-22.5v22.5h-22.5v22.5h-22.5v22.5h-22.5v22.5h-45v-22.5h-22.5v-22.5h-22.5v-45h22.5v-22.5h22.5v-22.5h22.5v-22.5h22.5v-22.5h22.5v-22.5h22.5v-22.5h22.5v-22.5h22.5v-22.5h22.5v-22.5h22.5v-22.5h22.5v-22.5h22.5v-22.5h45v22.5h22.5v22.5h22.5zm202.5-202.5h-22.5v22.5h-22.5v22.5h-22.5v22.5h-22.5v22.5h-22.5v22.5h-22.5v22.5h-45v-22.5h-22.5v-22.5h-22.5v-45h22.5v-22.5h22.5v-22.5h22.5v-22.5h22.5v-22.5h22.5v-22.5h22.5v-22.5h45v22.5h22.5v22.5h22.5zm135-157.5v22.5h-22.5v22.5h-22.5v22.5h-22.5v22.5h-45v-22.5h-22.5v-22.5h-22.5v-45h22.5v-22.5h22.5v-22.5h22.5v-22.5h22.5v-22.5h22.5v-22.5h22.5v-22.5h45v22.5h22.5v22.5h22.5v45h-22.5v22.5h-22.5v22.5zm45 112.5v-22.5h-22.5v-45h22.5v-22.5h22.5v-22.5h45v22.5h22.5v45h-22.5v22.5h-22.5v22.5zm202.5 22.5h-22.5v22.5h-22.5v22.5h-22.5v22.5h-22.5v22.5h-45v-22.5h-22.5v-45h22.5v-22.5h22.5v-22.5h22.5v-22.5h22.5v-22.5h45v22.5h22.5z"/>
</svg>
