<?xml version="1.0" encoding="UTF-8"?>
<svg width="1200pt" height="1200pt" version="1.1" viewBox="0 0 1200 1200" xmlns="http://www.w3.org/2000/svg">
 <path d="m397.5 172.5h-180v22.5h-22.5v90h22.5v22.5h67.5v180h45v-180h67.5v-22.5h22.5v-90h-22.5zm-22.5 90h-135v-45h135zm180-90h45v67.5h-22.5v22.5h-22.5v135h22.5v22.5h22.5v67.5h-45v-45h-45v45h-45v-67.5h22.5v-22.5h22.5v-135h-22.5v-22.5h-22.5v-67.5h45v45h45zm202.5 135h-22.5v-135h-45v135h-22.5v22.5h-22.5v135h22.5v22.5h90v-22.5h22.5v-135h-22.5zm-22.5 135h-45v-90h45zm90 45h112.5v-202.5h67.5v-112.5h-180zm45-270h90v22.5h-67.5v202.5h-22.5zm225 360v-22.5h-22.5v-472.5h-22.5v-22.5h-900v22.5h-22.5v472.5h-22.5v22.5h-22.5v90h22.5v22.5h22.5v427.5h22.5v22.5h90v-22.5h22.5v-67.5h675v67.5h22.5v22.5h90v-22.5h22.5v-427.5h22.5v-22.5h22.5v-90zm-922.5-472.5h855v450h-855zm45 990h-45v-405h45zm720-90h-675v-45h675zm-607.5-90v-90h90v90zm202.5 0v-135h135v135zm247.5 0v-90h90v90zm157.5 0h-22.5v-112.5h-22.5v-22.5h-135v22.5h-22.5v112.5h-22.5v-157.5h-22.5v-22.5h-180v22.5h-22.5v157.5h-22.5v-112.5h-22.5v-22.5h-135v22.5h-22.5v112.5h-22.5v-225h675zm90 180h-45v-405h45zm45-450h-945v-45h945z"/>
</svg>
