<?xml version="1.0" encoding="UTF-8"?>
<svg width="1200pt" height="1200pt" version="1.1" viewBox="0 0 1200 1200" xmlns="http://www.w3.org/2000/svg">
 <path d="m1095 60v22.5h-45v22.5h-22.5v-22.5h-90v22.5h-22.5v22.5h-22.5v45h-22.5v90h-22.5v22.5h-22.5v22.5h-22.5v22.5h-90v22.5h-45v22.5h-22.5v22.5h-22.5v45h-22.5v90h-22.5v22.5h-22.5v22.5h-22.5v22.5h-90v22.5h-45v22.5h-22.5v22.5h-22.5v45h-22.5v67.5h-22.5v22.5h-22.5v22.5h-22.5v22.5h-22.5v22.5h-22.5v22.5h-22.5v22.5h-22.5v22.5h-22.5v22.5h-22.5v22.5h-22.5v22.5h-22.5v22.5h-22.5v45h22.5v22.5h22.5v22.5h22.5v22.5h45v-22.5h22.5v-22.5h22.5v-22.5h22.5v-22.5h22.5v-22.5h22.5v-22.5h22.5v-22.5h22.5v-22.5h22.5v-22.5h22.5v-22.5h22.5v-22.5h22.5v-22.5h22.5v-45h22.5v-22.5h22.5v-22.5h22.5v-22.5h22.5v-22.5h90v-22.5h45v-22.5h22.5v-22.5h22.5v-45h22.5v-90h22.5v-22.5h22.5v-22.5h22.5v-22.5h90v-22.5h45v-22.5h22.5v-22.5h22.5v-45h22.5v-90h22.5v-22.5h22.5v-22.5h67.5v-45h-22.5v-22.5h22.5v-45h22.5v-45zm-675 765h-22.5v22.5h-22.5v22.5h-22.5v22.5h-22.5v22.5h-22.5v22.5h-22.5v22.5h-22.5v22.5h-22.5v22.5h-22.5v22.5h-22.5v22.5h-22.5v22.5h-45v-45h22.5v-22.5h22.5v-22.5h22.5v-22.5h22.5v-22.5h22.5v-22.5h22.5v-22.5h22.5v-22.5h22.5v-22.5h22.5v-22.5h22.5v-22.5h22.5v-90h22.5v-22.5h22.5zm180-202.5h-22.5v22.5h-22.5v22.5h-22.5v22.5h-22.5v22.5h-22.5v22.5h-22.5v-22.5h22.5v-22.5h22.5v-22.5h22.5v-22.5h22.5v-22.5h22.5v-22.5h22.5zm90 0h-22.5v22.5h-22.5v-202.5h22.5v-22.5h22.5zm180-270h-22.5v22.5h-22.5v22.5h-22.5v22.5h-22.5v22.5h-22.5v22.5h-22.5v-22.5h22.5v-22.5h22.5v-22.5h22.5v-22.5h22.5v-22.5h22.5v-22.5h22.5zm90 0h-22.5v22.5h-22.5v-202.5h22.5v-22.5h22.5zm112.5-202.5h-22.5v22.5h-22.5v22.5h-22.5v-22.5h22.5v-22.5h22.5v-22.5h22.5z"/>
</svg>
