<?xml version="1.0" encoding="UTF-8"?>
<svg width="1200pt" height="1200pt" version="1.1" viewBox="0 0 1200 1200" xmlns="http://www.w3.org/2000/svg">
 <path d="m1117.5 622.5v-22.5h-382.5v-22.5h-112.5v-90h45v-22.5h22.5v-90h-22.5v-22.5h-427.5v22.5h-45v22.5h-45v45h-22.5v45h-22.5v112.5h-22.5v22.5h-22.5v135h22.5v22.5h22.5v45h22.5v22.5h472.5v-22.5h22.5v-22.5h112.5v-22.5h382.5v-22.5h22.5v-135zm-1012.5 112.5v-90h225v90zm472.5 67.5h-427.5v-22.5h202.5v-22.5h22.5v-135h-22.5v-22.5h-202.5v-22.5h427.5zm-337.5-270v-22.5h22.5v-22.5h225v45zm337.5 0h-45v-45h45zm-315-90v22.5h-45v45h-22.5v22.5h-45v-45h22.5v-45h22.5v-22.5h45v-22.5h405v45zm450 315h-90v-135h90zm382.5-22.5h-337.5v-90h337.5z"/>
</svg>
