<?xml version="1.0" encoding="UTF-8"?>
<svg width="1200pt" height="1200pt" version="1.1" viewBox="0 0 1200 1200" xmlns="http://www.w3.org/2000/svg">
 <path d="m1112.3 240v-45h-45v-22.5h-22.5v-22.5h22.5v-22.5h22.5v-45h-45v22.5h-22.5v22.5h-22.5v-22.5h-22.5v-45h-45v67.5h-67.5v-22.5h-45v45h22.5v45h-22.5v22.5h-45v-22.5h-45v45h22.5v45h-22.5v22.5h-45v-22.5h-45v45h22.5v45h-22.5v22.5h-45v-22.5h-45v45h22.5v45h-45v-22.5h-22.5v-22.5h-22.5v-22.5h-22.5v-22.5h-22.5v-22.5h-22.5v-22.5h-67.5v22.5h-22.5v67.5h22.5v22.5h22.5v22.5h22.5v45h-45v-22.5h-22.5v-22.5h-22.5v-22.5h-67.5v22.5h-22.5v67.5h22.5v22.5h22.5v22.5h22.5v45h-22.5v22.5h-22.5v22.5h-22.5v22.5h-22.5v45h22.5v45h-22.5v22.5h-22.5v22.5h-22.5v22.5h-22.5v45h-22.5v135h22.5v45h22.5v22.5h22.5v22.5h22.5v22.5h90v-22.5h22.5v-22.5h22.5v-22.5h22.5v-22.5h22.5v-22.5h22.5v-22.5h22.5v-22.5h22.5v-22.5h22.5v-22.5h22.5v-22.5h22.5v-22.5h22.5v-22.5h22.5v-22.5h22.5v-22.5h22.5v-22.5h22.5v-22.5h22.5v-22.5h22.5v-22.5h22.5v-22.5h22.5v-22.5h22.5v-45h-22.5v-45h45v22.5h45v-45h-22.5v-45h22.5v-22.5h45v22.5h45v-45h-22.5v-45h22.5v-22.5h45v22.5h45v-45h-22.5v-45h22.5v-22.5h45v22.5h45v-45h-22.5v-67.5zm-742.5 157.5v-22.5h22.5v22.5h22.5v22.5h22.5v22.5h-22.5v-22.5h-22.5v-22.5zm22.5 562.5h-22.5v22.5h-22.5v22.5h-22.5v22.5h-22.5v22.5h-22.5v22.5h-22.5v22.5h-45v-22.5h-22.5v-22.5h-22.5v-45h-22.5v-90h22.5v-45h22.5v-22.5h22.5v-22.5h22.5v-22.5h45v45h-22.5v22.5h-22.5v22.5h-22.5v22.5h-22.5v90h22.5v22.5h45v-22.5h22.5v-22.5h22.5v-22.5h22.5v-22.5h22.5v-22.5h45zm-90-67.5v-22.5h22.5v22.5h-22.5v22.5h-22.5v22.5h-22.5v22.5h-22.5v-22.5h22.5v-22.5h22.5v-22.5zm202.5-45h-22.5v22.5h-22.5v22.5h-45v-22.5h-22.5v-22.5h-22.5v-22.5h-22.5v-22.5h-22.5v-22.5h-22.5v-22.5h-22.5v-22.5h-22.5v-45h22.5v-22.5h22.5v-22.5h45v22.5h22.5v22.5h22.5v22.5h22.5v22.5h22.5v22.5h22.5v22.5h22.5v22.5h22.5zm45-67.5h-22.5v-22.5h-22.5v-22.5h-22.5v-22.5h-22.5v-22.5h-22.5v-22.5h-22.5v-22.5h-22.5v-22.5h-22.5v-22.5h-22.5v-22.5h-22.5v-22.5h-22.5v-22.5h-22.5v-22.5h-22.5v-22.5h22.5v22.5h22.5v22.5h22.5v22.5h22.5v22.5h22.5v22.5h22.5v22.5h22.5v22.5h22.5v22.5h22.5v22.5h22.5v22.5h22.5v22.5h22.5v22.5h22.5zm112.5-90h-22.5v22.5h-22.5v22.5h-45v-22.5h-22.5v-22.5h-22.5v-22.5h-22.5v-22.5h-22.5v-22.5h-22.5v-22.5h-22.5v-22.5h-22.5v-45h22.5v-22.5h22.5v-22.5h45v22.5h22.5v22.5h22.5v22.5h22.5v22.5h22.5v22.5h22.5v22.5h22.5v22.5h22.5zm360-450h-22.5v22.5h-22.5v22.5h-22.5v22.5h-22.5v22.5h-22.5v22.5h-22.5v22.5h-22.5v22.5h-22.5v22.5h-22.5v22.5h-22.5v22.5h-22.5v22.5h-22.5v22.5h-22.5v22.5h-22.5v22.5h-22.5v22.5h-45v-22.5h-22.5v-22.5h-22.5v-45h22.5v-22.5h22.5v-22.5h22.5v-22.5h22.5v-22.5h22.5v-22.5h22.5v-22.5h22.5v-22.5h22.5v-22.5h22.5v-22.5h22.5v-22.5h22.5v-22.5h22.5v-22.5h22.5v-22.5h22.5v-22.5h22.5v-22.5h67.5v22.5h22.5z"/>
</svg>
