<?xml version="1.0" encoding="UTF-8"?>
<svg width="1200pt" height="1200pt" version="1.1" viewBox="0 0 1200 1200" xmlns="http://www.w3.org/2000/svg">
 <path d="m1117.5 757.5v-22.5h-855v-382.5h-22.5v-67.5h-22.5v-45h-22.5v-67.5h-22.5v-45h-90v22.5h-22.5v67.5h22.5v67.5h22.5v45h22.5v67.5h22.5v337.5h-67.5v22.5h-22.5v90h22.5v22.5h67.5v135h22.5v22.5h22.5v22.5h22.5v22.5h135v-22.5h22.5v-22.5h22.5v-22.5h22.5v-135h360v135h22.5v22.5h22.5v22.5h22.5v22.5h135v-22.5h22.5v-22.5h22.5v-22.5h22.5v-135h67.5v-22.5h22.5v-90zm-990-495v-67.5h-22.5v-22.5h22.5v22.5h22.5v67.5h22.5v45h22.5v67.5h22.5v360h-22.5v-360h-22.5v-67.5h-22.5v-45zm247.5 720h-22.5v22.5h-22.5v22.5h-90v-22.5h-22.5v-22.5h-22.5v-90h22.5v90h22.5v22.5h90v-22.5h22.5v-90h22.5zm-112.5-22.5v-90h45v90zm742.5 22.5h-22.5v22.5h-22.5v22.5h-90v-22.5h-22.5v-22.5h-22.5v-90h22.5v90h22.5v22.5h90v-22.5h22.5v-90h22.5zm-112.5-22.5v-90h45v90zm202.5-135h-990v-45h990z"/>
</svg>
