<?xml version="1.0" encoding="UTF-8"?>
<svg width="1200pt" height="1200pt" version="1.1" viewBox="0 0 1200 1200" xmlns="http://www.w3.org/2000/svg">
 <path d="m465 330v-22.5h-22.5v-22.5h-45v-22.5h-45v-22.5h-270v22.5h-22.5v67.5h22.5v22.5h225v45h22.5v45h22.5v67.5h22.5v45h22.5v67.5h22.5v315h22.5v22.5h90v-22.5h22.5v-22.5h22.5v-45h22.5v-22.5h22.5v-45h22.5v-22.5h22.5v-45h22.5v-22.5h22.5v-45h22.5v22.5h22.5v22.5h22.5v157.5h22.5v45h22.5v22.5h45v22.5h135v-22.5h45v-22.5h22.5v-45h22.5v-135h-22.5v-45h-22.5v-22.5h-45v-22.5h-67.5v-90h22.5v-22.5h22.5v-22.5h22.5v-22.5h22.5v-22.5h22.5v-22.5h22.5v-22.5h22.5v-22.5h22.5v-22.5h22.5v-45zm-247.5-22.5h-112.5v-22.5h112.5zm202.5 225v-45h-22.5v-67.5h-22.5v-22.5h22.5v22.5h22.5v22.5h22.5v22.5h22.5v22.5h22.5v22.5h22.5v22.5h22.5v22.5h22.5v22.5h22.5v22.5h22.5v22.5h-135v-22.5h-22.5v-67.5zm247.5 157.5h-22.5v22.5h-22.5v45h-22.5v22.5h-22.5v45h-22.5v22.5h-22.5v45h-22.5v22.5h-45v-247.5h202.5zm22.5-67.5v-22.5h-45v-22.5h-22.5v-22.5h-22.5v-22.5h-22.5v-22.5h-22.5v-22.5h-22.5v-22.5h-22.5v-22.5h-22.5v-22.5h-22.5v-22.5h-22.5v-22.5h-22.5v-22.5h-22.5v-22.5h-45v-22.5h-90v-22.5h90v22.5h45v22.5h22.5v22.5h22.5v22.5h22.5v22.5h22.5v22.5h22.5v22.5h22.5v22.5h22.5v22.5h22.5v22.5h22.5v22.5h22.5v22.5h22.5v22.5h45v22.5h202.5v22.5zm112.5 67.5v-22.5h22.5v22.5h22.5v22.5h22.5v22.5h22.5v22.5h22.5v22.5h22.5v22.5h-22.5v-22.5h-22.5v-22.5h-22.5v-22.5h-22.5v-22.5h-22.5v-22.5zm202.5 0v22.5h22.5v22.5h22.5v135h-22.5v22.5h-22.5v22.5h-135v-22.5h-22.5v-22.5h-22.5v-90h22.5v22.5h22.5v45h22.5v22.5h90v-22.5h22.5v-90h-22.5v-22.5h-45v-22.5h-22.5v-22.5zm45-292.5h-22.5v22.5h-22.5v22.5h-22.5v22.5h-22.5v22.5h-22.5v22.5h-22.5v22.5h-22.5v22.5h-202.5v-22.5h-22.5v-22.5h-22.5v-22.5h-22.5v-22.5h-22.5v-22.5h-22.5v-22.5h-22.5v-22.5h-22.5v-22.5h517.5z"/>
</svg>
