<?xml version="1.0" encoding="UTF-8"?>
<svg width="1200pt" height="1200pt" version="1.1" viewBox="0 0 1200 1200" xmlns="http://www.w3.org/2000/svg">
 <path d="m1072.5 672.74v-22.5h22.5v-202.5h45v-67.5h-22.5v-67.5h-22.5v-45h-67.5v22.5h-112.5v22.5h-112.5v22.5h-112.5v22.5h-112.5v22.5h-112.5v22.5h-112.5v22.5h-112.5v22.5h-67.5v22.5h-45v22.5h-22.5v45h-22.5v45h-22.5v90h22.5v67.5h22.5v45h45v-22.5h45v22.5h-45v22.5h-22.5v90h22.5v22.5h967.5v-22.5h22.5v-90h-22.5v-22.5h-607.5v-112.5zm-112.5-45h-337.5v-22.5h67.5v-22.5h67.5v-22.5h67.5v-22.5h67.5v-22.5h67.5zm90 0h-45v-135h22.5v-22.5h22.5zm45 202.5v45h-922.5v-45zm-855-45v-45h45v-22.5h67.5v-22.5h67.5v-22.5h45v112.5zm247.5-180v22.5h-67.5v22.5h-67.5v22.5h-67.5v22.5h-67.5v22.5h-67.5v22.5h-22.5v-67.5h-22.5v-90h22.5v-45h22.5v-22.5h22.5v-22.5h67.5v-22.5h112.5v-22.5h112.5v-22.5h112.5v-22.5h112.5v-22.5h112.5v-22.5h112.5v-22.5h112.5v-22.5h45v67.5h22.5v45h-67.5v22.5h-67.5v22.5h-67.5v22.5h-67.5v22.5h-67.5v22.5h-67.5v22.5h-67.5v22.5h-67.5v22.5z"/>
</svg>
