<?xml version="1.0" encoding="UTF-8"?>
<svg width="1200pt" height="1200pt" version="1.1" viewBox="0 0 1200 1200" xmlns="http://www.w3.org/2000/svg">
 <path d="m1095 217.5v-22.5h-22.5v-22.5h-22.5v-22.5h-22.5v-22.5h-22.5v-22.5h-45v-22.5h-45v-22.5h-135v22.5h-45v22.5h-45v22.5h-22.5v22.5h-22.5v22.5h-22.5v22.5h-22.5v22.5h-22.5v22.5h-22.5v22.5h-22.5v22.5h-22.5v22.5h-22.5v22.5h-22.5v22.5h-22.5v22.5h-22.5v22.5h-22.5v22.5h-22.5v22.5h-22.5v22.5h-22.5v22.5h-22.5v22.5h-22.5v22.5h-22.5v22.5h-22.5v22.5h-22.5v22.5h-22.5v22.5h-22.5v22.5h-22.5v22.5h-22.5v22.5h-22.5v22.5h-22.5v67.5h22.5v67.5h22.5v67.5h22.5v67.5h22.5v67.5h22.5v67.5h22.5v22.5h45v-22.5h22.5v-22.5h22.5v-22.5h22.5v-22.5h22.5v-22.5h22.5v-22.5h22.5v-22.5h22.5v-22.5h22.5v-22.5h22.5v-22.5h22.5v-67.5h45v-67.5h67.5v-67.5h67.5v-67.5h67.5v-67.5h67.5v-67.5h67.5v-67.5h67.5v-67.5h67.5v-67.5h67.5v-22.5h22.5v-22.5h22.5v-45zm-652.5 675h-22.5v22.5h-22.5v22.5h-22.5v22.5h-22.5v22.5h-22.5v22.5h-22.5v22.5h-22.5v22.5h-22.5v22.5h-22.5v-45h-22.5v-67.5h-22.5v-67.5h-22.5v-67.5h-22.5v-67.5h-22.5v-22.5h22.5v-22.5h22.5v-22.5h22.5v-22.5h22.5v-22.5h22.5v-22.5h22.5v-22.5h22.5v-22.5h22.5v-22.5h22.5v22.5h22.5v67.5h22.5v67.5h22.5v67.5h22.5v67.5h22.5zm540-607.5h-22.5v22.5h-22.5v22.5h-22.5v22.5h-22.5v22.5h-22.5v22.5h-22.5v22.5h-22.5v22.5h-22.5v22.5h-22.5v22.5h-22.5v22.5h-22.5v22.5h-22.5v22.5h-22.5v22.5h-22.5v22.5h-22.5v22.5h-22.5v22.5h-22.5v22.5h-22.5v22.5h-22.5v22.5h-22.5v22.5h-22.5v22.5h-22.5v22.5h-22.5v-22.5h-22.5v-67.5h-22.5v-67.5h-22.5v-67.5h22.5v-22.5h22.5v-22.5h22.5v-22.5h22.5v-22.5h22.5v-22.5h22.5v-22.5h22.5v-22.5h22.5v-22.5h22.5v-22.5h22.5v-22.5h22.5v-22.5h22.5v-22.5h22.5v-22.5h22.5v-22.5h22.5v-22.5h22.5v-22.5h22.5v-22.5h135v22.5h22.5v22.5h22.5v22.5h22.5zm67.5-45h-22.5v-22.5h-22.5v-22.5h-22.5v-22.5h-22.5v-22.5h-45v-22.5h-135v22.5h-45v22.5h-22.5v22.5h-22.5v22.5h-22.5v22.5h-22.5v22.5h-22.5v22.5h-22.5v22.5h-22.5v22.5h-22.5v22.5h-22.5v22.5h-22.5v22.5h-22.5v22.5h-22.5v22.5h-22.5v22.5h-22.5v22.5h-22.5v22.5h-22.5v-22.5h22.5v-22.5h22.5v-22.5h22.5v-22.5h22.5v-22.5h22.5v-22.5h22.5v-22.5h22.5v-22.5h22.5v-22.5h22.5v-22.5h22.5v-22.5h22.5v-22.5h22.5v-22.5h22.5v-22.5h22.5v-22.5h22.5v-22.5h22.5v-22.5h45v-22.5h135v22.5h45v22.5h22.5v22.5h22.5v22.5h22.5v22.5h22.5zm-652.5 607.5v-67.5h-22.5v-67.5h-22.5v-67.5h-22.5v-67.5h-22.5v22.5h-22.5v22.5h-22.5v22.5h-22.5v22.5h-22.5v22.5h-22.5v67.5h22.5v67.5h22.5v67.5h22.5v67.5h22.5v45h22.5v-22.5h22.5v-22.5h22.5v-22.5h22.5v-22.5h22.5v-22.5h22.5v-45zm-45 45h-22.5v22.5h-22.5v-45h-22.5v-67.5h-22.5v-67.5h-22.5v-22.5h22.5v-22.5h22.5v-22.5h22.5v67.5h22.5v67.5h22.5z"/>
</svg>
