<?xml version="1.0" encoding="UTF-8"?>
<svg width="1200pt" height="1200pt" version="1.1" viewBox="0 0 1200 1200" xmlns="http://www.w3.org/2000/svg">
 <path d="m802.5 847.5v-112.5h-22.5v-180h-22.5v-315h-22.5v-67.5h-22.5v-45h-22.5v-45h-22.5v-22.5h-135v22.5h-22.5v45h-22.5v45h-22.5v67.5h-22.5v315h-22.5v180h-22.5v112.5h-22.5v270h22.5v22.5h90v-22.5h22.5v-247.5h22.5v-112.5h22.5v-45h22.5v-45h-22.5v-45h22.5v-22.5h45v22.5s22.5 0 22.5-0.046875v45h-22.5v45h22.5v45h22.5v112.5h22.5v247.5h22.5v22.547h90v-22.5h22.5v-270zm-180-742.5h22.5v22.5h22.5v45h22.5v67.5h22.5v90h-22.5v-22.5h-45v-45h22.5v-90h-22.5v-45h-22.5zm-90 607.5h-22.5v45h-22.5v112.5h-22.5v225h-45v-247.5h22.5v-112.5h22.5v-90h22.5v22.5h22.5v22.5h22.5zm0-90h-22.5v-22.5h-22.5v-45h22.5v22.5h22.5zm112.5-44.953v-22.547h-67.5v-22.5h-45v-22.5h-22.5v-22.5h22.5v22.5h90v-22.5h45v-22.5h22.5v-45h-22.5v-22.5h-45v-22.5h-90v22.5h-22.5v67.5h-22.5v-225h22.5v-67.5h22.5v-45h22.5v-22.5h22.5v22.5h-22.5v45h-22.5v90h22.5v45h22.5v22.5h45v22.5h45v22.5h22.5v45h22.5v180h-22.5v22.5h-22.5v-44.953zm-90-112.55v-45h45v45zm67.5-292.5v90h-45v-90zm157.5 922.5h-45v-225h-22.5v-112.5h-22.5v-45h-22.5v-22.5h22.5v-22.5h22.5v-22.5h22.5v90h22.5v112.5h22.5z"/>
</svg>
