<?xml version="1.0" encoding="UTF-8"?>
<svg width="1200pt" height="1200pt" version="1.1" viewBox="0 0 1200 1200" xmlns="http://www.w3.org/2000/svg">
 <path d="m1117.5 420v-45h-22.5v-22.5h-45v-22.5h-540v22.5h-45v22.5h-22.5v45h-22.5v315h-337.5v22.5h-22.5v90h22.5v22.5h427.5v-22.5h45v22.5h45v-22.5h22.5v22.5h45v-22.5h22.5v22.5h45v-22.5h22.5v22.5h45v-22.5h22.5v22.5h45v-22.5h22.5v22.5h45v-22.5h22.5v22.5h45v-22.5h45v22.5h67.5v-22.5h22.5v-427.5zm-787.5 405h-225v-45h225zm90 0h-45v-45h45zm607.5-22.5h-495v-337.5h22.5v-22.5h450v22.5h22.5zm67.5 22.5h-22.5v-382.5h-22.5v-22.5h-22.5v-22.5h-495v22.5h-22.5v22.5h-22.5v382.5h-22.5v-405h22.5v-22.5h22.5v-22.5h540v22.5h22.5v22.5h22.5z"/>
</svg>
