<?xml version="1.0" encoding="UTF-8"?>
<svg width="1200pt" height="1200pt" version="1.1" viewBox="0 0 1200 1200" xmlns="http://www.w3.org/2000/svg">
 <path d="m1117.5 262.5v-22.5h-22.5v-22.5h-22.5v-22.5h-22.5v-22.5h-22.5v-22.5h-22.5v-22.5h-22.5v-22.5h-22.5v-22.5h-22.5v-22.5h-45v22.5h-22.5v22.5h-22.5v22.5h-22.5v22.5h-22.5v22.5h-22.5v22.5h-22.5v22.5h-22.5v22.5h-22.5v22.5h-22.5v22.5h-22.5v22.5h-22.5v22.5h-22.5v22.5h-22.5v22.5h-22.5v22.5h-22.5v67.5h-22.5v22.5h-22.5v22.5h-22.5v22.5h-22.5v22.5h-67.5v22.5h-22.5v22.5h-22.5v22.5h-22.5v22.5h-22.5v22.5h-22.5v22.5h-22.5v22.5h-22.5v22.5h-22.5v22.5h-22.5v22.5h-22.5v22.5h-22.5v22.5h-22.5v22.5h-22.5v22.5h-22.5v22.5h-22.5v45h22.5v22.5h22.5v22.5h22.5v22.5h22.5v22.5h22.5v22.5h22.5v22.5h22.5v22.5h22.5v22.5h22.5v22.5h45v-22.5h22.5v-22.5h22.5v-22.5h22.5v-22.5h22.5v-22.5h22.5v-22.5h22.5v-22.5h22.5v-22.5h22.5v-22.5h22.5v-22.5h22.5v-22.5h22.5v-22.5h22.5v-22.5h22.5v-22.5h22.5v-22.5h22.5v-22.5h22.5v-22.5h22.5v-22.5h22.5v-22.5h22.5v-22.5h22.5v-22.5h22.5v-22.5h22.5v-22.5h22.5v-22.5h22.5v-22.5h22.5v-22.5h22.5v-22.5h22.5v-22.5h22.5v-22.5h22.5v-22.5h22.5v-22.5h22.5v-22.5h22.5v-22.5h22.5v-22.5h22.5v-22.5h22.5v-22.5h22.5v-22.5h22.5v-45zm-360 45h22.5v90h-22.5zm-270 270h22.5v-22.5h22.5v-22.5h22.5v-22.5h22.5v-22.5h45v45h-22.5v22.5h-22.5v22.5h-22.5v22.5h-22.5v22.5h-45zm157.5 0v-22.5h22.5v22.5h-22.5v22.5h-22.5v22.5h-22.5v22.5h-22.5v22.5h-22.5v-22.5h22.5v-22.5h22.5v-22.5h22.5v-22.5zm-382.5 225h22.5v-22.5h22.5v-22.5h22.5v22.5h-22.5v22.5h-22.5v22.5h-22.5zm90 22.5v-22.5h22.5v-22.5h45v45h-22.5v22.5h-22.5v22.5h-22.5v22.5h-22.5v22.5h-45v-45h22.5v-22.5h22.5v-22.5zm22.5 180h-22.5v22.5h-22.5v22.5h-22.5v22.5h-45v-22.5h-22.5v-22.5h-22.5v-22.5h-22.5v-22.5h-22.5v-22.5h-22.5v-22.5h-22.5v-45h22.5v-22.5h22.5v-22.5h22.5v-22.5h22.5v67.5h22.5v45h22.5v22.5h45v22.5h67.5zm67.5-112.5h-22.5v22.5h-22.5v22.5h-22.5v-22.5h22.5v-22.5h22.5v-22.5h22.5zm427.5-382.5h-22.5v22.5h-22.5v22.5h-22.5v22.5h-22.5v22.5h-22.5v22.5h-22.5v22.5h-22.5v22.5h-22.5v22.5h-22.5v22.5h-22.5v22.5h-22.5v22.5h-22.5v22.5h-22.5v22.5h-22.5v22.5h-22.5v22.5h-22.5v22.5h-22.5v-67.5h-22.5v-45h-22.5v-22.5h-45v-22.5h-67.5v-22.5h22.5v-22.5h22.5v-22.5h22.5v-22.5h45v22.5h22.5v22.5h22.5v22.5h22.5v22.5h22.5v22.5h45v-22.5h22.5v-22.5h22.5v-22.5h22.5v-22.5h22.5v-22.5h22.5v-22.5h22.5v-22.5h22.5v-45h-22.5v-22.5h-22.5v-22.5h-22.5v-22.5h-22.5v-22.5h-22.5v-45h22.5v-22.5h22.5v-22.5h22.5v-22.5h22.5v67.5h22.5v45h22.5v22.5h45v22.5h67.5zm0-67.5h-45v-180h45zm67.5-45h-22.5v-90h22.5zm135-90h-22.5v22.5h-22.5v22.5h-22.5v22.5h-22.5v-67.5h-22.5v-45h-22.5v-22.5h-45v-22.5h-67.5v-22.5h22.5v-22.5h22.5v-22.5h22.5v-22.5h45v22.5h22.5v22.5h22.5v22.5h22.5v22.5h22.5v22.5h22.5v22.5h22.5z"/>
</svg>
