<?xml version="1.0" encoding="UTF-8"?>
<svg width="1200pt" height="1200pt" version="1.1" viewBox="0 0 1200 1200" xmlns="http://www.w3.org/2000/svg">
 <path d="m555 735h90v22.5h90v-135h-90v-22.5h-90zm45-90h45v22.5h45v45h-45v-22.5h-45zm517.5-202.5v-22.5h-22.5v-22.5h-45v-22.5h-67.5v-22.5h-607.5v22.5h-292.5v22.5h-22.5v225h22.5v22.5h292.5v22.5h22.5v22.5h22.5v22.5h22.5v22.5h22.5v22.5h22.5v22.5h22.5v22.5h45v22.5h67.5v22.5h360v-22.5h67.5v-22.5h45v-22.5h22.5v-22.5h22.5v-315zm-990 157.5h-22.5v-180h22.5zm337.5 67.5h-22.5v-22.5h22.5zm0-67.5h-292.5v-180h22.5v90h45v-90h22.5v67.5h45v-67.5h22.5v90h45v-90h22.5v67.5h45v-22.5h22.5zm22.5-157.5v-22.5h-22.5v-22.5h517.5v22.5h67.5v22.5h22.5v45h-22.5v22.5h-67.5v22.5h-360v-22.5h-67.5v-22.5h-22.5v-22.5h-22.5v-22.5zm292.5 360h-157.5v-22.5h-67.5v-22.5h-22.5v-22.5h-22.5v-202.5h45v22.5h67.5v22.5h157.5zm315-67.5h-22.5v22.5h-22.5v22.5h-67.5v22.5h-157.5v-225h157.5v-22.5h67.5v-22.5h45z"/>
</svg>
