<?xml version="1.0" encoding="UTF-8"?>
<svg width="1200pt" height="1200pt" version="1.1" viewBox="0 0 1200 1200" xmlns="http://www.w3.org/2000/svg">
 <path d="m744 216v-24h-431.95v24h-24v120h24v24h431.95v-24h24v-120zm-24 96h-383.95v-72l383.95 0.046875zm431.95-167.95h-24v-24h-24v-96h-48v96h-48v-96h-48v96h-24v24h-24v168h24v24h24v24h48v695.95h-24v24h-24v24h-24v24l-119.95-0.046875v-24h-24v-24h-24v-24h-24v-431.95h48v-24h48v-48h24v-384h-24v-48h-48v-24h-264v-72h-120v72h-48v-72h-120v72h-24v24h-48v24h-48v24h-24v48h-24v48h-24l0.046875 288h24v48h48v24h24v48h24v24h48v96h-72v96h-24v72h-24v144h24v48h24v24h192v-24h24v-48h24l-0.046875-144h-24v-72h-24v-96h-72v-96h48v-24h24v-48h360v431.95h24v48h24v24h24v24h48v24h120v-24h48v-24h24v-24h24v-48h24v-695.95h48v-24h24v-24h24zm-695.95-72h24v24h-24zm-167.95 24v-24h24v24zm-96 863.95h-24v144h24v24h-24v-24h-24v-144h24v-72h24v-48h24v48h-24zm72 143.95h-48v-143.95h48zm24-263.95v48h24v72h24v144h-24v24h-24v-24h24v-144h-24v-72h-24v-48zm0-192h-96v-24h96zm-168-72v-24h-24v-287.95h24v-48h24v-24h24v-24h48v-24h575.95v24h24v383.95h-24v24zm959.95-288v24h-96v-24h-24v-120h144v120z"/>
</svg>
