<?xml version="1.0" encoding="UTF-8"?>
<svg width="1200pt" height="1200pt" version="1.1" viewBox="0 0 1200 1200" xmlns="http://www.w3.org/2000/svg">
 <path d="m1117.5 510v-22.5h-22.5v-22.5h-22.5v-22.5h-22.5v-22.5h-22.5v-22.5h-22.5v-22.5h-22.5v-22.5h-22.5v-22.5h-22.5v-45h22.5v-45h-22.5v-22.5h-22.5v-22.5h-22.5v-22.5h-22.5v-22.5h-45v22.5h-45v-22.5h-45v22.5h-22.5v22.5h-22.5v22.5h-22.5v22.5h-22.5v22.5h-22.5v22.5h-22.5v22.5h-22.5v45h22.5v45h-22.5v22.5h-22.5v22.5h-22.5v22.5h-22.5v22.5h-22.5v22.5h-22.5v22.5h-22.5v22.5h-22.5v22.5h-22.5v22.5h-22.5v22.5h-22.5v22.5h-22.5v22.5h-22.5v22.5h-22.5v22.5h-22.5v22.5h-22.5v22.5h-22.5v22.5h-22.5v22.5h-22.5v22.5h-22.5v22.5h-22.5v22.5h-22.5v22.5h-22.5v22.5h-22.5v45h22.5v22.5h22.5v22.5h22.5v22.5h22.5v22.5h45v-22.5h22.5v-22.5h22.5v-22.5h22.5v-22.5h22.5v-22.5h22.5v-22.5h22.5v-22.5h22.5v-22.5h22.5v-22.5h22.5v-22.5h22.5v-22.5h22.5v-22.5h22.5v-22.5h22.5v-22.5h22.5v-22.5h22.5v-22.5h22.5v-22.5h22.5v-22.5h22.5v-22.5h22.5v-22.5h22.5v-22.5h22.5v-22.5h22.5v-22.5h22.5v-22.5h45v292.5h135v-22.5h45v-22.5h45v-22.5h45v-22.5h22.5v-22.5h22.5v-22.5h22.5v-45h22.5v-45h22.5v-67.5zm-270-292.5h22.5v22.5h22.5v22.5h-22.5v-22.5h-22.5zm-472.5 585h-22.5v22.5h-22.5v22.5h-22.5v22.5h-22.5v22.5h-22.5v22.5h-22.5v22.5h-22.5v22.5h-22.5v22.5h-45v-22.5h-22.5v-45h22.5v-22.5h22.5v-22.5h22.5v-22.5h22.5v-22.5h22.5v-22.5h22.5v-22.5h22.5v-22.5h22.5v-22.5h45v22.5h22.5zm315-315h-22.5v22.5h-22.5v22.5h-22.5v22.5h-22.5v22.5h-22.5v22.5h-22.5v22.5h-22.5v22.5h-22.5v22.5h-22.5v22.5h-22.5v22.5h-22.5v22.5h-45v-22.5h-22.5v-45h22.5v-22.5h22.5v-22.5h22.5v-22.5h22.5v-22.5h22.5v-22.5h22.5v-22.5h22.5v-22.5h22.5v-22.5h22.5v-22.5h22.5v-22.5h22.5v-22.5h45v22.5h22.5zm67.5-22.5v-22.5h-22.5v-22.5h-22.5v-22.5h-22.5v-22.5h-22.5v-22.5h-22.5v-45h22.5v-22.5h22.5v-22.5h22.5v-22.5h22.5v-22.5h45v22.5h22.5v22.5h22.5v22.5h22.5v22.5h22.5v22.5h22.5v22.5h22.5v22.5h22.5v22.5h22.5v22.5h22.5v22.5h22.5v22.5h22.5v45h-22.5v45h-22.5v22.5h-22.5v22.5h-22.5v22.5h-22.5v22.5h-45v22.5h-67.5v-180h-22.5v-22.5zm337.5 112.5h-22.5v45h-22.5v22.5h-22.5v22.5h-22.5v22.5h-22.5v22.5h-45v22.5h-45v22.5h-90v-45h67.5v-22.5h45v-22.5h45v-22.5h22.5v-22.5h22.5v-22.5h22.5v-45h22.5v-45h22.5v22.5h22.5z"/>
</svg>
