<?xml version="1.0" encoding="UTF-8"?>
<svg width="1200pt" height="1200pt" version="1.1" viewBox="0 0 1200 1200" xmlns="http://www.w3.org/2000/svg">
 <path d="m1117.5 217.5v-22.5h-22.5v-22.5h-517.5v22.5h-45v22.5h-135v22.5h-67.5v67.5h-45v-22.5h-45v22.5h-22.5v-22.5h-45v22.5h-22.5v-22.5h-45v22.5h-45v45h67.5v22.5h45v-22.5h22.5v22.5h45v-22.5h22.5v22.5h45v-22.5h22.5v67.5h67.5v22.5h135v22.5h45v22.5h112.5v90h22.5v22.5h67.5v112.5h-45v22.5h-45v22.5h-22.5v22.5h-22.5v22.5h-22.5v22.5h-22.5v45h-22.5v112.5h22.5v22.5h22.5v22.5h405v-22.5h22.5v-22.5h22.5v-225h-22.5v-22.5h-22.5v-22.5h-22.5v-45h-22.5v-112.5h-22.5v-67.5h22.5v-22.5h90v-22.5h45v-22.5h22.5v-202.5zm-607.5 180h-112.5v-22.5h-22.5v-90h22.5v-22.5h112.5zm180 45h-112.5v-22.5h-22.5v-180h22.5v-22.5h112.5zm45 112.5v-45h22.5v22.5h22.5v22.5zm292.5 405h-22.5v22.5h-360v-22.5h-22.5v-67.5h405zm-22.5-202.5v22.5h22.5v67.5h-360v-22.5h22.5v-22.5h22.5v-22.5h22.5v-22.5zm-67.5-202.5v112.5h22.5v45h-135v-202.5h-22.5v-22.5h112.5v67.5zm67.5-135h-22.5v22.5h-247.5v-225h270zm90-22.5h-22.5v22.5h-22.5v-202.5h22.5v22.5h22.5z"/>
</svg>
