<?xml version="1.0" encoding="UTF-8"?>
<svg width="1200pt" height="1200pt" version="1.1" viewBox="0 0 1200 1200" xmlns="http://www.w3.org/2000/svg">
 <path d="m1117.5 487.5v-45h-22.5v-22.5h-22.5v-45h-22.5v-22.5h-22.5v-45h-22.5v-22.5h-22.5v-45h-22.5v-22.5h-45v-22.5h-45v-22.5h-315v22.5h-45v22.5h-45v22.5h-22.5v22.5h-22.5v22.5h-22.5v45h-22.5v45h-22.5v22.5h-22.5v22.5h-22.5v22.5h-22.5v45h-22.5v45h-90v22.5h-22.5v135h-67.5v22.5h-22.5v67.5h22.5v22.5h157.5v22.5h22.5v22.5h22.5v45h22.5v22.5h22.5v22.5h45v22.5h22.5v22.5h45v22.5h90v22.5h90v-22.5h90v-22.5h45v-22.5h22.5v-22.5h45v-22.5h22.5v-22.5h22.5v-45h22.5v-22.5h22.5v-22.5h112.5v-22.5h22.5v-67.5h22.5v-22.5h22.5v-45h22.5v-22.5h22.5v-135zm-135-157.5v22.5h22.5v45h22.5v22.5h22.5v45h22.5v22.5h-22.5v22.5h-45v-22.5h-22.5v-45h-22.5v-22.5h-22.5v-45h-22.5v-22.5h-22.5v-22.5zm-90 202.5v-45h-22.5v-45h-22.5v-22.5h-22.5v-22.5h-22.5v-22.5h-22.5v-22.5h22.5v-22.5h45v22.5h22.5v45h22.5v22.5h22.5v45h22.5v22.5h22.5v45h22.5v45h-22.5v22.5h-45v-67.5zm-472.5-202.5h22.5v-22.5h22.5v-22.5h22.5v-22.5h22.5v-22.5h45v-22.5h315v22.5h45v22.5h22.5v22.5h-157.5v22.5h-22.5v22.5h-22.5v22.5h-22.5v-22.5h-67.5v-22.5h-135v22.5h-67.5v22.5h-22.5zm-157.5 270h22.5v-67.5h22.5v-45h22.5v-22.5h22.5v-22.5h22.5v-22.5h22.5v-22.5h45v-22.5h67.5v-22.5h135v22.5h67.5v22.5h45v22.5h22.5v22.5h22.5v22.5h22.5v22.5h22.5v45h22.5v67.5h22.5v90h-90v-90h-22.5v-45h-22.5v-45h-22.5v-22.5h-45v-22.5h-45v-22.5h-135v22.5h-45v22.5h-45v22.5h-22.5v45h-22.5v45h-22.5v90h-90zm360 22.5v-22.5h-90v22.5h-22.5v67.5h-112.5v-90h22.5v-45h22.5v-22.5h22.5v-22.5h45v-22.5h135v22.5h45v22.5h22.5v22.5h22.5v45h22.5v90h-112.5v-67.5zm-22.5 22.5v45h-45v-45zm-405-67.5h22.5v112.5h-22.5zm652.5 247.5h-22.5v45h-22.5v22.5h-67.5v45h-22.5v22.5h-90v22.5h-90v-22.5h-90v-22.5h-22.5v-45h-67.5v-22.5h-22.5v-45h-22.5v-22.5h45v22.5h22.5v22.5h22.5v22.5h22.5v22.5h45v22.5h45v22.5h135v-22.5h45v-22.5h45v-22.5h22.5v-22.5h22.5v-22.5h22.5v-22.5h45zm-382.5 45v-22.5h-22.5v-22.5h-22.5v-22.5h315v22.5h-22.5v22.5h-22.5v22.5h-45v22.5h-135v-22.5zm540-112.5h-900v-22.5h900zm90-157.5h-22.5v45h-22.5v22.5h-22.5v22.5h-90v-45h22.5v-22.5h45v-22.5h22.5v-22.5h22.5v-22.5h22.5v-22.5h22.5zm-810 22.5h45v45h-45zm585 45h-45v-45h45z"/>
</svg>
