<?xml version="1.0" encoding="UTF-8"?>
<svg width="1200pt" height="1200pt" version="1.1" viewBox="0 0 1200 1200" xmlns="http://www.w3.org/2000/svg">
 <path d="m1117.5 544.5v-45h22.5v-225h-22.5v-45h-45v-22.5h-630v22.5h-22.5v22.5h-22.5v22.5h-67.5v22.5h-45v22.5h-180v22.5h-22.5v22.5h-22.5v45h22.5v22.5h22.5v22.5h180v22.5h45v22.5h67.5v22.5h22.5v22.5h22.5v22.5h225v90h22.5v112.5h22.5v45h112.5v112.5h22.5v67.5h22.5v22.5h225v-22.5h22.5v-22.5h22.5v-112.5h-22.5v-112.5h-22.5v-112.5h-22.5v-90zm-832.5-135h-157.5v-45h157.5zm135 67.5h-22.5v-22.5h-67.5v-135h67.5v-22.5h22.5zm45 45v-270h540v270zm337.5 247.5h-67.5v-112.5h-22.5v-45h22.5v22.5h22.5v22.5h22.5v45h22.5zm292.5 180h-22.5v22.5h-180v-45h202.5zm0-90v22.5h-225v-67.5h-22.5v-112.5h-22.5v-45h-22.5v-45h-22.5v-22.5h-22.5v-22.5h270v67.5h22.5v112.5h22.5v112.5zm-45-337.5v-270h22.5v22.5h22.5v225h-22.5v22.5z"/>
</svg>
