<?xml version="1.0" encoding="UTF-8"?>
<svg width="1200pt" height="1200pt" version="1.1" viewBox="0 0 1200 1200" xmlns="http://www.w3.org/2000/svg">
 <path d="m577.5 330h45v45h-45zm225 427.5v360h-22.5v22.5h-90v-22.5h-22.5v-337.5h-22.5v-112.5h-22.5v-45h-45v45h-22.5v112.5h-22.5v337.5h-22.5v22.5h-90v-22.5h-22.5v-360h22.5v-112.5h22.5v-180h22.5v-270h22.5v-67.5h22.5v-45h22.5v-22.5h135v22.5h22.5v45h22.5v67.5h22.5v270h22.5v180h22.5v112.5zm-180-540h45v22.5h22.5v-45h-22.5v-67.5h-22.5v-22.5h-22.5zm-67.5 382.5h-22.5v-22.5h-22.5v-22.5h-22.5v90h-22.5v112.5h-22.5v337.5h45v-315h22.5v-112.5h22.5v-45h22.5zm22.5-90v-22.5h-45v-22.5h-22.5v45h22.5v22.5h22.5v-22.5zm45 45h-45v22.5h45zm22.5-45v22.5h22.5v-22.5h22.5v-202.5h-22.5v-22.5h-22.5v-22.5h-67.5v-157.5h-22.5v22.5h-22.5v67.5h-22.5v202.5h22.5v22.5h22.5v22.5h67.5v67.5zm112.5 247.5h-22.5v-112.5h-22.5v-90h-22.5v22.5h-22.5v22.5h-22.5v22.5h22.5v45h22.5v112.5h22.5v315h45z"/>
</svg>
