<?xml version="1.0" encoding="UTF-8"?>
<svg width="1200pt" height="1200pt" version="1.1" viewBox="0 0 1200 1200" xmlns="http://www.w3.org/2000/svg">
 <path d="m1095 527.26v-67.5h-405v-22.5h-22.5v-22.5h-112.5v-45h-22.5v-22.5h-90v22.5h-22.5v45h-90v-67.5h-45v22.5h-22.5v22.5h-22.5v22.5h-22.5v45h-22.5v-45h-22.5v-22.5h-22.5v-22.5h-22.5v-22.5h-45v135h-22.5v225h22.5v112.5h22.5v22.5h22.5v22.5h67.5v-225h90v225h67.5v-22.5h22.5v-22.5h22.5v-112.5h22.5v-22.5h90v22.5h22.5v22.5h22.5v22.5h90v-22.5h22.5v-22.5h22.5v-67.5h405v-67.5h45v-45zm-967.5-90h22.5v22.5h-22.5zm22.5 360h-22.5v-90h-22.5v-67.5h45zm135-202.5h-22.5v-45h-45v45h-45v-45h-45v45h-22.5v-90h180zm0-135h-22.5v-22.5h22.5zm180-67.5h45v22.5h-45zm-90 315h-22.5v90h-22.5v-112.5h45zm247.5 0h-45v-22.5h45zm22.5-67.5h-315v-180h315zm405-45h-22.5v-45h-45v45h-45v-45h-45v45h-45v-45h-45v45h-45v-45h-45v45h-22.5v-90h360zm-675 22.5h135v-22.5h22.5v-90h-22.5v-22.5h-135v22.5h-22.5v90h22.5zm22.5-90h90v45h-90zm225 0h-67.5v-45h67.5zm0 90h-67.5v-45h67.5z"/>
</svg>
