<?xml version="1.0" encoding="UTF-8"?>
<svg width="1200pt" height="1200pt" version="1.1" viewBox="0 0 1200 1200" xmlns="http://www.w3.org/2000/svg">
 <path d="m1072.5 262.5v-22.5h-22.5v-22.5h-45v-22.5h-22.5v-22.5h-45v-22.5h-22.5v-22.5h-45v-22.5h-22.5v-22.5h-22.5v-22.5h-45v22.5h-22.5v22.5h-22.5v22.5h-22.5v22.5h-22.5v22.5h-22.5v22.5h-22.5v22.5h-22.5v22.5h-22.5v22.5h-22.5v22.5h-22.5v22.5h-22.5v22.5h-22.5v22.5h-22.5v22.5h-22.5v22.5h-22.5v22.5h-22.5v22.5h-22.5v22.5h-22.5v22.5h-22.5v22.5h-22.5v22.5h-22.5v22.5h-22.5v22.5h-22.5v22.5h-22.5v22.5h-22.5v22.5h-22.5v22.5h-22.5v22.5h-22.5v22.5h-22.5v22.5h-22.5v22.5h-22.5v180h22.5v22.5h45v22.5h22.5v22.5h45v22.5h22.5v22.5h45v22.5h22.5v22.5h45v22.5h22.5v22.5h45v-22.5h22.5v-22.5h22.5v-22.5h22.5v-22.5h22.5v-22.5h22.5v-22.5h22.5v-22.5h22.5v-22.5h22.5v-22.5h22.5v-22.5h22.5v-22.5h22.5v-22.5h22.5v-22.5h22.5v-22.5h22.5v-22.5h22.5v-22.5h22.5v-22.5h22.5v-22.5h22.5v-22.5h22.5v-22.5h22.5v-22.5h22.5v-22.5h22.5v-22.5h22.5v-22.5h22.5v-22.5h22.5v-22.5h22.5v-22.5h22.5v-22.5h22.5v-22.5h22.5v-22.5h22.5v-22.5h22.5v-180zm-697.5 810h-22.5v-22.5h-22.5v-22.5h-45v-22.5h-22.5v-22.5h-45v-22.5h-22.5v-22.5h-45v-22.5h-22.5v-90h22.5v22.5h45v22.5h22.5v22.5h45v22.5h22.5v22.5h45v22.5h22.5v22.5h22.5zm0-135v-45h-67.5v-22.5h-45v-22.5h-22.5v-22.5h-45v-22.5h-22.5v-22.5h22.5v-67.5h22.5v-22.5h22.5v-22.5h22.5v-22.5h22.5v22.5h45v-45h-22.5v-22.5h22.5v-22.5h22.5v-22.5h22.5v-22.5h22.5v-22.5h22.5v22.5h45v-45h-22.5v-22.5h22.5v-22.5h22.5v22.5h45v-45h-22.5v-22.5h22.5v-22.5h22.5v-22.5h22.5v-22.5h22.5v-22.5h22.5v22.5h45v-45h-22.5v-22.5h22.5v-22.5h22.5v-22.5h22.5v22.5h45v-45h-22.5v-22.5h22.5v-22.5h22.5v22.5h45v-22.5h45v22.5h22.5v67.5h45v-22.5h22.5v22.5h45v22.5h22.5v22.5h22.5v22.5h-22.5v22.5h-22.5v22.5h-22.5v22.5h-22.5v22.5h-22.5v-22.5h-45v45h22.5v22.5h-22.5v22.5h-22.5v22.5h-22.5v22.5h-22.5v22.5h-22.5v22.5h-22.5v-22.5h-45v45h22.5v22.5h-22.5v22.5h-22.5v22.5h-22.5v22.5h-22.5v22.5h-22.5v22.5h-22.5v22.5h-22.5v22.5h-22.5v-22.5h-45v45h22.5v22.5h-22.5v22.5h-22.5v22.5h-22.5v22.5h-22.5v-22.5h-45v45h22.5v22.5h-22.5v22.5zm697.5-517.5h-22.5v22.5h-22.5v22.5h-22.5v22.5h-22.5v22.5h-22.5v22.5h-22.5v22.5h-22.5v22.5h-22.5v22.5h-22.5v22.5h-22.5v22.5h-22.5v22.5h-22.5v22.5h-22.5v22.5h-22.5v22.5h-22.5v22.5h-22.5v22.5h-22.5v22.5h-22.5v22.5h-22.5v22.5h-22.5v22.5h-22.5v22.5h-22.5v22.5h-22.5v22.5h-22.5v22.5h-22.5v22.5h-22.5v22.5h-22.5v22.5h-22.5v22.5h-22.5v-67.5h22.5v-22.5h22.5v-22.5h22.5v-22.5h22.5v-22.5h22.5v-22.5h22.5v-22.5h22.5v-22.5h22.5v-22.5h22.5v-22.5h22.5v-22.5h22.5v-22.5h22.5v-22.5h22.5v-22.5h22.5v-22.5h22.5v-22.5h22.5v-22.5h22.5v-22.5h22.5v-22.5h22.5v-22.5h22.5v-22.5h22.5v-22.5h22.5v-22.5h22.5v-22.5h22.5v-22.5h22.5v-22.5h22.5v-22.5h22.5v-22.5h22.5v-22.5h22.5zm-67.5-135v45h-45v-45zm-135 22.5h-45v-45h45zm-112.5 45h-45v-45h45zm90 45h-45v-45h45zm-225 22.5h-45v-45h45zm112.5 45h-45v-45h45zm90 22.5h-45v-45h45zm-202.5 0h45v45h-45zm-67.5 67.5h-45v-45h45zm90 22.5h45v45h-45zm-22.5 112.5h-45v-45h45zm-90-45h-45v-45h45zm-112.5-22.5h-45v-45h45zm0 45h45v45h-45zm22.5 90h45v45h-45zm-180-45h45v45h-45zm90 45h45v45h-45zm-45 90h-45v-45h45z"/>
</svg>
