<?xml version="1.0" encoding="UTF-8"?>
<svg width="1200pt" height="1200pt" version="1.1" viewBox="0 0 1200 1200" xmlns="http://www.w3.org/2000/svg">
 <path d="m892.5 892.5v-90h-22.5v-90h-22.5v-67.5h22.5v-45h-22.5v-22.5h-22.5v-22.5h-22.5v-22.5h-22.5v-22.5h-22.5v-22.5h-22.5v-67.5h22.5v-90h22.5v-90h22.5v-90h22.5v-90h-67.5v22.5h-45v22.5h-45v22.5h-22.5v22.5h-22.5v22.5h-22.5v22.5h-22.5v45h-22.5v45h-22.5v-135h22.5v-90h-67.5v22.5h-22.5v22.5h-22.5v45h-22.5v45h-22.5v180h22.5v45h22.5v45h22.5v22.5h22.5v22.5h-22.5v22.5h-22.5v22.5h-22.5v22.5h-22.5v22.5h-22.5v45h22.5v45h22.5v90h-22.5v90h-22.5v67.5h-22.5v45h-22.5v22.5h-22.5v45h-22.5v67.5h22.5v22.5h90v-22.5h22.5v-45h22.5v-45h22.5v-45h22.5v-45h22.5v-45h22.5v-67.5h22.5v-45h180v45h22.5v90h22.5v202.5h22.5v22.5h90v-22.5h22.5v-225zm-315-607.5h22.5v-45h22.5v-22.5h22.5v-22.5h22.5v-22.5h22.5v-22.5h22.5v-22.5h45v-22.5h22.5v45h-22.5v90h-22.5v90h-22.5v22.5h-22.5v-22.5h-112.5zm-45 427.5h-22.5v90h-22.5v90h-22.5v45h-22.5v45h-22.5v45h-22.5v45h-22.5v22.5h-45v-45h22.5v-22.5h22.5v-45h22.5v-45h22.5v-67.5h22.5v-90h22.5v-90h-22.5v-45h-22.5v-22.5h22.5v-22.5h45v22.5h22.5v22.5h22.5zm0-112.5v-22.5h-22.5v-45h45v22.5h22.5v45zm67.5 135h-22.5v-22.5h22.5zm67.5 0h-22.5v-22.5h22.5zm0-67.5h-90v-22.5h22.5v-22.5h45v22.5h22.5zm45-90v22.5h-45v-22.5h-22.5v-22.5h-22.5v-22.5h-22.5v-22.5h-45v-22.5h-22.5v-22.5h-22.5v-22.5h-22.5v-22.5h-22.5v-45h-22.5v-180h22.5v-45h22.5v-22.5h22.5v22.5h-22.5v157.5h22.5v45h22.5v45h45v-22.5h90v22.5h22.5v112.5h22.5v22.5h22.5v45zm157.5 517.5h-45v-180h-22.5v-90h-22.5v-90h-22.5v-45h-22.5v-67.5h22.5v-22.5h45v22.5h22.5v22.5h-22.5v90h22.5v90h22.5v90h22.5zm-270-675h45v45h-45z"/>
</svg>
