<?xml version="1.0" encoding="UTF-8"?>
<svg width="1200pt" height="1200pt" version="1.1" viewBox="0 0 1200 1200" xmlns="http://www.w3.org/2000/svg">
 <path d="m1117.5 262.5v-22.5h-22.5v-22.5h-22.5v-22.5h-22.5v-22.5h-22.5v-22.5h-45v45h22.5v22.5h22.5v22.5h22.5v22.5h22.5v22.5h22.5v22.5h-22.5v22.5h-45v22.5h-22.5v22.5h-45v22.5h-22.5v22.5h-45v22.5h-22.5v22.5h-45v22.5h-22.5v22.5h-45v22.5h-22.5v22.5h-45v22.5h-22.5v22.5h-45v22.5h-22.5v22.5h-45v45h-225v22.5h-45v22.5h-22.5v22.5h-67.5v22.5h-45v22.5h-22.5v45h-22.5v45h-22.5v22.5h-22.5v90h22.5v22.5h22.5v22.5h90v-22.5h22.5v-22.5h337.5v22.5h22.5v22.5h135v-22.5h22.5v-22.5h22.5v-45h225v-22.5h22.5v-405h-45v22.5h-67.5v22.5h-45v22.5h-67.5v22.5h-45v22.5h-67.5v22.5h-22.5v-22.5h22.5v-22.5h45v-22.5h22.5v-22.5h45v-22.5h22.5v-22.5h45v-22.5h22.5v-22.5h45v-22.5h22.5v-22.5h45v-22.5h22.5v-22.5h45v-22.5h22.5v-22.5h45v-22.5h22.5v-67.5zm-922.5 720h-22.5v22.5h-45v-22.5h-22.5v-45h22.5v-22.5h45v22.5h22.5zm337.5-22.5h-292.5v-22.5h135v-22.5h22.5v-22.5h135zm22.5-112.5h-180v22.5h-22.5v22.5h-157.5v-22.5h-45v-22.5h22.5v-22.5h22.5v-22.5h360zm0-90h-225v-22.5h225zm45-90h22.5v22.5h-22.5zm112.5 315h-22.5v22.5h-90v-22.5h-22.5v-90h22.5v-22.5h90v22.5h22.5zm-22.5-270v-22.5h67.5v-22.5h45v-22.5h67.5v-22.5h45v-22.5h45v315h-202.5v-45h-22.5v-22.5h-22.5v-22.5h-112.5v-90h45v-22.5zm-517.5 225v45h-45v-45zm450-22.5h45v45h-45z"/>
</svg>
