<?xml version="1.0" encoding="UTF-8"?>
<svg width="1200pt" height="1200pt" version="1.1" viewBox="0 0 1200 1200" xmlns="http://www.w3.org/2000/svg">
 <path d="m262.5 780h-90v22.5h-22.5v90h22.5v22.5h90v-22.5h22.5v-90h-22.5zm-22.5 90h-45v-45h45zm855-675v22.5h-22.5v22.5h-45v22.5h-22.5v22.5h-45v22.5h-22.5v22.5h-45v22.5h-22.5v22.5h-45v22.5h-22.5v22.5h-45v22.5h-22.5v22.5h-45v22.5h-22.5v22.5h-45v22.5h-22.5v22.5h-45v22.5h-22.5v22.5h-202.5v22.5h-67.5v22.5h-45v22.5h-22.5v22.5h-45v22.5h-45v22.5h-22.5v45h-22.5v135h22.5v45h22.5v22.5h45v22.5h135v-22.5h45v-22.5h22.5v-45h180v22.5h22.5v22.5h22.5v22.5h22.5v22.5h67.5v-22.5h22.5v-67.5h315v-22.5h22.5v-585h22.5v-22.5h22.5v-22.5h45v-22.5h22.5v-45zm-765 720h-22.5v22.5h-22.5v22.5h-135v-22.5h-22.5v-22.5h-22.5v-135h22.5v-22.5h22.5v-22.5h135v22.5h22.5v22.5h22.5zm45-135h-22.5v-45h-22.5v-22.5h-45v-22.5h-22.5v-22.5h67.5v-22.5h45zm270 180h-22.5v-22.5h-22.5v-22.5h-22.5v-22.5h-22.5v-22.5h-135v-225h90v90h22.5v67.5h22.5v45h22.5v45h22.5v22.5h22.5v22.5h22.5zm337.5-90h-360v-22.5h-22.5v-45h-22.5v-67.5h-22.5v-112.5h22.5v-22.5h22.5v-22.5h45v-22.5h22.5v-22.5h45v-22.5h22.5v-22.5h45v-22.5h22.5v-22.5h45v-22.5h22.5v-22.5h45v-22.5h22.5v-22.5h45z"/>
</svg>
