<?xml version="1.0" encoding="UTF-8"?>
<svg width="1200pt" height="1200pt" version="1.1" viewBox="0 0 1200 1200" xmlns="http://www.w3.org/2000/svg">
 <path d="m1140 319.5h-22.5v-22.5h-585v22.5h-22.5v45h-67.5v22.5h-22.5v22.5h-360v67.5h22.5v22.5h22.5v22.5h45v22.5h45v22.5h45v22.5h67.5v22.5h112.5v22.5h22.5v22.5h112.5v22.5h22.5v67.5h-22.5v22.5h-22.5v22.5h-112.5v22.5h-22.5v90h22.5v22.5h180v-22.5h45v-22.5h45v-22.5h135v22.5h45v22.5h45v22.5h180v-22.5h22.5v-90h-22.5v-22.5h-112.5v-22.5h-22.5v-22.5h-22.5v-135h22.5v-22.5h22.5v-22.5h45v-22.5h22.5v-22.5h22.5v-22.5h45v-22.5h22.5zm-720 247.5h-112.5v-22.5h-67.5v-22.5h-45v-22.5h-45v-22.5h-22.5v-22.5h292.5zm90 45h-45v-202.5h45zm585-157.5h-22.5v22.5h-45v22.5h-22.5v22.5h-22.5v22.5h-45v22.5h-22.5v45h-22.5v135h22.5v45h22.5v22.5h45v22.5h90v45h-157.5v-22.5h-45v-22.5h-45v-22.5h-135v22.5h-45v22.5h-45v22.5h-157.5v-45h90v-22.5h45v-22.5h22.5v-45h22.5v-90h-22.5v-22.5h-22.5v-22.5h-22.5v-202.5h540zm0-90h-540v-22.5h540z"/>
</svg>
