<?xml version="1.0" encoding="UTF-8"?>
<svg width="1200pt" height="1200pt" version="1.1" viewBox="0 0 1200 1200" xmlns="http://www.w3.org/2000/svg">
 <path d="m937.5 757.5v-45h-45v-22.5h-225v-495h180v-22.5h22.5v-90h-22.5v-22.5h-495v22.5h-22.5v90h22.5v22.5h180v495h-225v22.5h-45v45h-22.5v247.5h22.5v22.5h45v45h22.5v22.5h67.5v45h45v-45h45v45h45v-45h45v45h45v-45h45v45h45v-45h45v45h45v-45h67.5v-22.5h22.5v-45h45v-22.5h22.5v-247.5zm-562.5-607.5v-45h450v45zm247.5 45v495h-45v-495zm225 855h-495v-135h495zm0-180h-45v-45h-45v45h-45v-45h-45v45h-45v-45h-45v45h-45v-45h-45v45h-45v-45h-45v45h-45v-67.5h495zm67.5 112.5h-22.5v-202.5h-22.5v-22.5h-540v22.5h-22.5v202.5h-22.5v-225h22.5v-22.5h585v22.5h22.5zm-472.5 22.5h-45v-45h45zm90 0h-45v-45h45zm90 0h-45v-45h45zm90 0h-45v-45h45zm90 0h-45v-45h45z"/>
</svg>
