<?xml version="1.0" encoding="UTF-8"?>
<svg width="1200pt" height="1200pt" version="1.1" viewBox="0 0 1200 1200" xmlns="http://www.w3.org/2000/svg">
 <path d="m1140 577.5h-22.5v-45h-22.5v-22.5h-22.5v-22.5h-45v-22.5h-45v-67.5h-22.5v-45h-45v-22.5h-112.5v-67.5h-22.5v-22.5h-90v22.5h-22.5v67.5h-112.5v22.5h-45v45h-22.5v225h-22.5v-22.5h-45v-22.5h-22.5v-22.5h-45v-22.5h-22.5v-22.5h-45v-22.5h-22.5v-67.5h-22.5v-67.5h-45v22.5h-22.5v22.5h-22.5v22.5h-22.5v22.5h-22.5v22.5h-22.5v22.5h-22.5v45h67.5v22.5h67.5v22.5h22.5v22.5h22.5v22.5h22.5v22.5h22.5v22.5h22.5v22.5h22.5v22.5h22.5v22.5h22.5v22.5h22.5v22.5h22.5v22.5h22.5v22.5h22.5v22.5h22.5v90h22.5v22.5h450v-22.5h22.5v-22.5h45v-22.5h45v-22.5h22.5v-22.5h22.5v-45h22.5zm-900-67.5h-22.5v22.5h-22.5v-22.5h-67.5v-22.5h22.5v-22.5h22.5v-22.5h22.5v-22.5h22.5v67.5h22.5zm247.5 270h-22.5v-22.5h-22.5v-22.5h-22.5v-22.5h-22.5v-22.5h-22.5v-22.5h-22.5v-22.5h-22.5v-22.5h-22.5v-22.5h-22.5v-22.5h-22.5v-22.5h45v22.5h22.5v22.5h45v22.5h22.5v22.5h45v22.5h22.5v22.5h22.5zm225-495h45v45h-45zm225 630h-405v-450h405zm0-495h-405v-22.5h22.5v-22.5h360v22.5h22.5zm135 360v45h-22.5v22.5h-45v22.5h-22.5v-360h22.5v22.5h45v22.5h22.5v45h22.5v180z"/>
</svg>
